<?xml version="1.0" encoding="UTF-8"?>
<svg viewBox="0 0 215 275" xmlns="http://www.w3.org/2000/svg">
 <g fill-rule="evenodd" label="Layer 1">
  <path transform="translate(1.6076 -.3352)" d="m67.236 1.7446l10.625 10.625v67.312c-7.086 10.63-48.434 89.778-70.875 134.66-7.0863 14.17-7.0671 31.89 3.563 46.06 7.086 10.63 19.461 14.19 31.875 14.19h127.57c12.41 0 24.78-3.56 31.87-14.19 10.63-14.17 10.65-31.89 3.56-46.06-20.07-44.88-43.7-89.78-63.78-134.66v-67.31l10.28-10.282 0.35-0.3434h-85.034l-4e-3 -0.0016z" fill="#d7e9fc" label="Layer 1"/>
  <path transform="translate(1.6076 -.3352)" d="m66.781 0.34375c-0.456 0.09071-0.824 0.42717-0.955 0.87335-0.132 0.4462-4e-3 0.9284 0.33 1.2517l10.25 10.25v66.469c-1.898 2.889-5.624 9.501-10.75 18.937-5.228 9.625-11.765 21.915-18.781 35.285-14.032 26.73-29.992 57.76-41.219 80.21-7.2636 14.53-7.2304 32.75 3.6565 47.32 0.013 0.02 0.0182 0.04 0.0313 0.06 7.3942 11.04 20.245 14.69 32.875 14.69h127.56c12.63 0 25.48-3.65 32.88-14.69 0.01-0.02 0.01-0.04 0.03-0.06 10.88-14.57 10.92-32.79 3.65-47.32-20.07-44.86-43.61-89.66-63.65-134.43v-66.471l9.9-9.9065 0.35-0.3437c0.35-0.3572 0.45-0.8886 0.26-1.351-0.19-0.46246-0.64-0.76691-1.14-0.77405h-85.029c-0.083-0.00835-0.167-0.00835-0.25 0l0.0012 2e-4zm3.281 2.5h78.968l-8.47 8.4682c-0.24 0.239-0.38 0.566-0.37 0.907v67.312c-0.01 0.172 0.03 0.342 0.09 0.5 20.1 44.929 43.73 89.829 63.78 134.66l0.03 0.03c6.9 13.8 6.9 31.01-3.43 44.78-0.01 0.01-0.02 0.02-0.04 0.03-6.78 10.18-18.66 13.66-30.84 13.66h-127.56c-12.176 0-24.06-3.48-30.845-13.66-0.01-0.01-0.021-0.02-0.031-0.03-10.331-13.77-10.338-30.98-3.4378-44.78 11.215-22.43 27.164-53.41 41.188-80.13 7.012-13.36 13.531-25.67 18.75-35.278 5.219-9.607 9.158-16.565 10.844-19.093 0.138-0.203 0.214-0.442 0.218-0.688v-67.312c4e-3 -0.341-0.132-0.668-0.375-0.907l-8.469-8.4682z" fill="#9fabb9" label="Layer 1"/>
  <path transform="translate(1.6076 -.3352)" d="m68.309 111.76c-14.788 26.37-39.847 73.05-55.375 103.07-6.6406 12.83-6.617 28.85 3.343 41.68 6.64 9.63 18.244 12.85 29.875 12.85h119.5c11.63 0 23.24-3.22 29.88-12.85 9.96-12.83 9.98-28.85 3.34-41.68-15.9-34.35-34.05-68.72-50.69-103.07h-79.873z" fill="#00ff7f" label="Layer 1"/>
  <path transform="translate(1.6076 -.3352)" d="m68.313 111.61c-0.035 0.01-0.067 0.04-0.094 0.06-0.038 0.03-0.07 0.06-0.094 0.1-14.79 26.37-39.844 73.04-55.375 103.06-6.6891 12.93-6.6623 29.1 3.375 42.03 6.718 9.74 18.436 12.97 30.125 12.97h119.5c11.69 0 23.41-3.23 30.13-12.97 10.03-12.93 10.06-29.1 3.37-42.03-15.9-34.36-34.06-68.69-50.69-103.03-0.05-0.12-0.16-0.19-0.28-0.19h-79.874c-0.031-0.01-0.062-0.01-0.093 0zm0.281 0.62h79.496c16.62 34.29 34.73 68.61 50.6 102.88v0.03c6.59 12.74 6.57 28.61-3.31 41.34-6.57 9.52-18.06 12.72-29.63 12.72h-119.5c-11.574 0-23.063-3.2-29.625-12.72-9.8831-12.73-9.9037-28.6-3.312-41.34 15.501-29.96 40.488-76.52 55.281-102.91z" fill="#565e63" label="Layer 1"/>
  <path transform="translate(1.6076 -.3352)" d="m128.94 11.909v68.75c22.55 47.691 45.21 95.361 67.7 143.07 6.29 14.9-1.55 32.26-15.16 39.89-12.14 8.15-27.08 5-40.74 5.56h-29.01c17.31-2.23 34.97-2.65 52.05-6.09 11.21-3.5 24.84-9.74 25.53-23.29 0.7-14.46-8.37-26.7-13.2-39.77l-52.17-119.37v-68.751l9.03-9.0852h5.04l-9.07 9.0852v1e-3z" fill="#fff" label="Layer 1"/>
  <path transform="translate(1.6076 -.3352)" d="m83.614 11.909v68.75c-22.554 47.691-49.689 91.031-72.176 138.75-6.2917 14.89-1.25 35 11.25 43.75 12.5 6.25 8.75 5 22.878 6.64 9.668 0 45.586-0.62 55.254-0.62-17.309-2.23-34.971-2.65-52.048-6.09-11.216-3.5-24.841-9.74-25.526-23.29-0.706-14.46 8.366-26.7 13.192-39.77 17.392-39.79 34.784-79.58 52.176-119.37v-68.751l-9.038-9.0852h-5.032l9.07 9.0852v1e-3z" fill-opacity=".17625" label="Layer 1"/>
 </g>
</svg>
