<?xml version="1.0" encoding="UTF-8" standalone="no"?>
<!DOCTYPE svg PUBLIC "-//W3C//DTD SVG 1.1//EN" "http://www.w3.org/Graphics/SVG/1.1/DTD/svg11.dtd">
<svg xmlns="http://www.w3.org/2000/svg" version="1.1" viewBox="0 0 266 164">
<path fill="#010000" fill-opacity="0.992" d="M 208.62,25.09 Q 208.91,28.46 208.51,29.55 Q 208.23,30.31 207.85,30.10 A 0.85,0.54 -73.0 0 1 207.62,29.26 Q 208.08,27.00 207.19,24.81 Q 206.26,22.55 204.81,25.31 Q 204.03,26.80 203.90,28.49 Q 203.80,29.89 202.69,29.47 A 1.21,1.06 -43.9 0 0 201.82,29.51 Q 200.75,29.99 199.75,28.75 Q 198.02,26.60 198.13,24.56 A 0.71,0.54 -82.9 0 0 197.73,23.87 Q 197.01,23.69 196.70,24.46 A 1.07,0.67 46.1 0 0 196.88,25.32 Q 197.44,26.19 196.65,26.91 Q 195.88,27.60 195.65,27.90 Q 195.05,28.69 194.32,29.36 A 1.14,0.69 -51.3 0 1 193.45,29.68 Q 192.92,29.54 193.25,28.75 Q 194.68,25.29 196.12,21.84 Q 197.08,19.52 198.27,21.02 Q 198.67,21.51 198.96,22.59 Q 199.73,25.42 201.24,27.93 Q 201.64,28.58 202.13,28.65 Q 202.66,28.71 203.02,28.20 A 1.55,0.85 70.8 0 0 203.18,27.25 Q 202.62,22.32 207.02,23.27 A 2.04,2.04 -86.3 0 1 208.62,25.09 Z"/>
<path fill="#010000" fill-opacity="0.992" d="M 218.44,26.19 Q 218.59,24.68 220.25,24.25 Q 222.41,23.69 223.59,21.72 Q 223.90,21.19 224.20,21.06 Q 224.65,20.87 224.98,21.25 Q 225.18,21.48 225.21,21.93 Q 225.44,25.84 225.03,29.48 A 1.44,1.43 -90.0 0 1 223.77,30.75 Q 219.47,31.25 218.05,27.19 Q 217.63,25.99 218.44,26.19 ZM 222.0802,29.3536 A 2.52,1.74 85.9 0 0 223.6355,26.7156 A 2.52,1.74 85.9 0 0 221.7198,24.3264 A 2.52,1.74 85.9 0 0 220.1645,26.9644 A 2.52,1.74 85.9 0 0 222.0802,29.3536 Z"/>
<path fill="#010000" fill-opacity="0.992" d="M 214.4116,30.7877 A 3.77,3.27 88.0 0 1 211.0120,27.1341 A 3.77,3.27 88.0 0 1 214.1484,23.2523 A 3.77,3.27 88.0 0 1 217.5480,26.9059 A 3.77,3.27 88.0 0 1 214.4116,30.7877 ZM 214.4009,29.3635 A 2.53,1.83 85.9 0 0 216.0453,26.7092 A 2.53,1.83 85.9 0 0 214.0391,24.3165 A 2.53,1.83 85.9 0 0 212.3947,26.9708 A 2.53,1.83 85.9 0 0 214.4009,29.3635 Z"/>
<path fill="#010000" fill-opacity="0.992" d="M 33.32,34.25 Q 34.05,34.14 34.01,34.64 Q 33.99,34.90 33.71,35.14 Q 29.08,39.01 26.45,34.90 Q 25.21,32.96 25.40,30.89 Q 25.63,28.35 27.81,27.06 Q 30.68,25.38 33.08,27.91 Q 33.48,28.33 33.50,28.84 Q 33.54,29.88 32.61,29.52 Q 32.31,29.40 31.86,28.99 Q 29.88,27.16 28.11,28.54 Q 26.84,29.53 26.64,31.35 Q 26.30,34.53 29.52,35.61 A 1.10,0.92 -50.2 0 0 30.40,35.45 Q 31.73,34.51 33.32,34.25 Z"/>
<path fill="#010000" fill-opacity="0.992" d="M 45.20,28.31 Q 46.16,29.12 45.39,32.20 A 4.53,4.49 -49.1 0 0 45.58,34.99 Q 46.33,36.81 44.92,36.65 A 0.65,0.64 0.6 0 1 44.33,36.06 L 43.75,28.95 Q 43.59,26.94 45.20,28.31 Z"/>
<path fill="#010000" fill-opacity="0.992" d="M 54.15,32.29 A 0.57,0.57 -32.5 0 0 55.06,32.49 Q 57.05,30.65 58.67,29.79 Q 59.42,29.40 60.02,28.82 Q 62.14,26.78 61.86,30.27 Q 61.76,31.55 61.76,32.23 Q 61.77,33.96 61.71,35.69 A 1.46,1.29 70.1 0 1 61.36,36.58 Q 59.68,38.40 57.36,37.08 Q 57.18,36.97 56.73,36.35 L 54.94,33.90 Q 54.61,33.45 54.39,34.03 Q 52.17,39.86 47.91,35.55 A 1.62,1.45 21.2 0 1 47.48,34.70 Q 47.31,33.41 47.60,32.18 Q 47.90,30.96 49.01,30.28 Q 52.48,28.16 54.15,32.29 ZM 50.8364,36.0197 A 2.61,2.05 89.2 0 0 52.8498,33.3814 A 2.61,2.05 89.2 0 0 50.7636,30.8003 A 2.61,2.05 89.2 0 0 48.7502,33.4386 A 2.61,2.05 89.2 0 0 50.8364,36.0197 ZM 58.9586,35.8450 A 2.41,1.95 83.6 0 0 60.6278,33.2326 A 2.41,1.95 83.6 0 0 58.4214,31.0550 A 2.41,1.95 83.6 0 0 56.7522,33.6674 A 2.41,1.95 83.6 0 0 58.9586,35.8450 Z"/>
<path fill="#010000" fill-opacity="0.992" d="M 39.02,31.30 Q 38.30,30.14 37.33,31.12 A 1.41,1.22 72.3 0 0 36.96,31.99 Q 36.86,34.09 37.77,36.48 Q 38.28,37.83 37.06,37.05 Q 34.05,35.13 36.14,33.53 A 1.26,1.25 58.8 0 0 36.51,32.01 Q 35.56,30.02 37.50,29.50 Q 41.29,28.48 41.44,31.06 Q 41.55,33.03 41.58,35.00 Q 41.61,36.95 39.51,37.29 Q 38.25,37.49 39.11,36.54 Q 39.92,35.64 39.49,34.76 Q 38.86,33.51 39.12,32.23 A 1.42,0.90 -63.9 0 0 39.02,31.30 Z"/>
<path fill="#010000" fill-opacity="0.992" d="M 193.92,37.88 Q 195.29,36.14 194.70,38.79 Q 193.61,43.70 194.87,48.53 A 1.04,0.68 65.8 0 1 194.73,49.41 Q 194.29,49.88 193.81,48.94 Q 191.27,43.96 193.53,38.55 Q 193.69,38.17 193.92,37.88 Z"/>
<path fill="#010000" fill-opacity="0.992" d="M 207.76,45.71 A 0.94,0.94 -33.1 0 0 206.60,45.47 Q 202.73,47.46 204.14,45.35 Q 204.41,44.95 204.46,44.44 L 204.99,38.30 A 0.80,0.70 86.2 0 1 205.51,37.62 Q 206.09,37.45 205.85,38.22 Q 205.75,38.54 205.77,38.81 Q 205.93,41.47 206.56,44.07 A 0.64,0.49 76.4 0 0 207.18,44.57 Q 208.16,44.34 208.36,41.94 A 2.59,2.59 -9.9 0 1 209.86,39.81 Q 213.13,38.29 213.51,41.67 Q 213.72,43.46 213.75,43.70 Q 213.97,45.11 213.75,45.75 Q 213.09,47.64 212.44,46.22 Q 212.26,45.83 212.30,45.26 Q 212.40,43.85 212.11,42.49 Q 211.77,40.95 210.84,41.01 Q 209.89,41.07 208.84,42.89 A 2.86,2.82 54.2 0 0 208.53,44.90 Q 209.06,47.31 207.76,45.71 Z"/>
<rect fill="#010000" fill-opacity="0.992" x="-0.74" y="-3.42" transform="translate(225.06,40.97) rotate(-13.5)" width="1.48" height="6.84" rx="0.67"/>
<path fill="#040404" d="M 202.02,46.31 Q 202.46,46.58 201.97,46.75 Q 196.72,48.67 198.02,44.65 A 1.85,0.75 -30.7 0 1 198.59,43.90 Q 199.83,42.78 198.87,40.25 A 0.53,0.53 -12.0 0 1 199.34,39.53 Q 202.60,39.37 202.08,41.07 Q 202.02,41.24 200.76,42.86 Q 199.32,44.70 202.02,46.31 Z"/>
<path fill="#010000" fill-opacity="0.992" d="M 217.51,44.80 A 1.46,1.46 -21.8 0 0 219.28,45.56 Q 222.30,44.59 221.13,46.26 Q 220.78,46.77 220.18,47.04 Q 216.94,48.52 216.16,44.28 Q 215.73,41.92 217.34,40.13 Q 219.00,38.28 220.83,40.44 Q 221.80,41.58 220.31,41.51 Q 215.86,41.31 217.51,44.80 Z"/>
<path fill="#010000" fill-opacity="0.992" d="M 29.51,44.23 Q 30.23,43.12 30.25,44.45 Q 30.26,44.72 30.15,45.03 Q 28.53,49.74 30.01,54.52 Q 30.91,57.44 29.10,54.97 Q 25.62,50.20 29.51,44.23 Z"/>
<path fill="#010000" fill-opacity="0.992" d="M 52.98,52.89 Q 52.19,52.24 52.25,50.75 Q 52.34,48.13 52.70,45.49 Q 53.08,42.73 53.86,44.84 Q 54.00,45.22 54.01,45.70 Q 54.04,49.07 53.94,52.46 Q 53.90,53.65 52.98,52.89 Z"/>
<path fill="#010000" fill-opacity="0.992" d="M 57.69,52.16 L 57.43,45.25 Q 57.36,43.44 58.18,45.00 Q 60.89,50.13 57.68,56.01 A 0.59,0.38 -56.8 0 1 56.97,56.33 Q 56.57,55.95 57.19,54.33 Q 57.72,52.96 57.69,52.16 Z"/>
<path fill="#010000" fill-opacity="0.992" d="M 40.69,45.94 Q 40.90,43.67 42.16,44.88 A 1.40,1.05 -74.7 0 1 42.51,45.76 L 42.80,56.05 A 0.47,0.25 84.9 0 1 42.62,56.48 Q 42.54,56.50 42.46,56.49 A 0.32,0.25 82.4 0 1 42.26,56.29 Q 40.24,50.88 40.69,45.94 Z"/>
<path fill="#040404" d="M 185.81,67.19 Q 186.06,68.76 187.19,67.69 Q 196.44,58.88 205.74,50.12 Q 206.12,49.76 206.47,49.65 Q 207.43,49.35 207.14,50.36 Q 207.04,50.71 206.71,51.03 Q 198.08,59.41 189.15,67.45 Q 186.28,70.04 185.59,72.07 Q 184.92,74.05 185.13,76.23 Q 185.52,80.29 185.52,80.32 Q 185.60,91.44 185.31,102.56 Q 185.25,104.91 184.11,106.60 Q 178.82,114.47 169.79,115.49 Q 165.93,115.92 158.86,114.13 Q 145.57,110.77 132.24,107.50 Q 130.37,107.04 128.53,107.56 Q 116.49,110.98 104.31,114.53 Q 100.23,115.72 97.56,115.56 Q 95.21,115.41 92.95,114.76 Q 90.50,114.05 88.47,113.55 Q 81.30,111.78 77.84,105.98 Q 76.64,103.97 76.76,101.64 Q 77.02,96.62 76.80,92.07 Q 76.54,86.43 76.84,82.55 Q 77.47,74.38 77.69,66.18 Q 77.77,62.98 78.99,61.12 Q 81.75,56.91 87.18,55.88 Q 89.91,55.36 89.43,52.92 A 0.81,0.78 2.6 0 0 88.84,52.30 L 67.06,46.80 A 1.15,0.87 0.3 0 1 66.34,46.25 Q 65.65,44.70 67.73,45.32 Q 69.02,45.70 69.16,45.74 Q 80.78,48.56 92.30,51.72 Q 95.48,52.60 98.71,52.01 Q 127.87,46.67 157.50,52.00 Q 169.86,54.22 180.59,59.70 Q 183.07,60.97 184.15,62.67 Q 185.43,64.69 185.81,67.19 ZM 166.75,61.04 Q 171.55,62.19 173.32,66.53 Q 173.52,67.02 173.82,66.62 Q 174.80,65.29 173.81,64.19 Q 172.29,62.49 170.75,60.79 Q 175.42,61.78 175.50,66.24 A 1.66,1.55 -30.1 0 1 175.22,67.17 Q 172.73,70.77 168.54,72.24 Q 167.34,72.66 168.43,73.31 Q 169.61,74.02 170.23,75.15 Q 170.69,75.99 170.68,77.57 Q 170.52,95.30 169.73,113.37 A 0.58,0.57 5.0 0 0 170.23,113.96 Q 173.21,114.37 175.49,113.03 Q 179.46,110.70 182.45,107.18 Q 183.90,105.46 183.92,102.99 L 184.17,73.82 A 0.35,0.33 79.9 0 0 183.72,73.48 Q 182.15,74.12 181.31,75.31 Q 180.73,76.13 179.99,76.10 A 0.39,0.37 -75.3 0 1 179.69,75.54 Q 180.25,74.37 181.40,73.63 Q 183.25,72.45 183.79,70.57 Q 184.17,69.20 184.13,66.91 Q 184.03,62.61 179.94,60.81 Q 162.06,52.94 142.24,51.39 Q 132.38,50.61 122.26,50.96 Q 112.37,51.29 102.28,53.13 Q 101.28,53.31 102.23,53.69 Q 105.67,55.07 109.52,55.52 Q 112.01,55.82 116.96,55.32 Q 142.43,52.75 166.75,61.04 ZM 93.01,53.02 Q 91.37,52.73 90.19,53.26 A 0.89,0.82 -11.4 0 0 89.67,53.98 Q 89.60,55.02 90.75,54.77 Q 92.13,54.48 93.13,54.07 Q 94.87,53.34 93.01,53.02 ZM 89.79,62.50 Q 90.01,68.06 91.46,62.50 Q 96.24,59.10 102.00,57.79 L 106.02,56.74 Q 107.26,56.42 106.01,56.17 L 102.50,55.46 Q 99.21,53.81 96.25,54.50 Q 93.61,55.11 84.45,58.46 Q 81.45,59.55 80.00,62.00 Q 79.03,63.64 78.90,67.22 Q 78.56,76.27 78.43,85.76 A 0.44,0.42 3.6 0 0 78.83,86.19 L 95.20,87.63 A 0.55,0.54 8.8 0 0 95.79,87.20 Q 96.73,82.65 96.50,79.75 Q 96.14,75.17 99.45,72.62 A 0.48,0.48 38.2 0 0 99.35,71.80 Q 95.08,69.87 91.12,67.60 Q 86.65,65.03 89.04,60.55 Q 89.31,60.04 89.80,59.81 Q 91.59,58.98 90.40,61.33 Q 90.11,61.90 89.79,62.50 ZM 126.19,55.75 Q 121.56,55.47 117.08,56.97 A 0.55,0.45 -6.3 0 0 116.72,57.34 Q 116.69,57.50 116.72,57.63 A 0.83,0.45 -2.2 0 0 117.48,58.01 Q 120.71,58.06 123.87,57.48 Q 128.31,56.67 130.19,56.70 Q 137.43,56.80 144.33,58.94 Q 146.69,59.68 147.52,61.00 Q 148.66,62.80 147.86,65.22 A 1.35,0.97 -10.5 0 1 147.22,65.89 L 144.51,67.23 Q 142.62,68.15 144.71,68.64 L 161.78,72.59 A 1.50,1.37 35.7 0 0 162.73,72.48 Q 166.33,70.67 169.30,68.99 Q 171.07,67.98 171.49,66.81 Q 172.21,64.74 169.44,63.56 Q 152.36,56.29 132.98,56.16 Q 132.86,56.16 126.19,55.75 ZM 116.32,65.25 Q 114.99,62.61 116.05,58.99 A 0.55,0.55 -72.7 0 0 115.68,58.30 Q 112.41,57.31 109.32,57.61 Q 108.07,57.74 103.16,58.86 Q 98.38,59.95 94.56,61.81 Q 91.78,63.17 92.22,66.19 A 1.26,1.17 15.6 0 0 92.71,66.99 Q 95.34,68.91 98.40,69.97 Q 102.36,71.33 102.39,71.34 Q 104.39,71.83 106.75,71.25 Q 114.08,69.46 116.10,68.98 Q 121.19,67.76 117.02,65.88 A 1.55,1.21 3.9 0 1 116.32,65.25 ZM 130.70,62.08 L 121.39,59.76 A 4.95,4.39 40.4 0 0 118.85,59.81 Q 116.92,60.41 117.08,61.83 A 1.00,0.80 12.9 0 0 117.64,62.53 Q 121.47,64.34 126.75,64.75 Q 135.12,65.40 141.56,64.31 Q 144.02,63.89 146.20,62.68 A 0.88,0.88 -38.6 0 0 146.36,61.26 Q 145.23,60.24 143.49,59.80 Q 134.49,57.54 125.24,58.50 Q 123.54,58.68 125.19,59.10 Q 127.39,59.67 130.24,60.28 Q 131.68,60.59 131.38,61.71 A 0.58,0.54 14.5 0 1 130.70,62.08 ZM 129.31,69.44 Q 127.12,69.01 124.89,68.80 Q 124.80,68.80 123.63,68.58 Q 121.99,68.29 121.78,70.01 A 1.55,1.47 -21.3 0 1 121.39,70.84 Q 120.40,71.91 121.33,72.96 A 1.95,1.46 26.3 0 1 121.76,73.81 Q 122.12,75.68 123.31,76.19 Q 130.57,79.26 138.00,76.50 Q 140.57,75.55 139.94,74.31 Q 138.83,72.17 140.82,71.86 A 0.49,0.45 -10.8 0 0 141.23,71.31 Q 140.99,70.33 140.22,69.75 Q 139.52,69.23 138.16,69.33 Q 131.38,69.84 129.31,69.44 ZM 102.77,72.63 Q 101.69,72.36 100.57,72.32 Q 100.01,72.30 100.27,72.77 Q 100.95,73.96 102.45,73.87 A 0.82,0.80 71.5 0 1 103.18,74.24 Q 103.86,75.27 104.80,74.86 Q 106.12,74.27 106.19,74.26 Q 112.49,72.76 118.73,71.06 Q 119.24,70.92 119.59,70.69 Q 121.09,69.70 119.25,69.53 Q 118.80,69.49 118.26,69.65 Q 111.68,71.64 104.90,72.76 Q 103.96,72.92 102.77,72.63 ZM 98.71,109.00 L 98.40,109.36 Q 98.01,109.81 97.98,109.07 Q 97.64,102.00 97.94,94.92 Q 97.95,94.80 98.31,92.63 Q 98.73,90.01 95.75,89.54 L 78.81,87.60 A 0.47,0.45 -87.2 0 0 78.31,88.07 Q 78.26,98.13 78.00,100.75 Q 77.72,103.58 78.50,105.04 Q 85.37,112.47 95.50,113.71 L 98.01,113.53 Q 98.47,113.50 98.12,113.19 Q 96.77,111.98 98.71,111.75 Q 99.27,112.77 100.49,112.46 Q 112.86,109.25 124.98,105.18 Q 127.03,104.49 129.14,104.08 Q 131.09,103.71 133.31,104.35 Q 149.84,109.18 166.24,113.36 A 0.81,0.81 8.0 0 0 167.25,112.60 Q 167.71,97.00 168.42,81.51 Q 168.54,79.03 167.81,76.69 Q 167.08,74.31 165.50,75.75 Q 164.45,76.70 163.37,76.24 Q 161.99,75.65 161.90,75.63 Q 155.17,74.08 146.02,71.83 A 1.53,1.50 -57.7 0 0 144.67,72.15 Q 143.28,73.32 145.83,73.83 Q 153.61,75.40 161.54,77.58 A 1.80,1.78 -81.6 0 1 162.85,79.36 L 161.94,107.05 A 0.75,0.74 -81.7 0 1 161.01,107.75 Q 147.15,104.16 133.31,100.54 Q 131.25,100.00 129.18,100.49 Q 116.95,103.38 104.80,106.56 A 0.38,0.37 -6.4 0 1 104.32,106.19 L 104.79,91.19 A 0.68,0.64 -81.6 0 0 104.33,90.53 Q 102.10,89.83 99.80,90.22 A 0.56,0.54 83.2 0 0 99.35,90.81 Q 99.99,99.94 98.71,109.00 ZM 105.61,75.51 Q 105.22,75.42 105.03,75.66 A 1.16,1.16 -51.1 0 1 103.40,75.83 Q 102.21,74.86 101.43,75.23 Q 100.90,75.48 100.53,76.63 Q 98.99,81.31 100.00,86.25 A 2.60,0.88 79.6 0 0 101.25,88.50 L 104.26,88.51 A 0.52,0.52 -88.9 0 0 104.78,88.01 L 105.24,77.98 A 1.11,1.08 85.7 0 1 106.10,76.95 Q 112.16,75.63 117.19,74.07 Q 118.82,73.56 118.13,72.82 A 0.92,0.78 -27.0 0 0 117.26,72.61 L 106.54,75.53 Q 106.17,75.63 105.61,75.51 ZM 165.51,74.10 Q 165.96,72.81 164.68,73.24 Q 164.17,73.41 163.85,73.85 Q 163.00,75.01 164.82,74.67 A 0.93,0.87 3.5 0 0 165.51,74.10 ZM 120.1110,75.2718 A 0.26 0.26 0.0 0 0 119.7995,75.0764 L 110.5198,77.2018 A 0.26 0.26 0.0 0 0 110.3244,77.5132 L 110.3690,77.7082 A 0.26 0.26 0.0 0 0 110.6805,77.9036 L 119.9602,75.7782 A 0.26 0.26 0.0 0 0 120.1556,75.4668 L 120.1110,75.2718 ZM 116.69,91.22 L 109.19,90.85 A 0.58,0.52 3.1 0 0 108.58,91.34 L 107.99,102.02 A 0.65,0.64 -6.9 0 0 108.82,102.66 Q 117.64,100.17 126.78,97.70 Q 126.90,97.66 128.20,97.24 Q 130.86,96.36 134.25,97.25 Q 146.04,100.35 157.16,103.58 A 0.80,0.78 9.2 0 0 158.18,102.86 L 158.81,80.69 A 0.64,0.60 -82.9 0 0 158.34,80.05 L 145.79,77.23 Q 144.07,76.84 141.89,77.60 Q 131.36,81.27 122.14,78.21 Q 120.02,77.50 118.24,77.80 Q 115.68,78.23 113.18,78.91 Q 112.57,79.08 110.78,79.14 Q 108.87,79.20 108.87,81.13 Q 108.87,83.19 108.85,83.38 Q 108.56,86.10 108.88,88.82 A 0.59,0.58 -1.1 0 0 109.43,89.34 Q 112.87,89.56 116.25,90.23 Q 116.82,90.34 117.05,90.72 Q 117.37,91.26 116.69,91.22 ZM 107.07,80.03 Q 105.78,83.83 106.56,87.79 Q 107.03,90.12 107.23,87.54 Q 107.25,87.27 107.22,86.96 Q 106.92,83.69 107.84,80.57 Q 108.38,78.75 107.46,79.45 Q 107.19,79.66 107.07,80.03 ZM 161.1614,79.6955 A 0.30 0.30 0.0 0 0 160.8704,79.3867 L 160.8104,79.3849 A 0.30 0.30 0.0 0 0 160.5017,79.6759 L 159.7386,105.3845 A 0.30 0.30 0.0 0 0 160.0296,105.6933 L 160.0896,105.6951 A 0.30 0.30 0.0 0 0 160.3983,105.4041 L 161.1614,79.6955 ZM 106.44,91.19 Q 106.03,92.73 106.24,98.34 Q 106.25,98.50 106.22,98.67 Q 105.89,100.27 106.62,98.83 Q 106.69,98.69 106.69,98.53 Q 106.72,94.88 106.79,91.25 Q 106.82,89.72 106.44,91.19 ZM 143.6303,101.5613 A 0.27 0.27 0.0 0 0 143.4383,101.2313 L 130.1154,97.7113 A 0.27 0.27 0.0 0 0 129.7854,97.9033 L 129.7497,98.0387 A 0.27 0.27 0.0 0 0 129.9417,98.3687 L 143.2646,101.8887 A 0.27 0.27 0.0 0 0 143.5946,101.6967 L 143.6303,101.5613 Z"/>
<path fill="#010000" fill-opacity="0.992" d="M 35.6642,53.7383 A 3.85,3.24 88.3 0 1 32.3114,49.9861 A 3.85,3.24 88.3 0 1 35.4358,46.0417 A 3.85,3.24 88.3 0 1 38.7886,49.7939 A 3.85,3.24 88.3 0 1 35.6642,53.7383 ZM 35.8423,52.4399 A 2.56,1.98 89.5 0 0 37.7999,49.8627 A 2.56,1.98 89.5 0 0 35.7977,47.3201 A 2.56,1.98 89.5 0 0 33.8401,49.8973 A 2.56,1.98 89.5 0 0 35.8423,52.4399 Z"/>
<path fill="#010000" fill-opacity="0.992" d="M 49.81,47.19 Q 50.58,47.61 50.50,50.50 Q 50.40,53.94 47.87,53.69 Q 46.12,53.51 45.37,51.81 Q 44.87,50.69 44.88,49.44 Q 44.89,48.14 45.79,47.36 Q 47.47,45.91 49.81,47.19 ZM 48.95,48.95 Q 49.15,49.01 49.29,48.88 A 0.52,0.41 44.6 0 0 49.20,48.19 Q 48.25,47.32 47.34,48.14 A 0.41,0.40 -51.6 0 0 47.41,48.80 Q 47.88,49.04 48.40,48.91 A 1.06,0.51 29.8 0 1 48.95,48.95 ZM 47.6114,52.9913 A 1.64,1.29 95.9 0 0 49.0632,51.4926 A 1.64,1.29 95.9 0 0 47.9486,49.7287 A 1.64,1.29 95.9 0 0 46.4968,51.2274 A 1.64,1.29 95.9 0 0 47.6114,52.9913 Z"/>
<path fill="#675b49" d="M 48.40,48.91 Q 47.88,49.04 47.41,48.80 A 0.41,0.40 -51.6 0 1 47.34,48.14 Q 48.25,47.32 49.20,48.19 A 0.52,0.41 44.6 0 1 49.29,48.88 Q 49.15,49.01 48.95,48.95 A 1.06,0.51 29.8 0 0 48.40,48.91 Z"/>
<path fill="#010000" fill-opacity="0.992" d="M 223.64,49.52 Q 222.45,49.34 223.56,48.72 A 0.76,0.61 -34.7 0 1 224.41,48.78 Q 224.67,49.05 224.41,49.32 A 1.00,0.71 20.7 0 1 223.64,49.52 Z"/>
<path fill="#f9575e" d="M 170.75,60.79 Q 168.70,60.20 166.75,61.04 Q 142.43,52.75 116.96,55.32 Q 112.01,55.82 109.52,55.52 Q 105.67,55.07 102.23,53.69 Q 101.28,53.31 102.28,53.13 Q 112.37,51.29 122.26,50.96 Q 132.38,50.61 142.24,51.39 Q 162.06,52.94 179.94,60.81 Q 184.03,62.61 184.13,66.91 Q 184.17,69.20 183.79,70.57 Q 183.25,72.45 181.40,73.63 Q 180.25,74.37 179.69,75.54 A 0.39,0.37 -75.3 0 0 179.99,76.10 Q 180.73,76.13 181.31,75.31 Q 182.15,74.12 183.72,73.48 A 0.35,0.33 79.9 0 1 184.17,73.82 L 183.92,102.99 Q 183.90,105.46 182.45,107.18 Q 179.46,110.70 175.49,113.03 Q 173.21,114.37 170.23,113.96 A 0.58,0.57 5.0 0 1 169.73,113.37 Q 170.52,95.30 170.68,77.57 Q 170.69,75.99 170.23,75.15 Q 169.61,74.02 168.43,73.31 Q 167.34,72.66 168.54,72.24 Q 172.73,70.77 175.22,67.17 A 1.66,1.55 -30.1 0 0 175.50,66.24 Q 175.42,61.78 170.75,60.79 Z"/>
<path fill="#f3aba8" d="M 93.01,53.02 Q 94.87,53.34 93.13,54.07 Q 92.13,54.48 90.75,54.77 Q 89.60,55.02 89.67,53.98 A 0.89,0.82 -11.4 0 1 90.19,53.26 Q 91.37,52.73 93.01,53.02 Z"/>
<path fill="#f9575e" d="M 102.50,55.46 L 102.00,57.79 Q 96.24,59.10 91.46,62.50 L 89.79,62.50 Q 90.11,61.90 90.40,61.33 Q 91.59,58.98 89.80,59.81 Q 89.31,60.04 89.04,60.55 Q 86.65,65.03 91.12,67.60 Q 95.08,69.87 99.35,71.80 A 0.48,0.48 38.2 0 1 99.45,72.62 Q 96.14,75.17 96.50,79.75 Q 96.73,82.65 95.79,87.20 A 0.55,0.54 8.8 0 1 95.20,87.63 L 78.83,86.19 A 0.44,0.42 3.6 0 1 78.43,85.76 Q 78.56,76.27 78.90,67.22 Q 79.03,63.64 80.00,62.00 Q 81.45,59.55 84.45,58.46 Q 93.61,55.11 96.25,54.50 Q 99.21,53.81 102.50,55.46 Z"/>
<path fill="#e67f80" d="M 102.50,55.46 L 106.01,56.17 Q 107.26,56.42 106.02,56.74 L 102.00,57.79 L 102.50,55.46 Z"/>
<path fill="#0561c2" d="M 132.98,56.16 Q 152.36,56.29 169.44,63.56 Q 172.21,64.74 171.49,66.81 Q 171.07,67.98 169.30,68.99 Q 166.33,70.67 162.73,72.48 A 1.50,1.37 35.7 0 1 161.78,72.59 L 144.71,68.64 Q 142.62,68.15 144.51,67.23 L 147.22,65.89 A 1.35,0.97 -10.5 0 0 147.86,65.22 Q 148.66,62.80 147.52,61.00 Q 146.69,59.68 144.33,58.94 Q 137.43,56.80 130.19,56.70 Q 128.31,56.67 123.87,57.48 Q 120.71,58.06 117.48,58.01 A 0.83,0.45 -2.2 0 1 116.72,57.63 Q 116.69,57.50 116.72,57.34 A 0.55,0.45 -6.3 0 1 117.08,56.97 Q 121.56,55.47 126.19,55.75 Q 132.86,56.16 132.98,56.16 Z"/>
<path fill="#0767c8" d="M 117.02,65.88 Q 121.19,67.76 116.10,68.98 Q 114.08,69.46 106.75,71.25 Q 104.39,71.83 102.39,71.34 Q 102.36,71.33 98.40,69.97 Q 95.34,68.91 92.71,66.99 A 1.26,1.17 15.6 0 1 92.22,66.19 Q 91.78,63.17 94.56,61.81 Q 98.38,59.95 103.16,58.86 Q 108.07,57.74 109.32,57.61 Q 112.41,57.31 115.68,58.30 A 0.55,0.55 -74.0 0 1 116.05,58.99 Q 114.99,62.61 116.32,65.25 A 1.55,1.21 3.9 0 0 117.02,65.88 Z"/>
<path fill="#748e81" d="M 131.38,61.71 Q 131.68,60.59 130.24,60.28 Q 127.39,59.67 125.19,59.10 Q 123.54,58.68 125.24,58.50 Q 134.49,57.54 143.49,59.80 Q 145.23,60.24 146.36,61.26 A 0.88,0.88 -38.6 0 1 146.20,62.68 Q 144.02,63.89 141.56,64.31 Q 135.12,65.40 126.75,64.75 Q 121.47,64.34 117.64,62.53 A 1.00,0.80 12.9 0 1 117.08,61.83 Q 116.92,60.41 118.85,59.81 A 4.95,4.39 40.4 0 1 121.39,59.76 L 130.70,62.08 A 0.58,0.54 14.5 0 0 131.38,61.71 Z"/>
<path fill="#f3aba8" d="M 170.75,60.79 Q 172.29,62.49 173.81,64.19 Q 174.80,65.29 173.82,66.62 Q 173.52,67.02 173.32,66.53 Q 171.55,62.19 166.75,61.04 Q 168.70,60.20 170.75,60.79 Z"/>
<path fill="#e67f80" d="M 89.79,62.50 L 91.46,62.50 Q 90.01,68.06 89.79,62.50 Z"/>
<path fill="#223b38" d="M 129.31,69.44 Q 131.38,69.84 138.16,69.33 Q 139.52,69.23 140.22,69.75 Q 140.99,70.33 141.23,71.31 A 0.49,0.45 -10.8 0 1 140.82,71.86 Q 138.83,72.17 139.94,74.31 Q 140.57,75.55 138.00,76.50 Q 130.57,79.26 123.31,76.19 Q 122.12,75.68 121.76,73.81 A 1.95,1.46 26.3 0 0 121.33,72.96 Q 120.40,71.91 121.39,70.84 A 1.55,1.47 -21.3 0 0 121.78,70.01 Q 121.99,68.29 123.63,68.58 Q 124.80,68.80 124.89,68.80 Q 127.12,69.01 129.31,69.44 Z"/>
<path fill="#53423d" d="M 104.90,72.76 Q 111.68,71.64 118.26,69.65 Q 118.80,69.49 119.25,69.53 Q 121.09,69.70 119.59,70.69 Q 119.24,70.92 118.73,71.06 Q 112.49,72.76 106.19,74.26 Q 106.12,74.27 104.80,74.86 Q 103.86,75.27 103.18,74.24 A 0.82,0.80 71.5 0 0 102.45,73.87 Q 100.95,73.96 100.27,72.77 Q 100.01,72.30 100.57,72.32 Q 101.69,72.36 102.77,72.63 Q 103.96,72.92 104.90,72.76 Z"/>
<path fill="#675b49" d="M 98.71,111.75 Q 98.40,110.39 98.71,109.00 Q 99.99,99.94 99.35,90.81 A 0.56,0.54 83.2 0 1 99.80,90.22 Q 102.10,89.83 104.33,90.53 A 0.68,0.64 -81.6 0 1 104.79,91.19 L 104.32,106.19 A 0.38,0.37 -6.4 0 0 104.80,106.56 Q 116.95,103.38 129.18,100.49 Q 131.25,100.00 133.31,100.54 Q 147.15,104.16 161.01,107.75 A 0.75,0.74 -81.7 0 0 161.94,107.05 L 162.85,79.36 A 1.80,1.78 -81.6 0 0 161.54,77.58 Q 153.61,75.40 145.83,73.83 Q 143.28,73.32 144.67,72.15 A 1.53,1.50 -57.7 0 1 146.02,71.83 Q 155.17,74.08 161.90,75.63 Q 161.99,75.65 163.37,76.24 Q 164.45,76.70 165.50,75.75 Q 167.08,74.31 167.81,76.69 Q 168.54,79.03 168.42,81.51 Q 167.71,97.00 167.25,112.60 A 0.81,0.81 8.0 0 1 166.24,113.36 Q 149.84,109.18 133.31,104.35 Q 131.09,103.71 129.14,104.08 Q 127.03,104.49 124.98,105.18 Q 112.86,109.25 100.49,112.46 Q 99.27,112.77 98.71,111.75 Z"/>
<path fill="#675b49" d="M 106.54,75.53 L 117.26,72.61 A 0.92,0.78 -27.0 0 1 118.13,72.82 Q 118.82,73.56 117.19,74.07 Q 112.16,75.63 106.10,76.95 A 1.11,1.08 85.7 0 0 105.24,77.98 L 104.78,88.01 A 0.52,0.52 -88.9 0 1 104.26,88.51 L 101.25,88.50 A 2.60,0.88 79.6 0 1 100.00,86.25 Q 98.99,81.31 100.53,76.63 Q 100.90,75.48 101.43,75.23 Q 102.21,74.86 103.40,75.83 A 1.16,1.16 -50.9 0 0 105.03,75.66 Q 105.22,75.42 105.61,75.51 Q 106.17,75.63 106.54,75.53 Z"/>
<path fill="#413028" d="M 164.82,74.67 Q 163.00,75.01 163.85,73.85 Q 164.17,73.41 164.68,73.24 Q 165.96,72.81 165.51,74.10 A 0.93,0.87 3.5 0 1 164.82,74.67 Z"/>
<rect fill="#413028" x="-5.02" y="-0.36" transform="translate(115.24,76.49) rotate(-12.9)" width="10.04" height="0.72" rx="0.26"/>
<path fill="#fbbeae" d="M 117.05,90.72 Q 116.82,90.34 116.25,90.23 Q 112.87,89.56 109.43,89.34 A 0.59,0.58 -1.1 0 1 108.88,88.82 Q 108.56,86.10 108.85,83.38 Q 108.87,83.19 108.87,81.13 Q 108.87,79.20 110.78,79.14 Q 112.57,79.08 113.18,78.91 Q 115.68,78.23 118.24,77.80 Q 120.02,77.50 122.14,78.21 Q 131.36,81.27 141.89,77.60 Q 144.07,76.84 145.79,77.23 L 158.34,80.05 A 0.64,0.60 -82.9 0 1 158.81,80.69 L 158.18,102.86 A 0.80,0.78 9.2 0 1 157.16,103.58 Q 146.04,100.35 134.25,97.25 Q 130.86,96.36 128.20,97.24 Q 126.90,97.66 126.78,97.70 Q 117.64,100.17 108.82,102.66 A 0.65,0.64 -6.9 0 1 107.99,102.02 L 108.58,91.34 A 0.58,0.52 3.1 0 1 109.19,90.85 L 116.69,91.22 Q 117.37,91.26 117.05,90.72 Z"/>
<ellipse fill="#010000" fill-opacity="0.992" cx="0.00" cy="0.00" transform="translate(22.91,83.18) rotate(91.6)" rx="4.57" ry="0.90"/>
<rect fill="#010000" fill-opacity="0.992" x="-0.82" y="-4.34" transform="translate(58.58,83.62) rotate(-1.7)" width="1.64" height="8.68" rx="0.70"/>
<path fill="#413028" d="M 107.46,79.45 Q 108.38,78.75 107.84,80.57 Q 106.92,83.69 107.22,86.96 Q 107.25,87.27 107.23,87.54 Q 107.03,90.12 106.56,87.79 Q 105.78,83.83 107.07,80.03 Q 107.19,79.66 107.46,79.45 Z"/>
<rect fill="#675b49" x="-0.33" y="-13.16" transform="translate(160.45,92.54) rotate(1.7)" width="0.66" height="26.32" rx="0.30"/>
<path fill="#010000" fill-opacity="0.992" d="M 41.13,84.76 L 40.26,82.68 A 1.27,0.73 56.4 0 1 40.20,81.79 Q 42.09,77.74 42.83,81.26 Q 42.98,81.97 42.77,83.23 Q 42.45,85.04 42.98,86.97 Q 43.51,88.91 41.71,88.01 Q 40.43,87.38 41.05,85.71 A 1.41,0.68 -59.3 0 0 41.13,84.76 Z"/>
<path fill="#010000" fill-opacity="0.992" d="M 64.69,80.94 Q 66.39,78.99 66.87,81.15 Q 67.00,81.72 66.83,82.82 Q 66.55,84.61 66.75,87.75 Q 66.87,89.65 65.66,88.54 Q 65.31,88.21 65.19,87.71 Q 64.87,86.38 64.96,85.00 A 1.40,1.27 30.5 0 0 64.68,84.11 Q 63.43,82.38 64.69,80.94 Z"/>
<path fill="#010000" fill-opacity="0.992" d="M 15.98,81.17 Q 18.58,79.67 20.46,83.13 A 1.13,0.97 44.4 0 1 20.54,84.04 L 18.94,87.94 Q 18.02,90.17 16.00,88.25 Q 14.26,86.59 14.19,84.41 Q 14.12,82.25 15.98,81.17 ZM 17.7242,87.2736 A 2.64,1.42 86.0 0 0 18.9565,84.5409 A 2.64,1.42 86.0 0 0 17.3558,82.0064 A 2.64,1.42 86.0 0 0 16.1235,84.7391 A 2.64,1.42 86.0 0 0 17.7242,87.2736 Z"/>
<path fill="#010000" fill-opacity="0.992" d="M 33.68,82.97 Q 35.80,78.94 38.93,81.95 Q 40.09,83.06 38.52,82.75 Q 33.87,81.85 35.31,86.44 Q 35.98,88.56 38.00,87.00 Q 38.58,86.55 38.97,86.86 A 0.60,0.47 -49.5 0 1 38.94,87.64 Q 37.47,89.30 35.34,88.09 Q 33.29,86.92 33.01,85.04 Q 32.73,83.19 31.99,84.85 L 30.59,87.99 A 1.68,1.54 -61.2 0 1 28.25,88.78 Q 26.07,87.29 25.74,85.13 Q 25.36,82.67 27.25,81.61 Q 29.31,80.47 32.27,83.22 A 0.91,0.90 -54.8 0 0 33.68,82.97 ZM 28.9062,87.4572 A 2.58,1.16 84.3 0 0 29.8043,84.7748 A 2.58,1.16 84.3 0 0 28.3938,82.3228 A 2.58,1.16 84.3 0 0 27.4957,85.0052 A 2.58,1.16 84.3 0 0 28.9062,87.4572 Z"/>
<path fill="#010000" fill-opacity="0.992" d="M 50.40,82.20 Q 54.61,79.16 56.00,84.00 Q 56.73,86.53 54.63,88.43 A 1.43,1.37 22.0 0 1 53.75,88.78 Q 49.40,88.97 49.46,84.77 Q 49.47,83.79 49.23,83.28 Q 48.60,81.96 47.66,82.63 A 2.83,2.80 -14.9 0 0 46.51,84.59 Q 46.09,88.07 44.96,87.49 A 0.74,0.58 -71.2 0 1 44.69,86.71 Q 44.98,85.57 45.02,84.40 Q 45.07,82.92 45.55,82.24 Q 47.02,80.14 49.61,82.18 A 0.67,0.67 46.2 0 0 50.40,82.20 ZM 52.4003,87.7865 A 2.61,1.88 97.7 0 0 54.6130,85.4519 A 2.61,1.88 97.7 0 0 53.0997,82.6135 A 2.61,1.88 97.7 0 0 50.8870,84.9481 A 2.61,1.88 97.7 0 0 52.4003,87.7865 Z"/>
<path fill="#040404" d="M 62.68,86.96 Q 62.93,87.65 62.31,87.46 A 0.74,0.65 -89.6 0 1 61.84,86.91 Q 61.54,85.39 61.89,83.87 Q 61.94,83.65 62.07,83.56 Q 62.28,83.40 62.42,83.60 Q 62.50,83.71 62.50,83.92 Q 62.46,85.15 62.54,86.39 Q 62.56,86.62 62.68,86.96 Z"/>
<path fill="#010000" fill-opacity="0.992" d="M 73.50,85.82 Q 74.01,86.02 73.52,86.27 Q 70.82,87.63 69.92,85.85 Q 69.03,84.06 70.90,84.80 L 73.50,85.82 Z"/>
<path fill="#f9575e" d="M 95.75,89.54 L 94.96,112.00 Q 93.18,112.43 91.43,111.85 Q 85.64,109.93 81.06,105.94 Q 79.74,104.78 78.50,105.04 Q 77.72,103.58 78.00,100.75 Q 78.26,98.13 78.31,88.07 A 0.47,0.45 -87.2 0 1 78.81,87.60 L 95.75,89.54 Z"/>
<path fill="#4e1d20" d="M 95.75,89.54 Q 98.73,90.01 98.31,92.63 Q 97.95,94.80 97.94,94.92 Q 97.64,102.00 97.98,109.07 Q 98.01,109.81 98.40,109.36 L 98.71,109.00 Q 98.40,110.39 98.71,111.75 Q 96.77,111.98 98.12,113.19 Q 98.47,113.50 98.01,113.53 L 95.50,113.71 L 94.96,112.00 L 95.75,89.54 Z"/>
<path fill="#53423d" d="M 106.44,91.19 Q 106.82,89.72 106.79,91.25 Q 106.72,94.88 106.69,98.53 Q 106.69,98.69 106.62,98.83 Q 105.89,100.27 106.22,98.67 Q 106.25,98.50 106.24,98.34 Q 106.03,92.73 106.44,91.19 Z"/>
<rect fill="#413028" x="-7.16" y="-0.34" transform="translate(136.69,99.80) rotate(14.8)" width="14.32" height="0.68" rx="0.27"/>
<path fill="#f3aba8" d="M 78.50,105.04 Q 79.74,104.78 81.06,105.94 Q 85.64,109.93 91.43,111.85 Q 93.18,112.43 94.96,112.00 L 95.50,113.71 Q 85.37,112.47 78.50,105.04 Z"/>
<path fill="#010000" fill-opacity="0.992" d="M 82.91,133.05 Q 84.83,135.18 84.16,137.72 Q 83.53,140.11 81.37,140.93 Q 79.40,141.68 76.66,141.06 Q 74.92,140.67 74.22,142.32 Q 73.32,144.46 73.95,146.86 A 1.09,1.09 -9.5 0 1 72.98,148.22 Q 71.49,148.35 71.64,146.70 Q 71.75,145.38 71.75,145.29 Q 71.75,139.60 71.75,133.14 A 1.39,1.28 -87.6 0 1 73.15,131.75 L 82.08,132.59 A 1.46,1.12 66.5 0 1 82.91,133.05 ZM 81.6833,135.9863 A 2.32 2.32 0.0 0 0 79.4082,133.6222 L 76.1089,133.5589 A 2.32 2.32 0.0 0 0 73.7447,135.8339 L 73.7167,137.2937 A 2.32 2.32 0.0 0 0 75.9918,139.6578 L 79.2911,139.7211 A 2.32 2.32 0.0 0 0 81.6553,137.4461 L 81.6833,135.9863 Z"/>
<path fill="#010000" fill-opacity="0.992" d="M 87.69,131.94 Q 89.10,131.44 88.97,133.27 Q 88.83,135.11 87.50,133.75 A 1.17,0.98 56.1 0 1 87.69,131.94 Z"/>
<rect fill="#010000" fill-opacity="0.992" x="-0.89" y="-8.17" transform="translate(93.64,140.01) rotate(0.2)" width="1.78" height="16.34" rx="0.85"/>
<rect fill="#010000" fill-opacity="0.992" x="-0.84" y="-7.83" transform="translate(131.58,140.16) rotate(-0.4)" width="1.68" height="15.66" rx="0.79"/>
<rect fill="#010000" fill-opacity="0.992" x="160.75" y="132.53" width="1.76" height="15.52" rx="0.85"/>
<path fill="#010000" fill-opacity="0.992" d="M 190.46,137.41 Q 188.10,136.79 186.28,138.57 A 1.75,1.14 -62.2 0 1 185.45,139.03 Q 183.72,139.27 184.96,137.92 Q 185.26,137.60 185.79,137.39 Q 186.82,136.99 187.88,136.32 A 1.02,1.02 -30.4 0 0 188.23,134.98 Q 187.13,132.90 188.19,133.46 Q 188.57,133.65 188.80,134.06 Q 189.20,134.76 189.36,135.56 A 0.80,0.76 -89.2 0 0 189.92,136.17 Q 191.63,136.63 192.68,137.91 Q 193.46,138.87 193.58,140.82 Q 193.76,143.95 194.14,146.83 A 0.71,0.71 -6.6 0 1 193.50,147.63 Q 190.40,147.93 187.96,148.12 Q 185.72,148.30 184.65,147.63 Q 182.65,146.39 184.25,143.50 Q 185.55,141.14 188.53,141.64 Q 188.86,141.69 189.05,141.85 Q 189.54,142.27 188.40,142.46 Q 185.56,142.92 185.50,145.75 Q 185.45,147.96 188.50,147.25 Q 193.12,146.17 191.21,141.94 A 1.04,0.92 -45.4 0 1 191.26,141.07 Q 192.05,139.52 191.20,137.98 A 1.26,1.17 -5.3 0 0 190.46,137.41 Z"/>
<ellipse fill="#010000" fill-opacity="0.992" cx="0.00" cy="0.00" transform="translate(88.20,142.26) rotate(90.9)" rx="6.56" ry="1.15"/>
<path fill="#010000" fill-opacity="0.992" d="M 104.97,136.41 Q 107.40,137.22 107.51,140.05 L 107.76,146.82 A 1.08,1.00 88.9 0 1 106.76,147.94 Q 104.92,147.94 102.90,148.20 Q 100.23,148.55 99.12,148.15 Q 96.27,147.13 97.79,143.36 Q 98.63,141.28 100.84,141.72 Q 102.43,142.04 103.63,141.45 Q 104.93,140.82 104.92,139.41 Q 104.91,138.14 103.72,137.56 Q 102.87,137.16 101.78,137.58 Q 100.24,138.18 98.89,139.19 A 0.44,0.40 -31.8 0 1 98.25,139.07 Q 97.70,137.89 99.12,137.17 Q 102.35,135.53 104.97,136.41 ZM 100.44,146.81 Q 105.03,148.20 105.23,144.13 A 1.45,1.45 88.5 0 0 103.64,142.62 Q 101.92,142.79 100.71,143.32 Q 99.71,143.76 99.40,144.75 Q 98.90,146.35 100.44,146.81 Z"/>
<path fill="#010000" fill-opacity="0.992" d="M 120.40,141.58 Q 125.76,142.48 124.37,138.53 A 1.31,1.31 4.3 0 0 123.75,137.81 Q 121.42,136.60 120.00,138.25 Q 118.12,140.44 118.05,138.32 A 0.93,0.92 72.8 0 1 118.46,137.53 Q 121.01,135.84 124.20,136.31 Q 126.89,136.72 127.03,139.31 L 127.43,147.13 A 0.71,0.69 0.4 0 1 126.68,147.85 Q 124.58,147.73 122.84,148.03 Q 120.28,148.47 119.14,148.15 Q 114.72,146.92 117.94,142.57 A 2.54,2.52 22.9 0 1 120.40,141.58 ZM 123.73,142.22 Q 121.71,142.39 119.74,143.55 A 1.52,1.46 -4.9 0 0 119.10,144.28 Q 118.16,146.64 120.50,147.00 Q 125.08,147.71 124.94,143.29 A 1.12,1.11 -3.4 0 0 123.73,142.22 Z"/>
<path fill="#010000" fill-opacity="0.992" d="M 178.31,136.69 Q 180.50,137.64 180.50,140.75 L 180.50,146.74 A 1.39,0.98 74.3 0 1 180.18,147.64 Q 179.46,148.38 178.95,147.28 Q 178.75,146.85 178.75,146.19 Q 178.75,143.22 178.75,140.27 A 3.05,3.00 26.1 0 0 178.09,138.39 Q 175.91,135.64 178.31,136.69 Z"/>
<path fill="#010000" fill-opacity="0.992" d="M 144.76,144.43 A 0.71,0.70 -73.6 0 1 145.29,145.41 Q 143.84,148.69 140.25,148.25 Q 136.80,147.83 135.75,145.50 Q 135.00,143.85 135.53,140.98 Q 136.00,138.46 137.71,137.31 Q 140.55,135.43 143.90,137.65 A 1.14,1.09 14.3 0 1 144.39,138.44 Q 144.63,140.45 142.80,138.71 Q 140.68,136.68 138.82,137.86 Q 137.44,138.74 137.06,140.73 Q 136.56,143.38 138.12,145.58 Q 139.12,147.00 140.47,147.10 Q 142.17,147.23 143.21,145.23 Q 143.71,144.26 144.76,144.43 Z"/>
<path fill="#010000" fill-opacity="0.992" d="M 154.07,136.42 Q 156.83,137.16 157.00,140.29 L 157.37,146.94 A 0.60,0.54 82.5 0 1 156.95,147.55 Q 153.13,148.38 149.25,148.05 A 1.41,1.36 -18.6 0 1 148.39,147.64 Q 145.24,144.31 149.31,141.99 A 1.79,1.35 25.6 0 1 150.25,141.80 Q 151.77,141.91 153.18,141.49 Q 154.53,141.09 154.88,140.02 Q 155.37,138.55 153.75,137.50 Q 152.18,136.48 149.31,138.81 Q 147.53,140.27 148.16,138.04 A 1.22,1.18 -6.5 0 1 148.75,137.32 Q 151.62,135.77 154.07,136.42 ZM 155.2806,143.8405 A 3.26,2.22 -16.2 0 0 151.5306,142.6181 A 3.26,2.22 -16.2 0 0 149.0194,145.6595 A 3.26,2.22 -16.2 0 0 152.7694,146.8819 A 3.26,2.22 -16.2 0 0 155.2806,143.8405 Z"/>
<rect fill="#010000" fill-opacity="0.992" x="-0.74" y="-5.52" transform="translate(166.70,142.43) rotate(0.9)" width="1.48" height="11.04" rx="0.71"/>
</svg>
