<?xml version="1.0" encoding="UTF-8" standalone="no"?>
<!DOCTYPE svg PUBLIC "-//W3C//DTD SVG 1.1//EN" "http://www.w3.org/Graphics/SVG/1.1/DTD/svg11.dtd">
<svg xmlns="http://www.w3.org/2000/svg" version="1.1" viewBox="0 0 300 316">
<path fill="#ffffff" d="M 0.00,0.00 Q 150.00,0.00 300.00,0.00 Q 300.00,158.00 300.00,316.00 Q 150.00,316.00 0.00,316.00 Q 0.00,158.00 0.00,0.00 ZM 153.46,41.50 L 148.46,54.00 L 140.50,74.21 L 135.00,88.21 L 119.54,127.00 L 109.34,152.61 A 2.86,2.82 -84.7 0 1 107.30,154.33 Q 53.25,165.49 1.30,176.46 Q 0.34,176.67 1.23,176.57 Q 3.23,176.37 5.25,176.38 Q 65.47,176.55 125.69,176.44 A 0.71,0.69 -80.7 0 0 126.35,175.95 L 135.71,147.25 L 146.39,115.35 Q 147.25,112.80 147.25,115.49 L 147.43,226.82 A 0.62,0.58 5.3 0 0 147.94,227.40 Q 158.88,229.19 169.75,226.96 Q 179.21,225.38 190.31,219.81 Q 193.17,218.38 194.06,216.12 Q 194.65,214.62 194.68,214.56 Q 199.59,204.54 204.00,194.29 L 212.32,176.80 A 1.51,1.47 5.3 0 1 213.32,175.99 L 229.25,171.96 L 297.28,154.67 Q 300.66,153.81 297.17,153.81 L 231.00,153.79 L 209.50,153.79 L 196.46,153.75 A 1.58,1.57 -79.9 0 0 194.98,154.79 L 170.00,222.29 Q 169.74,221.81 169.75,220.50 Q 169.83,204.09 169.71,129.50 L 169.71,98.25 L 169.71,68.50 L 169.71,51.00 L 169.75,0.99 Q 169.75,0.14 169.44,0.93 L 153.46,41.50 ZM 42.04,129.50 Q 40.35,135.63 39.75,141.96 Q 37.99,152.20 38.65,162.56 A 0.45,0.43 82.0 0 0 39.17,162.97 L 82.25,154.22 A 0.65,0.64 85.5 0 0 82.76,153.61 Q 83.22,141.56 87.71,130.25 Q 90.25,124.14 93.71,118.50 Q 106.60,98.61 128.02,89.19 A 3.29,3.28 89.1 0 0 129.75,87.40 L 148.20,40.47 A 0.52,0.52 -81.8 0 0 147.67,39.76 Q 124.56,41.64 103.92,52.28 Q 55.87,77.05 42.04,129.50 ZM 239.06,71.94 Q 212.20,46.80 176.04,40.80 A 0.90,0.90 -85.4 0 0 175.00,41.69 L 174.82,84.69 A 0.64,0.62 -83.1 0 0 175.29,85.31 Q 199.54,91.69 215.19,110.48 A 0.94,0.93 47.6 0 0 216.57,110.55 L 246.40,80.60 A 0.60,0.58 50.3 0 0 246.46,79.83 Q 244.39,76.93 239.06,71.94 ZM 44.79,196.75 Q 48.24,207.35 53.79,217.00 Q 72.89,251.09 108.71,266.75 Q 125.22,274.19 143.25,276.21 Q 156.36,277.72 169.50,276.46 Q 180.76,275.57 191.54,272.25 Q 202.01,269.42 211.54,264.25 Q 216.96,261.74 221.79,258.25 Q 235.72,249.45 246.43,236.95 A 0.87,0.87 -47.5 0 0 246.38,235.76 L 222.50,211.96 L 216.08,205.45 A 0.40,0.38 -47.5 0 0 215.51,205.49 L 210.00,211.71 Q 203.77,217.66 196.50,222.29 Q 188.38,227.04 179.46,230.00 Q 169.31,232.93 158.75,233.04 Q 140.47,233.31 124.00,225.54 Q 102.70,214.70 91.21,193.75 L 86.08,182.10 A 1.00,0.94 77.6 0 0 85.20,181.50 L 54.75,181.54 L 41.50,181.73 A 0.44,0.43 85.4 0 0 41.08,182.24 Q 42.30,189.66 44.79,196.75 ZM 147.96,282.20 A 0.73,0.71 -89.6 0 0 147.24,282.93 Q 147.33,297.60 147.25,311.26 Q 147.25,311.80 147.21,312.72 Q 146.96,317.99 149.16,313.07 Q 155.90,297.98 162.80,282.95 A 0.34,0.33 -77.0 0 0 162.51,282.47 L 147.96,282.20 Z"/>
<path fill="#0a4570" d="M 169.71,51.00 Q 169.45,51.90 168.90,52.25 A 0.95,0.68 41.0 0 1 168.01,52.17 Q 164.79,50.12 162.31,47.19 Q 160.74,45.32 155.19,42.81 Q 153.82,42.19 153.46,41.50 L 169.44,0.93 Q 169.75,0.14 169.75,0.99 L 169.71,51.00 Z"/>
<path fill="#2a2562" d="M 93.71,118.50 Q 88.30,116.83 82.82,117.30 Q 81.50,117.41 72.16,119.12 Q 60.36,121.28 49.09,125.46 Q 47.70,125.98 45.65,127.52 Q 44.01,128.75 42.04,129.50 Q 55.87,77.05 103.92,52.28 Q 124.56,41.64 147.67,39.76 A 0.52,0.52 -81.8 0 1 148.20,40.47 L 129.75,87.40 A 3.29,3.28 89.1 0 1 128.02,89.19 Q 106.60,98.61 93.71,118.50 Z"/>
<path fill="#2a2562" d="M 239.06,71.94 Q 244.39,76.93 246.46,79.83 A 0.60,0.58 50.3 0 1 246.40,80.60 L 216.57,110.55 A 0.94,0.93 47.6 0 1 215.19,110.48 Q 199.54,91.69 175.29,85.31 A 0.64,0.62 -83.1 0 1 174.82,84.69 L 175.00,41.69 A 0.90,0.90 -85.4 0 1 176.04,40.80 Q 212.20,46.80 239.06,71.94 Z"/>
<path fill="#18587c" d="M 153.46,41.50 Q 153.82,42.19 155.19,42.81 Q 160.74,45.32 162.31,47.19 Q 164.79,50.12 168.01,52.17 A 0.95,0.68 41.0 0 0 168.90,52.25 Q 169.45,51.90 169.71,51.00 L 169.71,68.50 Q 169.14,68.11 168.79,67.52 A 1.74,1.22 78.2 0 0 168.11,66.88 Q 165.79,65.85 163.06,63.19 Q 158.66,58.88 151.44,54.98 A 1.46,1.11 -30.8 0 0 150.53,54.88 Q 149.14,55.17 148.46,54.00 L 153.46,41.50 Z"/>
<path fill="#206a8c" d="M 148.46,54.00 Q 149.14,55.17 150.53,54.88 A 1.46,1.11 -30.8 0 1 151.44,54.98 Q 158.66,58.88 163.06,63.19 Q 165.79,65.85 168.11,66.88 A 1.74,1.22 78.2 0 1 168.79,67.52 Q 169.14,68.11 169.71,68.50 L 169.71,98.25 Q 168.45,98.08 168.15,97.17 Q 167.96,96.59 167.70,96.35 Q 161.51,90.53 155.51,84.53 Q 152.62,81.64 149.40,79.72 Q 146.04,77.71 142.63,75.81 A 2.05,1.25 -19.3 0 0 141.69,75.61 Q 140.32,75.65 140.50,74.21 L 148.46,54.00 Z"/>
<path fill="#257e9c" d="M 140.50,74.21 Q 140.32,75.65 141.69,75.61 A 2.05,1.25 -19.3 0 1 142.63,75.81 Q 146.04,77.71 149.40,79.72 Q 152.62,81.64 155.51,84.53 Q 161.51,90.53 167.70,96.35 Q 167.96,96.59 168.15,97.17 Q 168.45,98.08 169.71,98.25 L 169.71,129.50 Q 169.28,129.58 169.30,129.25 Q 169.61,124.45 168.83,119.73 A 0.49,0.40 -9.0 0 0 168.28,119.41 Q 167.67,119.51 167.31,118.94 Q 163.28,112.45 165.87,118.48 Q 166.06,118.93 165.79,118.52 Q 161.36,111.75 156.65,105.19 Q 155.26,103.25 153.60,101.54 Q 151.93,99.82 150.24,98.12 Q 149.09,96.96 145.69,94.55 Q 142.82,92.51 139.65,88.95 A 2.06,2.06 58.1 0 0 137.33,88.41 Q 136.60,88.70 135.00,88.21 L 140.50,74.21 Z"/>
<path fill="#3297ae" d="M 169.71,129.50 Q 169.83,204.09 169.75,220.50 Q 169.74,221.81 170.00,222.29 L 169.75,226.96 Q 158.88,229.19 147.94,227.40 A 0.62,0.58 5.3 0 1 147.43,226.82 L 147.25,115.49 Q 147.25,112.80 146.39,115.35 L 135.71,147.25 L 135.58,144.44 A 1.94,1.67 -67.3 0 0 135.28,143.52 Q 131.00,137.27 126.22,131.38 Q 124.99,129.86 123.13,128.91 Q 121.32,127.99 119.54,127.00 L 135.00,88.21 Q 136.60,88.70 137.33,88.41 A 2.06,2.06 58.1 0 1 139.65,88.95 Q 142.82,92.51 145.69,94.55 Q 149.09,96.96 150.24,98.12 Q 151.93,99.82 153.60,101.54 Q 155.26,103.25 156.65,105.19 Q 161.36,111.75 165.79,118.52 Q 166.06,118.93 165.87,118.48 Q 163.28,112.45 167.31,118.94 Q 167.67,119.51 168.28,119.41 A 0.49,0.40 -9.0 0 1 168.83,119.73 Q 169.61,124.45 169.30,129.25 Q 169.28,129.58 169.71,129.50 Z"/>
<path fill="#324c7f" d="M 93.71,118.50 Q 90.25,124.14 87.71,130.25 Q 84.65,129.63 81.61,129.97 Q 77.59,130.43 77.48,130.43 Q 67.39,131.16 56.19,134.69 Q 51.72,136.09 48.48,137.91 Q 46.00,139.31 44.18,140.02 Q 41.93,140.90 39.75,141.96 Q 40.35,135.63 42.04,129.50 Q 44.01,128.75 45.65,127.52 Q 47.70,125.98 49.09,125.46 Q 60.36,121.28 72.16,119.12 Q 81.50,117.41 82.82,117.30 Q 88.30,116.83 93.71,118.50 Z"/>
<path fill="#40bbca" d="M 119.54,127.00 Q 121.32,127.99 123.13,128.91 Q 124.99,129.86 126.22,131.38 Q 131.00,137.27 135.28,143.52 A 1.94,1.67 -67.3 0 1 135.58,144.44 L 135.71,147.25 L 126.35,175.95 A 0.71,0.69 -80.7 0 1 125.69,176.44 Q 65.47,176.55 5.25,176.38 Q 3.23,176.37 1.23,176.57 Q 0.34,176.67 1.30,176.46 Q 53.25,165.49 107.30,154.33 A 2.86,2.82 -84.7 0 0 109.34,152.61 L 119.54,127.00 Z"/>
<path fill="#396593" d="M 87.71,130.25 Q 83.22,141.56 82.76,153.61 A 0.65,0.64 85.5 0 1 82.25,154.22 L 39.17,162.97 A 0.45,0.43 82.0 0 1 38.65,162.56 Q 37.99,152.20 39.75,141.96 Q 41.93,140.90 44.18,140.02 Q 46.00,139.31 48.48,137.91 Q 51.72,136.09 56.19,134.69 Q 67.39,131.16 77.48,130.43 Q 77.59,130.43 81.61,129.97 Q 84.65,129.63 87.71,130.25 Z"/>
<path fill="#217392" d="M 209.50,153.79 L 207.80,154.07 A 0.45,0.40 -9.6 0 0 207.41,154.55 Q 208.85,161.60 209.25,167.75 Q 209.52,171.91 208.98,176.29 Q 208.59,179.40 206.68,184.06 Q 204.80,188.64 203.43,193.41 A 0.81,0.47 -68.3 0 0 203.54,194.17 Q 203.71,194.30 204.00,194.29 Q 199.59,204.54 194.68,214.56 Q 194.65,214.62 194.06,216.12 Q 193.17,218.38 190.31,219.81 Q 179.21,225.38 169.75,226.96 L 170.00,222.29 L 194.98,154.79 A 1.58,1.57 -79.9 0 1 196.46,153.75 L 209.50,153.79 Z"/>
<path fill="#18587c" d="M 209.50,153.79 L 231.00,153.79 Q 231.74,154.35 231.00,154.51 A 0.50,0.46 -8.4 0 0 230.60,155.00 Q 230.97,159.66 230.66,164.32 Q 230.57,165.66 229.92,168.11 Q 229.42,170.00 229.25,171.96 L 213.32,175.99 A 1.51,1.47 5.3 0 0 212.32,176.80 L 204.00,194.29 Q 203.71,194.30 203.54,194.17 A 0.81,0.47 -68.3 0 1 203.43,193.41 Q 204.80,188.64 206.68,184.06 Q 208.59,179.40 208.98,176.29 Q 209.52,171.91 209.25,167.75 Q 208.85,161.60 207.41,154.55 A 0.45,0.40 -9.6 0 1 207.80,154.07 L 209.50,153.79 Z"/>
<path fill="#0a4570" d="M 231.00,153.79 L 297.17,153.81 Q 300.66,153.81 297.28,154.67 L 229.25,171.96 Q 229.42,170.00 229.92,168.11 Q 230.57,165.66 230.66,164.32 Q 230.97,159.66 230.60,155.00 A 0.50,0.46 -8.4 0 1 231.00,154.51 Q 231.74,154.35 231.00,153.79 Z"/>
<path fill="#458cba" d="M 54.75,181.54 L 61.69,181.82 Q 62.17,181.84 61.89,182.21 Q 59.50,185.31 58.19,186.19 Q 53.74,189.15 49.06,194.31 Q 47.59,195.94 44.79,196.75 Q 42.30,189.66 41.08,182.24 A 0.44,0.43 85.4 0 1 41.50,181.73 L 54.75,181.54 Z"/>
<path fill="#479bc9" d="M 54.75,181.54 L 85.20,181.50 A 1.00,0.94 77.6 0 1 86.08,182.10 L 91.21,193.75 Q 90.57,195.01 88.50,195.75 Q 78.54,199.31 76.01,200.04 Q 72.93,200.93 68.44,204.44 Q 62.59,209.00 60.42,211.67 Q 57.68,215.03 53.79,217.00 Q 48.24,207.35 44.79,196.75 Q 47.59,195.94 49.06,194.31 Q 53.74,189.15 58.19,186.19 Q 59.50,185.31 61.89,182.21 Q 62.17,181.84 61.69,181.82 L 54.75,181.54 Z"/>
<path fill="#4dafde" d="M 91.21,193.75 Q 102.70,214.70 124.00,225.54 Q 124.90,231.28 123.58,236.86 Q 122.49,241.48 122.31,242.34 Q 121.71,245.11 120.78,247.77 Q 119.64,251.01 116.69,255.08 Q 112.55,260.81 108.71,266.75 Q 72.89,251.09 53.79,217.00 Q 57.68,215.03 60.42,211.67 Q 62.59,209.00 68.44,204.44 Q 72.93,200.93 76.01,200.04 Q 78.54,199.31 88.50,195.75 Q 90.57,195.01 91.21,193.75 Z"/>
<path fill="#2b336b" d="M 222.50,211.96 Q 221.41,212.47 221.89,213.29 A 1.49,0.99 43.6 0 1 222.09,214.17 Q 221.71,216.43 223.00,219.00 Q 224.09,221.17 224.51,224.45 Q 224.77,226.45 224.63,230.06 Q 224.35,237.05 224.28,244.06 Q 224.24,247.22 223.31,250.80 Q 222.36,254.49 221.79,258.25 Q 216.96,261.74 211.54,264.25 Q 215.18,243.17 214.13,221.83 Q 214.00,219.31 213.59,217.19 Q 212.96,213.97 212.31,212.69 Q 211.70,211.46 210.00,211.71 L 215.51,205.49 A 0.40,0.38 -47.5 0 1 216.08,205.45 L 222.50,211.96 Z"/>
<path fill="#30487b" d="M 210.00,211.71 Q 211.70,211.46 212.31,212.69 Q 212.96,213.97 213.59,217.19 Q 214.00,219.31 214.13,221.83 Q 215.18,243.17 211.54,264.25 Q 202.01,269.42 191.54,272.25 Q 193.78,268.29 195.21,264.01 Q 196.28,260.82 196.86,255.21 Q 197.36,250.35 198.04,245.51 Q 198.76,240.37 198.82,235.93 Q 198.88,231.12 198.93,226.31 A 1.69,1.13 -71.5 0 0 198.68,225.38 L 196.50,222.29 Q 203.77,217.66 210.00,211.71 Z"/>
<path fill="#2a2562" d="M 222.50,211.96 L 246.38,235.76 A 0.87,0.87 -47.5 0 1 246.43,236.95 Q 235.72,249.45 221.79,258.25 Q 222.36,254.49 223.31,250.80 Q 224.24,247.22 224.28,244.06 Q 224.35,237.05 224.63,230.06 Q 224.77,226.45 224.51,224.45 Q 224.09,221.17 223.00,219.00 Q 221.71,216.43 222.09,214.17 A 1.49,0.99 43.6 0 0 221.89,213.29 Q 221.41,212.47 222.50,211.96 Z"/>
<path fill="#396090" d="M 196.50,222.29 L 198.68,225.38 A 1.69,1.13 -71.5 0 1 198.93,226.31 Q 198.88,231.12 198.82,235.93 Q 198.76,240.37 198.04,245.51 Q 197.36,250.35 196.86,255.21 Q 196.28,260.82 195.21,264.01 Q 193.78,268.29 191.54,272.25 Q 180.76,275.57 169.50,276.46 Q 176.75,261.53 180.17,245.30 Q 180.45,243.94 180.54,240.02 Q 180.59,237.68 181.19,234.69 Q 181.70,232.14 179.46,230.00 Q 188.38,227.04 196.50,222.29 Z"/>
<path fill="#479bc9" d="M 124.00,225.54 Q 140.47,233.31 158.75,233.04 Q 158.20,233.41 157.20,233.18 A 0.58,0.57 -85.5 0 0 156.50,233.78 Q 156.73,237.27 156.10,240.69 Q 155.17,245.70 155.15,245.85 Q 153.89,254.03 150.82,261.68 Q 149.86,264.08 147.02,268.91 Q 144.94,272.45 143.25,276.21 Q 125.22,274.19 108.71,266.75 Q 112.55,260.81 116.69,255.08 Q 119.64,251.01 120.78,247.77 Q 121.71,245.11 122.31,242.34 Q 122.49,241.48 123.58,236.86 Q 124.90,231.28 124.00,225.54 Z"/>
<path fill="#417da9" d="M 179.46,230.00 Q 181.70,232.14 181.19,234.69 Q 180.59,237.68 180.54,240.02 Q 180.45,243.94 180.17,245.30 Q 176.75,261.53 169.50,276.46 Q 156.36,277.72 143.25,276.21 Q 144.94,272.45 147.02,268.91 Q 149.86,264.08 150.82,261.68 Q 153.89,254.03 155.15,245.85 Q 155.17,245.70 156.10,240.69 Q 156.73,237.27 156.50,233.78 A 0.58,0.57 -85.5 0 1 157.20,233.18 Q 158.20,233.41 158.75,233.04 Q 169.31,232.93 179.46,230.00 Z"/>
<path fill="#145375" d="M 147.96,282.20 L 162.51,282.47 A 0.34,0.33 -77.0 0 1 162.80,282.95 Q 155.90,297.98 149.16,313.07 Q 146.96,317.99 147.21,312.72 Q 147.25,311.80 147.25,311.26 Q 147.33,297.60 147.24,282.93 A 0.73,0.71 -89.6 0 1 147.96,282.20 Z"/>
</svg>
