<?xml version="1.0" encoding="UTF-8" standalone="no"?>
<!DOCTYPE svg PUBLIC "-//W3C//DTD SVG 1.1//EN" "http://www.w3.org/Graphics/SVG/1.1/DTD/svg11.dtd">
<svg xmlns="http://www.w3.org/2000/svg" version="1.1" viewBox="0 0 569 438">
<path fill="#95979b" d="M 313.75,4.71 Q 318.50,4.96 323.25,5.16 Q 329.79,5.42 329.78,12.00 Q 329.70,50.62 329.75,89.25 Q 329.75,91.01 330.04,92.75 Q 329.96,93.00 330.04,93.25 Q 329.99,95.41 329.87,97.56 Q 329.87,97.63 329.90,101.45 Q 329.94,106.78 325.69,110.19 Q 325.05,110.69 325.04,111.25 Q 324.98,111.48 324.75,111.54 Q 322.61,112.08 323.47,110.66 Q 323.75,110.19 323.76,109.74 Q 324.46,81.71 323.85,53.67 Q 323.85,53.43 323.97,44.84 Q 324.03,40.41 323.46,36.00 Q 323.68,26.46 323.36,16.92 Q 323.24,13.24 321.87,11.44 Q 319.82,8.76 316.25,8.75 Q 306.37,8.72 296.50,8.79 Q 284.88,8.33 273.25,8.25 Q 270.88,8.23 270.00,9.29 Q 269.42,9.16 269.00,8.71 L 272.21,5.75 Q 274.59,4.48 276.00,4.50 Q 294.88,4.79 313.75,4.71 Z"/>
<path fill="#333335" fill-opacity="0.988" d="M 330.71,90.50 Q 330.67,91.76 330.04,92.75 Q 329.75,91.01 329.75,89.25 Q 329.70,50.62 329.78,12.00 Q 329.79,5.42 323.25,5.16 Q 318.50,4.96 313.75,4.71 Q 318.60,4.19 323.43,4.65 Q 327.06,4.99 328.63,6.51 Q 330.73,8.54 330.75,12.25 Q 330.91,42.75 331.01,73.25 Q 331.04,81.88 330.71,90.50 Z"/>
<path fill="#333335" fill-opacity="0.988" d="M 272.21,5.75 L 269.00,8.71 Q 263.17,10.32 262.71,16.25 Q 262.36,20.87 262.54,25.50 L 262.54,52.50 L 262.79,59.75 L 262.54,81.50 L 262.21,88.75 Q 261.88,89.01 261.96,89.50 Q 261.46,89.29 261.46,88.75 Q 261.79,88.04 261.79,87.25 Q 261.75,52.12 261.67,17.00 Q 261.66,11.87 265.79,9.04 Q 268.79,6.98 272.21,5.75 Z"/>
<path fill="#626365" d="M 296.50,8.79 L 296.50,9.46 Q 283.83,9.78 271.16,9.93 Q 270.75,9.94 270.51,9.79 Q 270.19,9.60 270.00,9.29 Q 270.88,8.23 273.25,8.25 Q 284.88,8.33 296.50,8.79 Z"/>
<path fill="#aeafb3" d="M 269.00,8.71 Q 269.42,9.16 270.00,9.29 Q 270.19,9.60 270.51,9.79 Q 270.75,9.94 271.16,9.93 Q 283.83,9.78 296.50,9.46 Q 304.63,9.53 312.77,9.50 Q 312.85,9.50 315.23,9.36 Q 319.26,9.13 321.40,11.92 Q 322.75,13.70 322.76,17.42 Q 322.77,22.59 322.71,27.75 Q 322.73,26.17 321.50,26.19 Q 320.94,26.20 320.56,26.00 Q 319.05,25.23 317.31,25.47 A 0.78,0.55 -85.2 0 0 316.81,26.07 L 316.54,27.50 Q 316.47,24.75 316.51,22.00 Q 316.60,16.38 312.08,14.55 Q 310.76,14.01 308.34,14.01 Q 306.42,14.01 304.50,13.96 Q 292.29,13.63 280.07,13.72 Q 275.08,13.76 274.45,13.88 Q 271.26,14.46 269.52,17.16 Q 268.49,18.76 268.32,21.57 Q 268.18,23.91 268.21,26.25 Q 266.50,24.86 264.01,25.57 A 0.41,0.40 -17.0 0 1 263.52,25.32 Q 262.91,23.55 262.54,25.50 Q 262.36,20.87 262.71,16.25 Q 263.17,10.32 269.00,8.71 Z"/>
<path fill="#010101" fill-opacity="0.996" d="M 296.50,8.79 Q 306.37,8.72 316.25,8.75 Q 319.82,8.76 321.87,11.44 Q 323.24,13.24 323.36,16.92 Q 323.68,26.46 323.46,36.00 Q 323.08,35.99 322.79,36.25 L 322.71,27.75 Q 322.77,22.59 322.76,17.42 Q 322.75,13.70 321.40,11.92 Q 319.26,9.13 315.23,9.36 Q 312.85,9.50 312.77,9.50 Q 304.63,9.53 296.50,9.46 L 296.50,8.79 Z"/>
<path fill="#626365" d="M 304.50,13.96 L 298.91,14.05 A 0.73,0.44 6.3 0 0 298.32,14.32 Q 298.23,14.49 298.25,14.71 Q 287.22,15.02 276.19,15.06 Q 273.46,15.07 272.11,15.86 Q 270.03,17.08 269.50,19.50 Q 269.01,21.72 269.22,24.86 Q 269.55,29.70 269.65,30.16 Q 270.16,32.36 272.01,33.70 Q 273.36,34.69 275.86,34.69 Q 292.25,34.70 308.64,34.97 Q 310.94,35.01 312.23,34.30 Q 313.90,33.39 315.00,31.71 Q 315.40,31.75 315.71,32.00 Q 314.24,34.99 311.50,35.75 Q 308.68,36.53 304.00,36.43 Q 296.96,36.29 289.92,36.26 Q 289.82,36.26 283.09,36.51 Q 279.67,36.64 276.27,36.23 Q 271.93,35.72 270.02,33.61 Q 267.52,30.83 268.21,26.25 Q 268.18,23.91 268.32,21.57 Q 268.49,18.76 269.52,17.16 Q 271.26,14.46 274.45,13.88 Q 275.08,13.76 280.07,13.72 Q 292.29,13.63 304.50,13.96 Z"/>
<path fill="#131716" fill-opacity="0.976" d="M 304.50,13.96 Q 306.42,14.01 308.34,14.01 Q 310.76,14.01 312.08,14.55 Q 316.60,16.38 316.51,22.00 Q 316.47,24.75 316.54,27.50 Q 316.74,29.88 315.71,32.00 Q 315.40,31.75 315.00,31.71 Q 315.68,29.19 315.75,22.75 Q 315.83,15.19 308.99,14.96 Q 303.63,14.78 298.25,14.71 Q 298.23,14.49 298.32,14.32 A 0.73,0.44 6.3 0 1 298.91,14.05 L 304.50,13.96 Z"/>
<path fill="#ffffff" d="M 298.25,14.71 Q 303.63,14.78 308.99,14.96 Q 315.83,15.19 315.75,22.75 Q 315.68,29.19 315.00,31.71 Q 313.90,33.39 312.23,34.30 Q 310.94,35.01 308.64,34.97 Q 292.25,34.70 275.86,34.69 Q 273.36,34.69 272.01,33.70 Q 270.16,32.36 269.65,30.16 Q 269.55,29.70 269.22,24.86 Q 269.01,21.72 269.50,19.50 Q 270.03,17.08 272.11,15.86 Q 273.46,15.07 276.19,15.06 Q 287.22,15.02 298.25,14.71 ZM 300.6791,22.6649 A 2.20 2.20 0.0 0 0 298.8284,20.1638 L 297.1075,19.9067 A 2.20 2.20 0.0 0 0 294.6065,21.7573 L 293.5009,29.1551 A 2.20 2.20 0.0 0 0 295.3516,31.6562 L 297.0725,31.9133 A 2.20 2.20 0.0 0 0 299.5735,30.0627 L 300.6791,22.6649 ZM 308.1022,22.9152 A 2.38 2.38 0.0 0 0 306.1476,20.1751 L 304.7865,19.9473 A 2.38 2.38 0.0 0 0 302.0464,21.9019 L 300.8778,28.8848 A 2.38 2.38 0.0 0 0 302.8324,31.6249 L 304.1935,31.8527 A 2.38 2.38 0.0 0 0 306.9336,29.8981 L 308.1022,22.9152 ZM 280.05,22.43 Q 280.83,26.14 279.66,29.78 A 1.78,1.31 -51.3 0 0 279.62,30.74 Q 280.08,32.25 280.81,30.70 Q 280.99,30.30 281.02,29.75 Q 281.17,26.32 281.83,22.97 Q 282.73,18.41 280.24,21.55 A 1.10,0.98 60.5 0 0 280.05,22.43 ZM 291.33,21.18 Q 291.61,19.53 290.42,20.53 L 288.82,21.87 A 0.51,0.43 45.5 0 0 288.88,22.57 Q 290.29,23.91 289.75,25.75 Q 288.91,28.62 288.77,30.50 A 1.17,0.86 -72.9 0 0 289.08,31.39 Q 289.62,31.85 289.79,30.72 Q 290.53,26.01 291.33,21.18 ZM 277.29,23.53 A 0.95 0.95 0.0 0 0 276.34,22.58 A 0.95 0.95 0.0 0 0 275.39,23.53 A 0.95 0.95 0.0 0 0 276.34,24.48 A 0.95 0.95 0.0 0 0 277.29,23.53 ZM 284.8718,31.7500 A 1.03,0.64 89.9 0 0 285.5100,30.7189 A 1.03,0.64 89.9 0 0 284.8682,29.6900 A 1.03,0.64 89.9 0 0 284.2300,30.7211 A 1.03,0.64 89.9 0 0 284.8718,31.7500 Z"/>
<path fill="#b11e2a" fill-opacity="0.996" d="M 299.5735,30.0627 A 2.20 2.20 0.0 0 1 297.0725,31.9133 L 295.3516,31.6562 A 2.20 2.20 0.0 0 1 293.5009,29.1551 L 294.6065,21.7573 A 2.20 2.20 0.0 0 1 297.1075,19.9067 L 298.8284,20.1638 A 2.20 2.20 0.0 0 1 300.6791,22.6649 L 299.5735,30.0627 ZM 299.5998,22.8323 A 1.23 1.23 0.0 0 0 298.5774,21.4251 L 297.2144,21.2092 A 1.23 1.23 0.0 0 0 295.8071,22.2316 L 294.7402,28.9677 A 1.23 1.23 0.0 0 0 295.7626,30.3749 L 297.1256,30.5908 A 1.23 1.23 0.0 0 0 298.5329,29.5684 L 299.5998,22.8323 Z"/>
<path fill="#942233" d="M 306.9336,29.8981 A 2.38 2.38 0.0 0 1 304.1935,31.8527 L 302.8324,31.6249 A 2.38 2.38 0.0 0 1 300.8778,28.8848 L 302.0464,21.9019 A 2.38 2.38 0.0 0 1 304.7865,19.9473 L 306.1476,20.1751 A 2.38 2.38 0.0 0 1 308.1022,22.9152 L 306.9336,29.8981 ZM 303.51,22.04 Q 301.84,25.30 302.28,28.75 Q 302.64,31.53 305.12,30.30 A 1.25,1.15 88.6 0 0 305.73,29.60 Q 306.65,26.89 306.74,24.02 Q 306.74,23.94 306.96,22.51 Q 307.23,20.80 304.39,21.37 A 1.28,1.26 -82.0 0 0 303.51,22.04 Z"/>
<path fill="#942233" d="M 280.24,21.55 Q 282.73,18.41 281.83,22.97 Q 281.17,26.32 281.02,29.75 Q 280.99,30.30 280.81,30.70 Q 280.08,32.25 279.62,30.74 A 1.78,1.31 -51.3 0 1 279.66,29.78 Q 280.83,26.14 280.05,22.43 A 1.10,0.98 60.5 0 1 280.24,21.55 Z"/>
<path fill="#942233" d="M 291.33,21.18 Q 290.53,26.01 289.79,30.72 Q 289.62,31.85 289.08,31.39 A 1.17,0.86 -72.9 0 1 288.77,30.50 Q 288.91,28.62 289.75,25.75 Q 290.29,23.91 288.88,22.57 A 0.51,0.43 45.5 0 1 288.82,21.87 L 290.42,20.53 Q 291.61,19.53 291.33,21.18 Z"/>
<rect fill="#ffffff" x="-1.92" y="-4.64" transform="translate(297.17,25.90) rotate(9.0)" width="3.84" height="9.28" rx="1.23"/>
<path fill="#f7fafd" d="M 303.51,22.04 A 1.28,1.26 -82.0 0 1 304.39,21.37 Q 307.23,20.80 306.96,22.51 Q 306.74,23.94 306.74,24.02 Q 306.65,26.89 305.73,29.60 A 1.25,1.15 88.6 0 1 305.12,30.30 Q 302.64,31.53 302.28,28.75 Q 301.84,25.30 303.51,22.04 Z"/>
<circle fill="#867c5c" cx="276.34" cy="23.53" r="0.95"/>
<path fill="#bfbfc3" d="M 268.21,26.25 Q 267.52,30.83 270.02,33.61 Q 271.93,35.72 276.27,36.23 Q 279.67,36.64 283.09,36.51 Q 289.82,36.26 289.92,36.26 Q 296.96,36.29 304.00,36.43 Q 308.68,36.53 311.50,35.75 Q 314.24,34.99 315.71,32.00 Q 316.74,29.88 316.54,27.50 L 316.81,26.07 A 0.78,0.55 -85.2 0 1 317.31,25.47 Q 319.05,25.23 320.56,26.00 Q 320.94,26.20 321.50,26.19 Q 322.73,26.17 322.71,27.75 L 322.79,36.25 L 322.46,48.00 Q 321.08,46.95 319.60,47.30 Q 317.42,47.82 317.30,47.83 Q 315.63,48.00 314.04,48.50 L 314.00,40.48 A 0.94,0.92 1.3 0 0 313.10,39.56 L 304.67,39.23 Q 302.51,39.14 302.44,41.07 L 302.21,47.50 Q 293.98,51.93 284.36,48.79 Q 283.97,48.66 284.10,49.05 Q 284.38,49.87 283.50,50.21 Q 284.29,45.10 283.29,40.06 A 0.70,0.69 87.6 0 0 282.69,39.50 Q 278.52,39.05 273.14,39.65 A 1.23,1.22 -2.9 0 0 272.05,40.85 L 271.96,49.50 Q 268.83,48.75 265.63,48.38 Q 265.09,48.31 264.57,48.02 Q 264.06,47.73 263.53,47.50 A 0.39,0.38 -76.0 0 0 263.00,47.82 L 262.54,52.50 L 262.54,25.50 Q 262.91,23.55 263.52,25.32 A 0.41,0.40 -17.0 0 0 264.01,25.57 Q 266.50,24.86 268.21,26.25 Z"/>
<ellipse fill="#867c5c" cx="0.00" cy="0.00" transform="translate(284.87,30.72) rotate(89.9)" rx="1.03" ry="0.64"/>
<path fill="#626365" d="M 323.46,36.00 Q 324.03,40.41 323.97,44.84 Q 323.85,53.43 323.85,53.67 Q 324.46,81.71 323.76,109.74 Q 323.75,110.19 323.47,110.66 Q 322.61,112.08 324.75,111.54 Q 321.57,114.12 317.50,114.71 Q 317.35,114.41 317.00,114.46 Q 319.57,113.77 321.18,111.95 Q 322.51,110.48 322.59,107.65 Q 322.78,101.83 322.46,96.00 L 322.46,67.50 L 322.46,48.00 L 322.79,36.25 Q 323.08,35.99 323.46,36.00 Z"/>
<path fill="#867c5c" d="M 283.50,50.21 Q 279.72,51.31 275.84,50.86 Q 275.75,50.85 274.15,50.85 Q 272.70,50.84 271.96,49.50 L 272.05,40.85 A 1.23,1.22 -2.9 0 1 273.14,39.65 Q 278.52,39.05 282.69,39.50 A 0.70,0.69 87.6 0 1 283.29,40.06 Q 284.29,45.10 283.50,50.21 ZM 281.96,47.25 L 281.87,41.68 A 0.55,0.55 89.5 0 0 281.32,41.14 L 275.50,41.04 L 274.06,41.01 A 0.57,0.51 -88.4 0 0 273.54,41.56 L 273.25,48.77 A 0.95,0.94 -2.3 0 0 274.32,49.74 Q 277.11,49.39 279.99,49.65 Q 283.02,49.93 281.96,47.25 Z"/>
<path fill="#8d846b" d="M 314.04,48.50 Q 314.33,51.24 312.02,51.11 Q 310.58,51.03 310.47,51.03 Q 306.98,51.13 303.49,50.80 A 1.01,0.92 -10.6 0 1 302.73,50.33 Q 302.02,49.05 302.21,47.50 L 302.44,41.07 Q 302.51,39.14 304.67,39.23 L 313.10,39.56 A 0.94,0.92 1.3 0 1 314.00,40.48 L 314.04,48.50 ZM 309.50,49.46 Q 314.40,50.11 312.80,45.60 Q 312.49,44.74 312.63,43.84 Q 313.08,40.77 310.99,40.86 Q 308.25,40.97 305.50,41.04 Q 305.06,40.91 304.66,41.00 A 0.86,0.69 -88.8 0 0 304.10,41.67 Q 303.46,45.31 303.99,48.95 A 0.59,0.57 86.0 0 0 304.56,49.46 L 309.50,49.46 Z"/>
<path fill="#fff0cf" d="M 275.50,41.04 Q 275.78,42.04 275.82,43.05 Q 275.89,44.56 276.04,45.05 Q 277.26,49.07 281.96,47.25 Q 283.02,49.93 279.99,49.65 Q 277.11,49.39 274.32,49.74 A 0.95,0.94 -2.3 0 1 273.25,48.77 L 273.54,41.56 A 0.57,0.51 -88.4 0 1 274.06,41.01 L 275.50,41.04 Z"/>
<path fill="#fada82" d="M 275.50,41.04 L 281.32,41.14 A 0.55,0.55 89.5 0 1 281.87,41.68 L 281.96,47.25 Q 277.26,49.07 276.04,45.05 Q 275.89,44.56 275.82,43.05 Q 275.78,42.04 275.50,41.04 Z"/>
<path fill="#fff0cf" d="M 305.50,41.04 L 307.47,45.94 A 1.30,0.80 82.2 0 0 308.03,46.62 Q 309.89,47.45 309.50,49.46 L 304.56,49.46 A 0.59,0.57 86.0 0 1 303.99,48.95 Q 303.46,45.31 304.10,41.67 A 0.86,0.69 -88.8 0 1 304.66,41.00 Q 305.06,40.91 305.50,41.04 Z"/>
<path fill="#fada82" d="M 305.50,41.04 Q 308.25,40.97 310.99,40.86 Q 313.08,40.77 312.63,43.84 Q 312.49,44.74 312.80,45.60 Q 314.40,50.11 309.50,49.46 Q 309.89,47.45 308.03,46.62 A 1.30,0.80 82.2 0 1 307.47,45.94 L 305.50,41.04 Z"/>
<path fill="#cccdd0" d="M 271.96,49.50 Q 272.70,50.84 274.15,50.85 Q 275.75,50.85 275.84,50.86 Q 279.72,51.31 283.50,50.21 Q 284.38,49.87 284.10,49.05 Q 283.97,48.66 284.36,48.79 Q 293.98,51.93 302.21,47.50 Q 302.02,49.05 302.73,50.33 A 1.01,0.92 -10.6 0 0 303.49,50.80 Q 306.98,51.13 310.47,51.03 Q 310.58,51.03 312.02,51.11 Q 314.33,51.24 314.04,48.50 Q 315.63,48.00 317.30,47.83 Q 317.42,47.82 319.60,47.30 Q 321.08,46.95 322.46,48.00 L 322.46,67.50 Q 315.87,68.41 310.75,67.75 Q 306.94,67.26 304.21,68.00 Q 293.05,60.26 281.29,67.25 Q 276.49,65.12 270.94,66.94 Q 268.07,67.87 264.97,66.69 A 1.07,1.06 -88.9 0 1 264.34,66.03 Q 263.35,62.98 263.14,59.76 Q 263.12,59.37 262.79,59.75 L 262.54,52.50 L 263.00,47.82 A 0.39,0.38 -76.0 0 1 263.53,47.50 Q 264.06,47.73 264.57,48.02 Q 265.09,48.31 265.63,48.38 Q 268.83,48.75 271.96,49.50 Z"/>
<path fill="#dcdde0" d="M 281.29,67.25 Q 273.41,73.40 273.21,83.50 L 272.25,83.84 A 0.70,0.66 77.0 0 0 271.83,84.56 L 272.16,87.51 A 1.06,0.77 71.7 0 1 271.89,88.35 Q 270.51,89.52 268.44,88.56 Q 265.34,87.13 263.92,86.27 A 1.25,1.12 12.2 0 1 263.37,85.51 L 262.54,81.50 L 262.79,59.75 Q 263.12,59.37 263.14,59.76 Q 263.35,62.98 264.34,66.03 A 1.07,1.06 -88.9 0 0 264.97,66.69 Q 268.07,67.87 270.94,66.94 Q 276.49,65.12 281.29,67.25 Z"/>
<path fill="#626365" d="M 304.21,68.00 Q 317.80,81.14 306.00,95.96 Q 293.19,107.39 280.06,97.19 Q 273.99,92.47 273.21,83.50 Q 273.41,73.40 281.29,67.25 Q 293.05,60.26 304.21,68.00 ZM 309.94,82.69 A 17.55 17.55 0.0 0 0 292.39,65.14 A 17.55 17.55 0.0 0 0 274.84,82.69 A 17.55 17.55 0.0 0 0 292.39,100.24 A 17.55 17.55 0.0 0 0 309.94,82.69 Z"/>
<path fill="#ababaf" d="M 309.94,82.69 A 17.55 17.55 0.0 0 1 292.39,100.24 A 17.55 17.55 0.0 0 1 274.84,82.69 A 17.55 17.55 0.0 0 1 292.39,65.14 A 17.55 17.55 0.0 0 1 309.94,82.69 ZM 281.75,86.04 Q 278.07,87.79 280.21,91.50 Q 280.31,92.07 280.75,92.30 Q 281.09,92.48 281.63,92.31 Q 283.40,91.75 285.00,90.79 Q 284.80,91.88 285.34,91.68 Q 285.71,91.54 285.82,91.52 Q 286.62,91.37 287.33,91.00 A 0.63,0.62 -36.3 0 1 288.08,91.11 Q 291.37,94.52 295.73,91.96 Q 299.16,89.95 300.94,87.19 Q 302.78,84.32 301.75,80.71 Q 303.24,79.32 304.00,79.00 Q 305.84,78.23 305.46,76.25 Q 304.59,71.45 300.29,73.75 Q 299.56,72.01 298.56,71.69 Q 287.24,68.05 281.96,77.38 Q 280.81,79.40 280.59,80.13 Q 280.14,81.63 280.69,83.32 Q 280.98,84.19 280.99,85.11 Q 281.01,86.21 281.75,86.04 Z"/>
<path fill="#e1e2e4" d="M 322.46,67.50 L 322.46,96.00 Q 321.20,95.37 320.06,95.81 Q 312.87,98.58 306.00,95.96 Q 317.80,81.14 304.21,68.00 Q 306.94,67.26 310.75,67.75 Q 315.87,68.41 322.46,67.50 Z"/>
<path fill="#bfbfc3" d="M 300.29,73.75 L 296.75,75.71 Q 296.37,74.91 295.53,74.92 Q 294.58,74.94 294.47,74.92 Q 286.39,73.88 284.25,81.75 Q 284.03,82.57 282.66,83.49 A 0.60,0.50 -32.7 0 0 282.43,84.22 Q 282.69,84.67 283.25,84.79 L 281.75,86.04 Q 281.01,86.21 280.99,85.11 Q 280.98,84.19 280.69,83.32 Q 280.14,81.63 280.59,80.13 Q 280.81,79.40 281.96,77.38 Q 287.24,68.05 298.56,71.69 Q 299.56,72.01 300.29,73.75 Z"/>
<ellipse fill="#010101" fill-opacity="0.996" cx="0.00" cy="0.00" transform="translate(160.01,71.68) rotate(4.5)" rx="1.76" ry="0.42"/>
<path fill="#010101" fill-opacity="0.996" d="M 151.09,78.04 Q 151.90,79.92 154.52,79.16 A 0.86,0.48 -19.9 0 1 155.39,79.30 Q 155.58,79.63 154.75,80.00 Q 151.71,81.34 150.44,79.56 Q 148.78,77.26 149.19,74.68 Q 149.49,72.76 151.20,71.94 Q 153.33,70.92 155.10,72.38 Q 156.49,73.53 156.16,75.16 Q 155.69,77.42 152.38,76.55 Q 150.20,75.97 151.09,78.04 ZM 153.31,73.19 A 1.53,1.21 28.9 0 0 151.06,73.56 Q 150.53,75.46 152.58,75.28 Q 155.71,75.01 153.31,73.19 Z"/>
<path fill="#010101" fill-opacity="0.996" d="M 203.56,75.25 Q 206.33,75.29 209.09,75.26 Q 210.30,75.25 210.83,74.93 Q 211.78,74.36 211.60,73.08 Q 211.37,71.45 212.73,72.24 L 217.55,75.03 A 1.00,0.92 -44.0 0 1 217.45,76.68 L 212.61,79.54 Q 211.67,80.09 211.75,79.02 Q 211.86,77.49 210.84,76.61 A 1.44,1.08 -19.8 0 0 209.93,76.33 Q 188.55,77.24 167.16,76.46 Q 166.42,76.43 166.07,76.11 Q 165.69,75.76 165.71,75.29 A 0.59,0.48 1.1 0 1 166.31,74.82 Q 184.94,74.97 203.56,75.25 Z"/>
<path fill="#757679" d="M 305.46,76.25 L 304.29,76.25 Q 304.25,74.75 303.18,74.55 Q 302.56,74.43 301.53,74.97 Q 290.86,80.52 281.17,87.67 Q 279.55,88.86 280.75,90.71 Q 280.22,90.95 280.21,91.50 Q 278.07,87.79 281.75,86.04 L 283.25,84.79 L 296.75,75.71 L 300.29,73.75 Q 304.59,71.45 305.46,76.25 Z"/>
<path fill="#dcdde0" d="M 304.29,76.25 Q 295.73,82.81 283.81,89.56 Q 281.96,90.61 280.75,90.71 Q 279.55,88.86 281.17,87.67 Q 290.86,80.52 301.53,74.97 Q 302.56,74.43 303.18,74.55 Q 304.25,74.75 304.29,76.25 Z"/>
<path fill="#dcdde0" d="M 296.75,75.71 L 283.25,84.79 Q 282.69,84.67 282.43,84.22 A 0.60,0.50 -32.7 0 1 282.66,83.49 Q 284.03,82.57 284.25,81.75 Q 286.39,73.88 294.47,74.92 Q 294.58,74.94 295.53,74.92 Q 296.37,74.91 296.75,75.71 Z"/>
<path fill="#010101" fill-opacity="0.996" d="M 420.00,78.96 Q 420.96,78.59 422.01,78.66 Q 424.25,78.80 422.50,78.04 L 431.21,77.99 A 1.83,1.76 3.8 0 0 433.00,76.49 Q 433.35,74.11 434.89,75.11 Q 435.73,75.66 435.78,75.69 Q 437.49,76.63 439.26,77.82 A 0.86,0.80 46.2 0 1 439.28,79.23 L 434.16,82.12 A 0.44,0.39 68.2 0 1 433.57,81.83 Q 433.17,80.36 432.26,79.20 A 1.07,0.88 -16.0 0 0 431.44,78.84 L 420.00,78.96 Z"/>
<path fill="#010101" fill-opacity="0.996" d="M 373.70,82.60 Q 374.57,82.51 375.00,82.75 Q 377.31,84.04 374.50,84.25 Q 370.78,84.52 369.75,81.00 Q 369.00,78.44 370.75,76.64 Q 372.24,75.12 374.11,75.24 Q 376.43,75.41 377.05,78.51 A 1.43,1.41 81.5 0 1 375.81,80.21 L 372.55,80.53 A 1.12,0.86 9.1 0 0 371.76,80.96 Q 371.06,82.09 372.44,82.54 Q 372.86,82.68 373.70,82.60 ZM 371.83,78.09 A 0.38,0.37 -56.1 0 0 371.93,78.62 Q 373.50,79.68 374.88,78.58 A 0.66,0.63 58.6 0 0 375.05,77.79 Q 373.83,75.24 371.83,78.09 Z"/>
<ellipse fill="#010101" fill-opacity="0.996" cx="0.00" cy="0.00" transform="translate(380.89,75.59) rotate(-3.5)" rx="1.38" ry="0.39"/>
<path fill="#333335" fill-opacity="0.988" d="M 304.29,76.25 L 305.46,76.25 Q 305.84,78.23 304.00,79.00 Q 303.24,79.32 301.75,80.71 Q 293.72,86.32 285.00,90.79 Q 283.40,91.75 281.63,92.31 Q 281.09,92.48 280.75,92.30 Q 280.31,92.07 280.21,91.50 Q 280.22,90.95 280.75,90.71 Q 281.96,90.61 283.81,89.56 Q 295.73,82.81 304.29,76.25 Z"/>
<path fill="#010101" fill-opacity="0.996" d="M 398.00,78.04 Q 397.18,78.41 396.26,78.22 Q 394.91,77.94 395.50,78.96 Q 392.04,79.03 388.58,79.00 Q 388.22,79.00 387.97,78.84 Q 387.08,78.25 388.56,78.06 Q 390.29,77.84 398.00,78.04 Z"/>
<path fill="#333335" fill-opacity="0.988" d="M 398.00,78.04 L 422.50,78.04 Q 424.25,78.80 422.01,78.66 Q 420.96,78.59 420.00,78.96 L 395.50,78.96 Q 394.91,77.94 396.26,78.22 Q 397.18,78.41 398.00,78.04 Z"/>
<path fill="#d2d3d5" d="M 301.75,80.71 Q 302.78,84.32 300.94,87.19 Q 299.16,89.95 295.73,91.96 Q 291.37,94.52 288.08,91.11 A 0.63,0.62 -36.3 0 0 287.33,91.00 Q 286.62,91.37 285.82,91.52 Q 285.71,91.54 285.34,91.68 Q 284.80,91.88 285.00,90.79 Q 293.72,86.32 301.75,80.71 Z"/>
<path fill="#f6f6f6" d="M 262.54,81.50 L 263.37,85.51 A 1.25,1.12 12.2 0 0 263.92,86.27 Q 265.34,87.13 268.44,88.56 Q 270.51,89.52 271.89,88.35 A 1.06,0.77 71.7 0 0 272.16,87.51 L 271.83,84.56 A 0.70,0.66 77.0 0 1 272.25,83.84 L 273.21,83.50 Q 273.99,92.47 280.06,97.19 Q 293.19,107.39 306.00,95.96 Q 312.87,98.58 320.06,95.81 Q 321.20,95.37 322.46,96.00 Q 322.78,101.83 322.59,107.65 Q 322.51,110.48 321.18,111.95 Q 319.57,113.77 317.00,114.46 Q 302.22,114.02 287.44,114.39 Q 271.46,114.78 267.56,114.19 Q 264.81,113.77 263.04,110.75 L 262.21,88.75 L 262.54,81.50 ZM 286.85,108.01 A 3.11 3.11 0.0 0 0 283.74,104.90 A 3.11 3.11 0.0 0 0 280.63,108.01 A 3.11 3.11 0.0 0 0 283.74,111.12 A 3.11 3.11 0.0 0 0 286.85,108.01 ZM 301.74,108.01 A 3.13 3.13 0.0 0 0 298.61,104.88 A 3.13 3.13 0.0 0 0 295.48,108.01 A 3.13 3.13 0.0 0 0 298.61,111.14 A 3.13 3.13 0.0 0 0 301.74,108.01 ZM 316.55,107.99 A 3.14 3.14 0.0 0 0 313.41,104.85 A 3.14 3.14 0.0 0 0 310.27,107.99 A 3.14 3.14 0.0 0 0 313.41,111.13 A 3.14 3.14 0.0 0 0 316.55,107.99 ZM 272.08,108.02 A 3.05 3.05 0.0 0 0 269.03,104.97 A 3.05 3.05 0.0 0 0 265.98,108.02 A 3.05 3.05 0.0 0 0 269.03,111.07 A 3.05 3.05 0.0 0 0 272.08,108.02 Z"/>
<path fill="#010101" fill-opacity="0.996" d="M 261.46,88.75 Q 261.46,89.29 261.96,89.50 L 261.71,93.50 Q 261.00,92.25 259.00,92.25 Q 254.00,92.25 248.46,92.25 A 1.85,1.85 14.7 0 0 246.85,93.19 Q 243.88,98.50 239.05,98.18 Q 236.84,98.04 234.61,96.05 Q 232.72,94.35 231.01,92.43 A 1.12,1.10 -20.6 0 0 230.18,92.06 Q 180.71,92.38 131.25,92.32 Q 125.08,92.32 122.62,96.64 Q 121.27,99.00 121.18,105.12 Q 120.68,136.81 121.26,168.50 Q 121.36,173.51 120.90,179.88 A 2.12,2.12 -75.7 0 0 122.13,181.95 Q 125.43,183.43 125.98,186.86 Q 125.99,186.90 126.01,192.65 Q 126.06,206.56 126.24,220.47 Q 126.25,221.07 126.51,221.45 Q 126.82,221.88 127.25,222.21 Q 126.45,222.23 126.54,223.00 Q 125.97,224.23 126.75,225.04 Q 126.38,225.47 126.54,226.00 L 126.27,254.69 A 1.03,1.02 -1.6 0 0 127.37,255.72 L 154.00,253.96 Q 157.81,253.66 155.50,254.71 L 153.25,255.21 Q 150.57,255.29 147.90,255.51 Q 146.99,255.58 142.59,255.67 Q 139.79,255.73 135.50,256.25 Q 131.30,256.76 113.21,256.50 Q 113.45,255.83 113.00,255.46 L 112.71,225.75 Q 113.20,224.36 112.71,223.00 Q 112.54,222.60 112.00,222.71 Q 112.44,222.60 112.74,222.32 Q 113.00,222.07 113.02,221.59 Q 113.14,218.88 113.10,216.17 Q 113.09,216.04 113.32,213.48 Q 113.56,210.84 110.95,210.30 Q 109.27,209.96 109.20,209.94 Q 100.45,207.42 91.79,204.59 A 1.03,0.82 4.8 0 1 91.13,203.97 Q 90.82,202.84 92.58,203.37 Q 101.94,206.18 111.61,209.45 A 1.08,1.07 -78.9 0 0 113.03,208.49 Q 113.39,201.38 113.18,193.75 Q 113.06,189.32 113.81,185.89 A 4.31,4.29 -13.4 0 1 115.33,183.43 Q 117.57,181.63 117.53,179.50 Q 117.45,174.92 117.58,170.33 Q 117.75,163.86 117.75,161.16 Q 117.75,134.98 117.75,108.79 Q 117.75,99.26 119.36,95.96 Q 122.70,89.13 132.50,89.00 Q 181.63,88.33 229.46,89.23 Q 231.13,89.26 232.04,87.85 Q 235.99,81.74 241.52,83.13 Q 243.51,83.63 244.96,85.16 Q 246.37,86.65 247.21,88.62 A 0.75,0.75 -12.4 0 0 247.93,89.08 Q 254.05,88.91 259.58,89.05 Q 259.68,89.05 260.26,89.16 Q 260.89,89.28 261.46,88.75 ZM 238.00,90.96 Q 240.12,91.03 242.25,91.06 Q 243.27,91.07 243.42,90.30 A 0.49,0.48 -84.7 0 0 242.94,89.71 L 240.00,89.79 Q 237.79,88.79 235.90,89.97 A 0.38,0.38 -42.3 0 0 235.87,90.59 Q 236.76,91.27 238.00,90.96 ZM 115.88,211.94 Q 115.20,211.63 114.48,211.68 A 0.56,0.51 88.4 0 0 114.00,212.24 L 114.25,254.48 A 1.28,1.27 89.8 0 0 115.52,255.75 L 124.39,255.75 A 1.04,1.04 89.7 0 0 125.43,254.70 Q 125.13,224.91 125.24,194.66 Q 125.24,194.58 125.36,190.85 Q 125.47,187.31 124.69,186.06 Q 121.19,180.52 116.83,183.53 Q 114.87,184.88 114.27,187.27 Q 113.76,189.31 113.75,192.00 Q 113.70,200.91 113.93,209.50 A 1.43,1.42 -85.2 0 0 115.07,210.86 Q 117.26,211.31 116.71,211.90 A 0.80,0.52 30.3 0 1 115.88,211.94 Z"/>
<path fill="#b11e2a" fill-opacity="0.996" d="M 442.04,183.50 Q 440.53,184.17 438.96,183.75 Q 438.61,145.25 438.94,106.75 Q 438.96,104.35 437.94,101.56 Q 436.80,98.47 434.29,97.24 Q 432.79,96.50 429.08,96.51 Q 396.31,96.63 363.54,96.28 Q 362.50,96.26 358.99,96.47 Q 356.88,96.59 354.42,96.46 A 1.34,1.33 13.9 0 0 353.13,97.23 Q 351.80,100.06 349.48,101.58 Q 347.17,103.09 344.28,102.49 Q 339.79,101.56 337.42,97.26 A 1.03,0.73 72.3 0 0 336.70,96.72 L 331.29,96.50 L 330.70,96.22 A 0.96,0.62 -86.9 0 1 330.29,95.50 L 330.04,93.25 Q 329.96,93.00 330.04,92.75 Q 330.67,91.76 330.71,90.50 Q 330.18,92.62 331.75,93.00 Q 333.52,93.43 337.08,92.67 A 1.02,0.93 -82.5 0 0 337.76,92.10 Q 338.86,89.68 340.92,88.22 Q 342.91,86.82 345.48,86.75 Q 350.07,86.64 352.31,90.69 Q 353.72,93.23 356.16,93.07 Q 357.28,93.00 357.34,93.00 Q 398.58,93.19 426.25,93.00 Q 430.20,92.97 432.73,93.37 Q 437.41,94.10 439.94,98.06 Q 442.32,101.81 442.33,108.50 Q 442.40,146.00 442.04,183.50 ZM 343.04,94.00 Q 341.77,93.43 340.52,93.87 A 0.46,0.45 66.2 0 0 340.28,94.52 Q 341.33,96.43 343.04,94.75 Q 344.02,96.17 344.04,98.00 Q 343.83,100.87 345.50,99.00 Q 346.27,98.13 345.25,97.21 Q 345.38,96.00 346.25,95.21 Q 350.65,94.07 346.29,94.25 Q 344.77,88.05 343.04,94.00 Z"/>
<path fill="#535758" fill-opacity="0.996" d="M 262.21,88.75 L 263.04,110.75 L 262.96,111.75 Q 261.61,109.05 261.75,105.25 Q 261.83,103.19 261.71,93.50 L 261.96,89.50 Q 261.88,89.01 262.21,88.75 Z"/>
<path fill="#6c6d6d" d="M 240.00,89.79 Q 238.72,90.11 238.00,90.96 Q 236.76,91.27 235.87,90.59 A 0.38,0.38 -42.3 0 1 235.90,89.97 Q 237.79,88.79 240.00,89.79 Z"/>
<path fill="#bfbfc3" d="M 238.00,90.96 Q 238.72,90.11 240.00,89.79 L 242.94,89.71 A 0.49,0.48 -84.7 0 1 243.42,90.30 Q 243.27,91.07 242.25,91.06 Q 240.12,91.03 238.00,90.96 Z"/>
<path fill="#333335" fill-opacity="0.988" d="M 330.04,93.25 L 330.29,95.50 A 0.96,0.62 -86.9 0 0 330.70,96.22 L 331.29,96.50 Q 330.68,96.91 330.75,98.25 Q 330.99,102.96 330.06,105.81 Q 328.94,109.27 325.04,111.25 Q 325.05,110.69 325.69,110.19 Q 329.94,106.78 329.90,101.45 Q 329.87,97.63 329.87,97.56 Q 329.99,95.41 330.04,93.25 Z"/>
<path fill="#fada82" d="M 343.04,94.00 Q 342.95,94.37 343.04,94.75 Q 341.33,96.43 340.28,94.52 A 0.46,0.45 66.2 0 1 340.52,93.87 Q 341.77,93.43 343.04,94.00 Z"/>
<path fill="#6f696d" fill-opacity="0.502" d="M 346.25,95.21 L 346.29,94.25 Q 350.65,94.07 346.25,95.21 Z"/>
<path fill="#cdaa7d" d="M 345.25,97.21 Q 346.27,98.13 345.50,99.00 Q 343.83,100.87 344.04,98.00 Q 344.83,97.91 345.25,97.21 Z"/>
<path fill="#535758" fill-opacity="0.996" d="M 286.85,108.01 A 3.11 3.11 0.0 0 1 283.74,111.12 A 3.11 3.11 0.0 0 1 280.63,108.01 A 3.11 3.11 0.0 0 1 283.74,104.90 A 3.11 3.11 0.0 0 1 286.85,108.01 ZM 285.66,108.02 A 1.85 1.85 0.0 0 0 283.81,106.17 A 1.85 1.85 0.0 0 0 281.96,108.02 A 1.85 1.85 0.0 0 0 283.81,109.87 A 1.85 1.85 0.0 0 0 285.66,108.02 Z"/>
<path fill="#626365" d="M 301.74,108.01 A 3.13 3.13 0.0 0 1 298.61,111.14 A 3.13 3.13 0.0 0 1 295.48,108.01 A 3.13 3.13 0.0 0 1 298.61,104.88 A 3.13 3.13 0.0 0 1 301.74,108.01 ZM 300.32,108.04 A 1.67 1.67 0.0 0 0 298.65,106.37 A 1.67 1.67 0.0 0 0 296.98,108.04 A 1.67 1.67 0.0 0 0 298.65,109.71 A 1.67 1.67 0.0 0 0 300.32,108.04 Z"/>
<path fill="#626365" d="M 316.55,107.99 A 3.14 3.14 0.0 0 1 313.41,111.13 A 3.14 3.14 0.0 0 1 310.27,107.99 A 3.14 3.14 0.0 0 1 313.41,104.85 A 3.14 3.14 0.0 0 1 316.55,107.99 ZM 315.25,108.07 A 1.79 1.79 0.0 0 0 313.46,106.28 A 1.79 1.79 0.0 0 0 311.67,108.07 A 1.79 1.79 0.0 0 0 313.46,109.86 A 1.79 1.79 0.0 0 0 315.25,108.07 Z"/>
<path fill="#535758" fill-opacity="0.996" d="M 272.08,108.02 A 3.05 3.05 0.0 0 1 269.03,111.07 A 3.05 3.05 0.0 0 1 265.98,108.02 A 3.05 3.05 0.0 0 1 269.03,104.97 A 3.05 3.05 0.0 0 1 272.08,108.02 ZM 269.2495,109.9573 A 1.91,1.69 83.4 0 0 270.7088,107.8658 A 1.91,1.69 83.4 0 0 268.8105,106.1627 A 1.91,1.69 83.4 0 0 267.3512,108.2542 A 1.91,1.69 83.4 0 0 269.2495,109.9573 Z"/>
<ellipse fill="#e9ecf1" cx="0.00" cy="0.00" transform="translate(269.03,108.06) rotate(83.4)" rx="1.91" ry="1.69"/>
<circle fill="#e9ecf1" cx="283.81" cy="108.02" r="1.85"/>
<circle fill="#e9ecf1" cx="298.65" cy="108.04" r="1.67"/>
<circle fill="#e9ecf1" cx="313.46" cy="108.07" r="1.79"/>
<path fill="#757679" d="M 263.04,110.75 Q 264.81,113.77 267.56,114.19 Q 271.46,114.78 287.44,114.39 Q 302.22,114.02 317.00,114.46 Q 317.35,114.41 317.50,114.71 Q 309.39,115.27 301.25,115.24 Q 285.63,115.18 270.00,115.00 Q 265.49,114.95 262.96,111.75 L 263.04,110.75 Z"/>
<path fill="#769d69" d="M 116.71,211.90 Q 117.26,211.31 115.07,210.86 A 1.43,1.42 -85.2 0 1 113.93,209.50 Q 113.70,200.91 113.75,192.00 Q 113.76,189.31 114.27,187.27 Q 114.87,184.88 116.83,183.53 Q 121.19,180.52 124.69,186.06 Q 125.47,187.31 125.36,190.85 Q 125.24,194.58 125.24,194.66 Q 125.13,224.91 125.43,254.70 A 1.04,1.04 89.7 0 1 124.39,255.75 L 115.52,255.75 A 1.28,1.27 89.8 0 1 114.25,254.48 L 114.00,212.24 A 0.56,0.51 88.4 0 1 114.48,211.68 Q 115.20,211.63 115.88,211.94 A 0.80,0.52 30.3 0 0 116.71,211.90 Z"/>
<path fill="#010101" fill-opacity="0.996" d="M 442.04,183.50 Q 442.39,184.39 443.18,184.83 Q 447.42,187.21 447.14,191.77 Q 446.89,195.75 446.90,195.89 Q 447.16,203.24 446.93,210.69 Q 446.87,212.74 448.87,212.26 Q 459.87,209.63 470.62,207.33 Q 471.05,207.24 471.39,207.24 Q 472.94,207.26 471.85,208.10 Q 471.59,208.31 471.21,208.40 Q 459.53,211.38 447.74,213.90 A 0.71,0.63 88.7 0 0 447.23,214.50 L 446.46,221.00 L 445.98,215.32 A 0.69,0.54 88.0 0 0 445.45,214.69 L 442.05,214.60 Q 441.65,214.59 441.97,214.38 Q 442.97,213.72 444.29,213.75 Q 446.20,213.80 446.23,211.89 Q 446.40,201.60 446.08,192.22 Q 445.98,189.34 445.17,187.94 Q 443.90,185.74 441.35,185.18 Q 439.73,184.83 438.29,185.64 Q 436.79,186.49 435.90,187.90 Q 435.01,189.33 434.98,192.30 Q 434.67,222.82 435.01,254.60 A 1.17,1.16 89.5 0 0 436.17,255.75 L 444.91,255.75 A 1.13,1.12 89.5 0 0 446.03,254.60 Q 445.65,237.47 446.50,221.71 Q 446.99,222.00 447.50,222.26 Q 447.97,222.50 448.56,222.47 Q 450.92,222.38 453.25,222.71 Q 451.25,222.78 449.28,222.52 Q 446.88,222.21 447.04,224.21 A 0.64,0.63 88.0 0 0 447.66,224.79 Q 473.62,225.57 498.46,230.50 Q 506.18,232.53 513.78,235.97 Q 516.17,237.05 517.67,239.19 Q 520.46,243.20 517.81,246.40 Q 516.27,248.25 512.40,249.21 Q 492.13,254.25 471.25,255.54 Q 452.40,256.96 433.50,256.46 L 433.50,255.79 Q 433.99,255.31 434.00,253.75 Q 434.05,240.28 433.94,226.64 A 0.89,0.88 89.4 0 0 433.05,225.76 L 427.00,225.79 Q 425.50,225.72 424.00,225.75 Q 423.26,225.76 423.75,225.29 L 432.81,224.80 A 1.20,0.80 9.6 0 0 433.64,224.43 Q 434.58,223.14 432.75,222.46 L 433.54,222.20 A 0.78,0.69 82.0 0 0 434.01,221.50 Q 434.42,207.13 434.26,192.75 Q 434.26,192.69 434.13,190.75 Q 433.88,187.18 436.69,185.44 Q 438.60,184.25 438.96,183.75 Q 440.53,184.17 442.04,183.50 ZM 447.19,226.17 L 447.01,254.25 A 1.51,1.48 -0.2 0 0 448.54,255.74 Q 469.99,255.42 492.00,252.23 Q 502.03,250.78 511.82,248.21 Q 515.51,247.25 516.92,245.49 Q 519.55,242.23 515.22,238.55 Q 513.03,236.70 510.94,235.81 Q 500.77,231.49 489.29,229.53 Q 468.55,225.97 447.62,225.75 A 0.43,0.42 0.0 0 0 447.19,226.17 Z"/>
<path fill="#bd823e" d="M 446.46,221.00 L 446.50,221.71 Q 445.65,237.47 446.03,254.60 A 1.13,1.12 89.5 0 1 444.91,255.75 L 436.17,255.75 A 1.17,1.16 89.5 0 1 435.01,254.60 Q 434.67,222.82 434.98,192.30 Q 435.01,189.33 435.90,187.90 Q 436.79,186.49 438.29,185.64 Q 439.73,184.83 441.35,185.18 Q 443.90,185.74 445.17,187.94 Q 445.98,189.34 446.08,192.22 Q 446.40,201.60 446.23,211.89 Q 446.20,213.80 444.29,213.75 Q 442.97,213.72 441.97,214.38 Q 441.65,214.59 442.05,214.60 L 445.45,214.69 A 0.69,0.54 88.0 0 1 445.98,215.32 L 446.46,221.00 Z"/>
<path fill="#010101" fill-opacity="0.996" d="M 72.33,197.04 Q 70.76,196.69 69.06,196.53 Q 68.70,196.49 68.49,196.34 Q 67.83,195.87 68.98,195.61 Q 71.75,194.97 74.22,195.38 A 1.26,1.23 -68.5 0 1 75.03,197.30 L 70.33,204.51 A 0.49,0.48 -58.7 0 0 70.49,205.20 Q 71.95,206.03 73.75,206.10 Q 76.28,206.20 74.67,207.25 Q 74.28,207.50 73.76,207.51 Q 70.91,207.54 68.35,207.00 A 0.98,0.98 -67.3 0 1 67.74,205.51 L 72.70,197.92 A 0.58,0.57 22.6 0 0 72.33,197.04 Z"/>
<path fill="#010101" fill-opacity="0.996" d="M 79.65,201.30 Q 79.10,203.13 79.19,205.06 Q 79.24,205.93 79.02,206.40 Q 78.49,207.53 77.58,206.63 A 1.29,0.86 -74.0 0 1 77.30,205.76 L 77.49,199.54 A 0.79,0.75 -2.2 0 1 78.20,198.81 L 81.75,198.50 Q 84.13,198.29 84.75,201.25 Q 85.33,204.00 84.75,206.76 Q 84.36,208.58 83.61,206.88 Q 83.05,205.64 83.21,204.26 Q 83.45,202.22 83.33,201.72 Q 82.74,199.30 80.25,200.57 A 1.23,1.18 85.7 0 0 79.65,201.30 Z"/>
<path fill="#010101" fill-opacity="0.996" d="M 478.85,203.95 Q 480.96,202.42 483.95,203.18 A 1.30,0.90 -0.3 0 1 484.73,203.71 Q 485.03,204.25 484.36,204.44 Q 484.10,204.51 483.64,204.44 Q 480.83,204.05 479.18,205.72 Q 477.73,207.19 477.96,209.64 Q 478.40,214.27 483.94,213.86 A 0.75,0.62 -11.3 0 1 484.66,214.25 Q 485.03,215.22 483.75,215.25 Q 474.99,215.46 476.53,208.00 Q 477.11,205.21 478.85,203.95 Z"/>
<path fill="#010101" fill-opacity="0.996" d="M 487.38,206.53 Q 487.84,205.80 488.52,206.78 A 2.99,2.95 31.3 0 1 489.04,208.85 Q 488.38,214.27 491.06,213.55 A 2.27,2.00 84.3 0 0 492.55,211.48 L 492.66,207.49 A 1.13,1.04 -18.3 0 1 493.12,206.66 Q 493.84,206.14 494.29,207.00 Q 494.50,207.40 494.46,208.03 Q 494.29,210.27 494.22,213.51 A 1.21,1.20 -89.3 0 1 493.02,214.69 Q 492.47,214.68 491.62,214.95 Q 490.75,215.22 490.22,215.20 Q 486.95,215.06 487.05,211.24 Q 487.10,209.32 487.17,207.38 Q 487.19,206.83 487.38,206.53 Z"/>
<path fill="#fff0cf" d="M 372.25,207.21 Q 371.76,207.16 371.50,207.19 Q 370.08,207.41 371.74,207.53 Q 385.50,208.61 391.86,220.72 Q 392.38,221.71 392.29,220.50 L 393.79,224.00 Q 393.65,226.18 395.04,227.75 Q 394.39,228.65 395.04,229.50 L 395.43,251.92 A 0.41,0.31 -17.4 0 1 395.19,252.25 Q 395.05,252.32 395.00,252.46 L 371.93,248.65 A 0.60,0.58 -85.5 0 1 371.44,248.06 Q 371.47,243.77 370.19,240.31 Q 369.32,237.97 366.79,236.75 Q 366.41,235.46 365.29,236.00 Q 364.08,235.08 362.46,235.00 Q 359.67,233.85 357.04,235.50 Q 356.60,234.98 356.00,235.08 Q 355.00,235.24 354.98,235.24 Q 339.34,234.95 323.73,235.68 Q 312.19,236.22 303.74,236.10 Q 275.70,235.69 247.64,235.53 Q 247.51,235.53 234.38,235.96 Q 227.72,236.18 221.07,235.41 Q 212.43,234.40 203.80,235.39 A 1.00,0.60 4.5 0 0 203.17,235.70 L 202.96,236.00 Q 202.52,236.94 201.75,235.78 A 2.66,2.62 -9.0 0 0 200.23,234.69 Q 197.36,233.90 197.79,234.95 Q 197.98,235.42 198.79,235.97 Q 200.02,236.82 201.24,237.69 Q 202.68,238.72 203.39,239.70 Q 206.76,244.27 201.71,248.25 Q 189.51,251.62 176.99,253.46 Q 166.63,254.98 156.25,256.46 L 154.25,256.46 Q 156.58,254.82 153.25,255.21 L 155.50,254.71 Q 172.25,253.33 188.64,249.67 Q 188.75,249.65 192.40,249.12 Q 197.31,248.41 198.07,243.80 Q 198.46,241.40 196.87,239.19 Q 195.40,237.15 193.39,235.55 A 0.52,0.42 33.9 0 0 192.66,235.61 L 192.21,236.50 Q 188.52,238.74 188.49,246.17 A 1.21,1.21 -76.1 0 0 189.13,247.24 Q 189.62,247.51 189.57,246.00 Q 189.42,242.08 191.11,238.59 Q 191.69,237.37 193.00,237.21 Q 193.88,238.12 194.77,238.98 Q 198.37,242.44 196.21,245.35 Q 194.97,247.02 191.52,247.83 Q 177.43,251.14 163.00,252.46 L 163.04,252.00 Q 163.58,249.71 163.50,246.25 Q 163.32,238.17 165.71,229.50 L 165.96,228.25 Q 169.22,220.72 175.72,215.73 Q 176.42,215.19 176.25,214.29 Q 182.83,209.34 191.00,207.99 Q 197.45,206.93 204.00,206.93 Q 288.13,206.93 372.25,207.21 Z"/>
<path fill="#cdaa7d" d="M 372.25,207.21 Q 386.49,207.64 392.29,220.50 Q 392.38,221.71 391.86,220.72 Q 385.50,208.61 371.74,207.53 Q 370.08,207.41 371.50,207.19 Q 371.76,207.16 372.25,207.21 Z"/>
<path fill="#535758" fill-opacity="0.996" d="M 176.25,214.29 Q 176.42,215.19 175.72,215.73 Q 169.22,220.72 165.96,228.25 L 165.50,228.21 Q 166.47,226.94 165.00,226.50 Q 162.35,225.70 155.36,224.82 Q 151.28,224.30 145.60,224.08 Q 136.06,223.70 126.54,223.00 Q 126.45,222.23 127.25,222.21 Q 144.72,222.22 164.42,225.10 Q 166.24,225.37 167.25,223.82 Q 170.58,218.67 176.25,214.29 Z"/>
<path fill="#333335" fill-opacity="0.988" d="M 112.00,222.71 Q 112.54,222.60 112.71,223.00 L 96.50,223.71 L 91.75,223.46 Q 101.85,222.41 112.00,222.71 Z"/>
<path fill="#333335" fill-opacity="0.988" d="M 430.25,222.54 Q 423.04,223.62 415.75,223.50 Q 413.73,223.47 408.75,224.21 Q 408.01,223.58 407.00,223.71 Q 418.58,222.26 430.25,222.54 Z"/>
<path fill="#d2d3d5" d="M 430.25,222.54 L 432.75,222.46 Q 434.58,223.14 433.64,224.43 A 1.20,0.80 9.6 0 1 432.81,224.80 L 423.75,225.29 Q 413.05,225.22 402.49,226.95 Q 401.18,227.17 399.00,227.28 Q 397.24,227.37 395.50,227.71 Q 395.08,225.89 397.00,225.75 Q 403.76,225.25 408.75,224.21 Q 413.73,223.47 415.75,223.50 Q 423.04,223.62 430.25,222.54 Z"/>
<path fill="#bfbfc3" d="M 453.25,222.71 L 453.50,222.79 Q 458.96,223.75 464.50,223.46 L 478.75,224.54 Q 477.80,224.86 478.75,225.00 Q 481.30,225.38 482.25,225.21 L 491.00,226.54 Q 491.95,227.76 493.75,227.21 Q 494.95,227.09 496.04,227.50 L 500.75,229.21 Q 498.81,228.76 498.46,230.50 Q 473.62,225.57 447.66,224.79 A 0.64,0.63 88.0 0 1 447.04,224.21 Q 446.88,222.21 449.28,222.52 Q 451.25,222.78 453.25,222.71 Z"/>
<path fill="#131716" fill-opacity="0.976" d="M 453.50,222.79 L 464.50,223.46 Q 458.96,223.75 453.50,222.79 Z"/>
<path fill="#bfbfc3" d="M 112.71,223.00 Q 113.20,224.36 112.71,225.75 L 112.25,225.71 Q 112.40,224.66 111.56,224.69 Q 95.85,225.22 76.04,227.50 Q 76.52,226.20 74.75,226.21 Q 76.65,225.42 78.75,225.71 Q 83.14,225.79 87.38,224.78 Q 87.50,224.75 87.62,224.74 Q 89.23,224.66 87.73,224.46 Q 87.58,224.44 87.72,224.43 L 96.50,223.71 L 112.71,223.00 Z"/>
<path fill="#cccdd0" d="M 126.54,223.00 Q 136.06,223.70 145.60,224.08 Q 151.28,224.30 155.36,224.82 Q 162.35,225.70 165.00,226.50 Q 166.47,226.94 165.50,228.21 Q 146.27,224.96 126.75,225.04 Q 125.97,224.23 126.54,223.00 Z"/>
<path fill="#757679" d="M 91.75,223.46 L 96.50,223.71 L 87.72,224.43 Q 87.58,224.44 87.73,224.46 Q 89.23,224.66 87.62,224.74 Q 87.50,224.75 87.38,224.78 Q 83.14,225.79 78.75,225.71 Q 75.19,225.65 78.25,224.79 L 91.75,223.46 Z"/>
<path fill="#626365" d="M 407.00,223.71 Q 408.01,223.58 408.75,224.21 Q 403.76,225.25 397.00,225.75 Q 395.08,225.89 395.50,227.71 L 395.04,227.75 Q 393.65,226.18 393.79,224.00 Q 394.64,225.01 396.01,224.80 Q 401.47,223.95 407.00,223.71 Z"/>
<path fill="#3e4041" d="M 112.25,225.71 Q 94.47,226.43 76.79,228.50 Q 76.93,227.57 76.00,227.71 L 76.04,227.50 Q 95.85,225.22 111.56,224.69 Q 112.40,224.66 112.25,225.71 Z"/>
<path fill="#535758" fill-opacity="0.996" d="M 478.75,224.54 Q 480.57,224.52 482.25,225.21 Q 481.30,225.38 478.75,225.00 Q 477.80,224.86 478.75,224.54 Z"/>
<path fill="#535758" fill-opacity="0.996" d="M 78.25,224.79 Q 75.19,225.65 78.75,225.71 Q 76.65,225.42 74.75,226.21 Q 63.27,228.00 52.04,231.00 L 52.46,230.00 Q 65.13,226.33 78.25,224.79 Z"/>
<path fill="#3e4041" d="M 126.75,225.04 Q 146.27,224.96 165.50,228.21 L 165.96,228.25 L 165.71,229.50 L 165.00,229.54 Q 163.12,228.87 158.00,228.25 Q 139.39,226.00 126.54,226.00 Q 126.38,225.47 126.75,225.04 Z"/>
<path fill="#333335" fill-opacity="0.988" d="M 423.75,225.29 Q 423.26,225.76 424.00,225.75 Q 425.50,225.72 427.00,225.79 Q 412.32,226.57 397.75,228.50 Q 396.98,228.60 395.71,229.25 Q 395.33,229.24 395.04,229.50 Q 394.39,228.65 395.04,227.75 L 395.50,227.71 Q 397.24,227.37 399.00,227.28 Q 401.18,227.17 402.49,226.95 Q 413.05,225.22 423.75,225.29 Z"/>
<path fill="#ffffff" d="M 112.25,225.71 L 112.71,225.75 L 113.00,255.46 L 86.50,254.54 Q 65.87,252.92 45.85,247.80 Q 43.26,247.13 42.19,245.75 Q 40.51,243.58 41.68,241.06 Q 42.33,239.64 44.09,238.14 Q 45.84,236.65 47.31,236.06 Q 61.55,230.38 76.79,228.50 Q 94.47,226.43 112.25,225.71 Z"/>
<path fill="#ffffff" d="M 165.00,229.54 Q 161.73,240.55 163.04,252.00 L 163.00,252.46 L 154.00,253.96 L 127.37,255.72 A 1.03,1.02 -1.6 0 1 126.27,254.69 L 126.54,226.00 Q 139.39,226.00 158.00,228.25 Q 163.12,228.87 165.00,229.54 Z"/>
<path fill="#ffffff" d="M 427.00,225.79 L 433.05,225.76 A 0.89,0.88 89.4 0 1 433.94,226.64 Q 434.05,240.28 434.00,253.75 Q 433.99,255.31 433.50,255.79 Q 431.26,255.44 425.00,255.25 Q 413.26,254.89 396.84,252.72 A 0.70,0.39 -3.2 0 1 396.36,252.49 L 396.21,252.25 Q 396.95,240.72 395.71,229.25 Q 396.98,228.60 397.75,228.50 Q 412.32,226.57 427.00,225.79 Z"/>
<path fill="#ffffff" d="M 447.19,226.17 A 0.43,0.42 -0.0 0 1 447.62,225.75 Q 468.55,225.97 489.29,229.53 Q 500.77,231.49 510.94,235.81 Q 513.03,236.70 515.22,238.55 Q 519.55,242.23 516.92,245.49 Q 515.51,247.25 511.82,248.21 Q 502.03,250.78 492.00,252.23 Q 469.99,255.42 448.54,255.74 A 1.51,1.48 -0.2 0 1 447.01,254.25 L 447.19,226.17 ZM 487.4938,243.7904 A 5.38,2.93 19.1 0 0 483.3687,239.2613 A 5.38,2.93 19.1 0 0 477.3262,240.2696 A 5.38,2.93 19.1 0 0 481.4513,244.7987 A 5.38,2.93 19.1 0 0 487.4938,243.7904 Z"/>
<path fill="#f7fafd" d="M 74.75,226.21 Q 76.52,226.20 76.04,227.50 L 76.00,227.71 Q 69.60,228.59 57.44,231.44 Q 51.07,232.93 46.19,235.54 Q 42.83,237.35 41.23,239.53 Q 38.41,243.39 41.66,246.68 Q 43.49,248.52 47.56,249.45 Q 66.32,253.75 85.50,255.54 Q 85.76,255.87 86.25,255.79 Q 86.55,257.06 85.25,256.75 Q 84.91,256.67 83.00,256.79 Q 62.23,255.09 42.11,249.82 Q 37.68,248.67 36.08,246.93 Q 33.12,243.72 36.40,238.99 Q 37.35,237.63 38.80,236.82 Q 45.16,233.30 52.04,231.00 Q 63.27,228.00 74.75,226.21 Z"/>
<path fill="#6c6d6d" d="M 491.00,226.54 Q 492.52,226.30 493.75,227.21 Q 491.95,227.76 491.00,226.54 Z"/>
<path fill="#010101" fill-opacity="0.996" d="M 496.04,227.50 Q 503.73,228.90 513.50,232.25 Q 518.79,234.06 522.20,237.07 Q 528.61,242.73 522.53,248.85 A 2.68,2.65 65.8 0 0 521.76,250.91 Q 522.74,265.12 521.96,279.50 L 521.79,279.50 Q 521.23,275.30 521.37,271.06 Q 521.69,261.28 521.20,250.35 A 0.43,0.41 81.1 0 0 520.68,249.96 Q 484.45,258.95 447.62,259.45 A 0.98,0.93 88.2 0 0 446.70,260.48 L 447.04,268.25 Q 446.92,275.62 447.00,277.00 Q 447.07,278.22 446.21,277.75 Q 446.89,269.50 446.16,260.06 A 0.92,0.91 -3.3 0 0 445.21,259.22 L 437.25,259.46 Q 435.82,258.86 437.75,258.54 Q 455.29,259.03 472.75,257.29 Q 495.95,255.28 518.54,249.68 Q 521.71,248.90 523.48,246.22 Q 525.57,243.08 523.41,240.08 Q 521.57,237.53 519.44,236.31 Q 511.10,231.57 500.75,229.21 L 496.04,227.50 Z"/>
<path fill="#010101" fill-opacity="0.996" d="M 76.00,227.71 Q 76.93,227.57 76.79,228.50 Q 61.55,230.38 47.31,236.06 Q 45.84,236.65 44.09,238.14 Q 42.33,239.64 41.68,241.06 Q 40.51,243.58 42.19,245.75 Q 43.26,247.13 45.85,247.80 Q 65.87,252.92 86.50,254.54 Q 90.51,255.57 85.50,255.54 Q 66.32,253.75 47.56,249.45 Q 43.49,248.52 41.66,246.68 Q 38.41,243.39 41.23,239.53 Q 42.83,237.35 46.19,235.54 Q 51.07,232.93 57.44,231.44 Q 69.60,228.59 76.00,227.71 Z"/>
<path fill="#d3b98c" d="M 395.71,229.25 Q 396.95,240.72 396.21,252.25 Q 395.62,252.50 395.00,252.46 Q 395.05,252.32 395.19,252.25 A 0.41,0.31 -17.4 0 0 395.43,251.92 L 395.04,229.50 Q 395.33,229.24 395.71,229.25 Z"/>
<path fill="#f7fafd" d="M 500.75,229.21 Q 511.10,231.57 519.44,236.31 Q 521.57,237.53 523.41,240.08 Q 525.57,243.08 523.48,246.22 Q 521.71,248.90 518.54,249.68 Q 495.95,255.28 472.75,257.29 Q 470.50,257.03 468.29,256.55 Q 466.99,256.27 468.75,256.23 Q 470.13,256.19 471.25,255.54 Q 492.13,254.25 512.40,249.21 Q 516.27,248.25 517.81,246.40 Q 520.46,243.20 517.67,239.19 Q 516.17,237.05 513.78,235.97 Q 506.18,232.53 498.46,230.50 Q 498.81,228.76 500.75,229.21 Z"/>
<path fill="#cdaa7d" d="M 165.00,229.54 L 165.71,229.50 Q 163.32,238.17 163.50,246.25 Q 163.58,249.71 163.04,252.00 Q 161.73,240.55 165.00,229.54 Z"/>
<path fill="#010101" fill-opacity="0.996" d="M 52.46,230.00 L 52.04,231.00 Q 45.16,233.30 38.80,236.82 Q 37.35,237.63 36.40,238.99 Q 33.12,243.72 36.08,246.93 Q 37.68,248.67 42.11,249.82 Q 62.23,255.09 83.00,256.79 L 88.50,257.29 Q 87.98,258.49 86.50,258.04 Q 60.72,256.12 38.00,249.75 Q 36.98,249.46 37.46,250.75 Q 37.08,250.19 36.78,249.59 Q 36.47,248.98 36.06,248.50 Q 30.05,241.40 37.56,236.06 Q 43.40,231.92 52.46,230.00 Z"/>
<path fill="#131716" fill-opacity="0.976" d="M 202.96,236.00 Q 202.86,236.92 203.47,237.53 Q 207.31,241.38 205.21,245.83 Q 205.19,245.86 203.40,248.35 Q 202.03,250.25 202.15,252.77 Q 202.24,254.61 202.24,254.74 Q 202.00,271.38 202.14,288.01 Q 202.24,301.23 202.23,308.00 Q 202.13,353.50 202.01,399.00 Q 202.01,402.42 201.78,405.83 Q 201.51,409.90 200.65,412.55 Q 197.43,422.53 187.25,426.71 Q 196.79,421.80 200.03,412.27 Q 201.31,408.49 201.59,402.09 Q 201.78,397.60 201.75,391.75 Q 201.61,368.15 201.40,344.56 Q 201.32,334.85 201.39,324.56 Q 201.62,290.03 201.50,255.50 Q 201.49,251.57 201.21,250.00 Q 201.75,249.21 201.71,248.25 Q 206.76,244.27 203.39,239.70 Q 202.68,238.72 201.24,237.69 Q 200.02,236.82 198.79,235.97 Q 197.98,235.42 197.79,234.95 Q 197.36,233.90 200.23,234.69 A 2.66,2.62 -9.0 0 1 201.75,235.78 Q 202.52,236.94 202.96,236.00 Z"/>
<path fill="#535758" fill-opacity="0.996" d="M 362.46,235.00 Q 358.83,236.16 356.42,238.86 Q 354.36,241.17 354.41,243.75 Q 354.47,247.23 358.25,248.50 Q 360.07,249.11 369.75,251.04 Q 383.75,253.81 395.25,255.25 Q 397.05,255.48 398.45,255.81 Q 400.48,256.29 401.62,256.39 Q 419.66,257.90 437.75,258.54 Q 435.82,258.86 437.25,259.46 Q 436.04,259.19 435.32,259.87 A 1.36,0.89 78.1 0 0 434.98,260.75 Q 434.66,268.75 434.77,276.75 Q 434.78,277.53 435.50,277.96 Q 434.20,278.34 434.20,277.43 Q 434.19,276.68 434.18,276.58 Q 433.91,274.92 434.04,273.25 L 434.32,260.19 A 0.54,0.52 2.3 0 0 433.81,259.66 L 396.25,257.04 Q 395.87,256.95 395.50,257.04 L 372.00,253.29 Q 371.48,252.87 370.79,253.00 Q 364.66,251.13 358.30,250.37 A 0.44,0.44 -86.6 0 0 357.81,250.81 L 357.54,282.00 Q 357.29,313.99 357.75,338.50 Q 357.95,349.32 357.44,359.03 Q 357.00,367.20 357.00,371.98 Q 357.00,378.47 357.00,384.96 Q 356.59,386.19 356.71,387.50 Q 356.32,363.25 356.60,339.00 Q 356.73,328.31 356.62,318.99 Q 356.26,286.25 356.44,253.51 Q 356.44,253.41 356.52,252.37 Q 356.69,250.15 354.75,247.75 Q 351.23,243.40 354.65,238.88 Q 355.90,237.23 357.04,235.50 Q 359.67,233.85 362.46,235.00 Z"/>
<path fill="#ffffff" d="M 362.46,235.00 Q 364.08,235.08 365.29,236.00 Q 363.05,237.55 361.68,239.75 Q 360.21,242.13 360.97,244.58 Q 362.19,248.51 366.97,249.23 Q 368.22,249.41 369.50,249.54 L 370.54,250.00 Q 370.62,250.96 369.75,251.04 Q 360.07,249.11 358.25,248.50 Q 354.47,247.23 354.41,243.75 Q 354.36,241.17 356.42,238.86 Q 358.83,236.16 362.46,235.00 Z"/>
<path fill="#3e4041" d="M 155.50,254.71 Q 157.81,253.66 154.00,253.96 L 163.00,252.46 Q 177.43,251.14 191.52,247.83 Q 194.97,247.02 196.21,245.35 Q 198.37,242.44 194.77,238.98 Q 193.88,238.12 193.00,237.21 Q 192.51,236.94 192.21,236.50 L 192.66,235.61 A 0.52,0.42 33.9 0 1 193.39,235.55 Q 195.40,237.15 196.87,239.19 Q 198.46,241.40 198.07,243.80 Q 197.31,248.41 192.40,249.12 Q 188.75,249.65 188.64,249.67 Q 172.25,253.33 155.50,254.71 Z"/>
<path fill="#131716" fill-opacity="0.976" d="M 366.79,236.75 L 366.71,237.00 Q 364.34,238.03 362.93,240.00 Q 361.39,242.14 362.20,244.37 Q 362.88,246.25 364.74,247.23 Q 365.48,247.62 367.34,247.93 Q 368.69,248.15 370.00,248.54 Q 370.28,249.41 369.50,249.54 Q 368.22,249.41 366.97,249.23 Q 362.19,248.51 360.97,244.58 Q 360.21,242.13 361.68,239.75 Q 363.05,237.55 365.29,236.00 Q 366.41,235.46 366.79,236.75 Z"/>
<path fill="#d3b98c" d="M 192.21,236.50 Q 192.51,236.94 193.00,237.21 Q 191.69,237.37 191.11,238.59 Q 189.42,242.08 189.57,246.00 Q 189.62,247.51 189.13,247.24 A 1.21,1.21 -76.1 0 1 188.49,246.17 Q 188.52,238.74 192.21,236.50 Z"/>
<path fill="#6c6d6d" d="M 366.79,236.75 Q 369.32,237.97 370.19,240.31 Q 371.47,243.77 371.44,248.06 A 0.60,0.58 -85.5 0 0 371.93,248.65 L 395.00,252.46 Q 395.62,252.50 396.21,252.25 L 396.36,252.49 A 0.70,0.39 -3.2 0 0 396.84,252.72 Q 413.26,254.89 425.00,255.25 Q 431.26,255.44 433.50,255.79 L 433.50,256.46 Q 429.68,256.86 420.50,256.25 Q 391.92,254.35 370.54,250.00 L 369.50,249.54 Q 370.28,249.41 370.00,248.54 Q 371.23,248.36 370.96,247.45 Q 370.77,246.84 370.79,246.50 Q 371.15,240.68 366.71,237.00 L 366.79,236.75 Z"/>
<path fill="#ffffff" d="M 366.71,237.00 Q 371.15,240.68 370.79,246.50 Q 370.77,246.84 370.96,247.45 Q 371.23,248.36 370.00,248.54 Q 368.69,248.15 367.34,247.93 Q 365.48,247.62 364.74,247.23 Q 362.88,246.25 362.20,244.37 Q 361.39,242.14 362.93,240.00 Q 364.34,238.03 366.71,237.00 Z"/>
<path fill="#535758" fill-opacity="0.996" d="M 201.71,248.25 Q 201.75,249.21 201.21,250.00 L 188.96,252.75 Q 177.33,254.46 165.75,256.50 Q 163.43,256.91 157.25,257.21 Q 157.32,256.20 156.25,256.46 Q 166.63,254.98 176.99,253.46 Q 189.51,251.62 201.71,248.25 Z"/>
<path fill="#f6f7f9" d="M 86.50,258.04 Q 99.70,259.55 112.84,259.75 A 0.41,0.41 -90.0 0 1 113.25,260.16 L 113.21,269.50 Q 112.49,269.96 111.88,269.58 A 1.64,0.68 42.4 0 0 111.00,269.26 Q 76.03,270.00 42.00,278.00 Q 40.38,278.38 42.06,278.94 Q 74.52,289.66 108.75,290.21 Q 110.10,290.93 109.03,291.73 A 3.35,3.32 -60.7 0 1 106.75,292.38 Q 92.24,291.12 79.28,289.53 Q 61.21,287.32 43.54,281.43 A 1.38,1.33 -4.3 0 1 42.79,280.81 Q 41.99,279.41 40.93,280.22 Q 40.51,280.54 40.07,280.65 Q 39.06,280.89 38.34,281.62 A 1.29,1.08 71.5 0 0 38.00,282.49 L 38.00,286.51 Q 38.00,288.20 38.95,286.80 Q 39.71,285.68 41.50,286.25 Q 43.63,286.92 45.02,290.24 Q 46.67,294.16 46.79,298.36 Q 46.90,302.54 46.91,302.63 Q 49.00,330.31 51.23,357.98 Q 53.64,387.85 55.59,419.12 A 0.68,0.68 9.8 0 1 54.65,419.78 Q 46.40,416.27 41.89,409.24 A 1.09,1.07 75.0 0 0 41.04,408.74 Q 38.32,408.60 39.25,407.00 A 5.31,3.36 -42.4 0 0 40.00,404.25 L 38.54,385.24 Q 38.49,384.58 38.29,385.21 L 38.04,386.00 Q 37.54,348.62 37.89,311.24 Q 37.97,302.51 37.76,291.25 Q 37.44,274.38 37.70,257.50 Q 37.74,254.99 37.46,252.50 L 37.46,250.75 Q 36.98,249.46 38.00,249.75 Q 60.72,256.12 86.50,258.04 Z"/>
<path fill="#f6f6f6" d="M 521.79,279.50 L 521.29,281.50 Q 520.94,284.55 519.44,282.06 Q 518.86,281.11 515.50,282.00 Q 503.26,285.25 490.81,287.56 Q 486.38,288.39 483.63,288.81 Q 477.26,289.79 476.41,289.94 Q 463.95,292.16 451.25,291.80 Q 448.20,291.72 445.25,292.46 L 435.50,292.54 L 434.25,292.54 Q 417.28,291.87 400.04,289.18 A 2.33,2.32 25.9 0 0 397.98,289.89 Q 396.96,290.99 396.46,289.75 Q 396.42,288.91 395.75,288.71 Q 385.21,287.29 374.98,284.39 A 1.22,0.99 -48.3 0 0 374.08,284.54 Q 372.88,285.29 371.54,285.00 Q 371.00,280.90 370.46,285.00 Q 370.30,283.54 369.68,284.50 A 0.48,0.44 -55.3 0 1 369.02,284.65 Q 368.09,283.95 367.62,282.91 A 1.28,0.89 80.6 0 0 366.98,282.25 L 361.24,280.25 A 0.84,0.79 -64.8 0 0 360.27,280.63 Q 359.37,282.19 357.54,282.00 L 357.81,250.81 A 0.44,0.44 -86.6 0 1 358.30,250.37 Q 364.66,251.13 370.79,253.00 Q 370.07,256.71 370.32,260.50 Q 370.85,268.50 370.27,276.19 A 0.97,0.90 89.1 0 1 369.48,277.07 L 363.69,277.81 Q 362.13,278.01 363.63,278.40 Q 368.18,279.61 372.48,281.09 Q 378.53,283.19 381.29,283.86 Q 387.53,285.40 393.88,286.40 Q 400.80,287.48 406.57,288.43 Q 417.32,290.22 428.25,290.48 Q 428.37,290.48 430.22,290.27 Q 431.02,290.18 432.25,290.25 Q 475.12,292.63 515.95,279.43 Q 518.34,278.66 515.91,278.03 Q 485.47,270.13 453.16,269.76 Q 453.07,269.76 451.36,269.86 Q 448.85,270.01 447.04,268.25 L 446.70,260.48 A 0.98,0.93 88.2 0 1 447.62,259.45 Q 484.45,258.95 520.68,249.96 A 0.43,0.41 81.1 0 1 521.20,250.35 Q 521.69,261.28 521.37,271.06 Q 521.23,275.30 521.79,279.50 Z"/>
<path fill="#e9ecf1" d="M 201.21,250.00 Q 201.49,251.57 201.50,255.50 Q 201.62,290.03 201.39,324.56 Q 201.32,334.85 201.40,344.56 Q 201.61,368.15 201.75,391.75 Q 201.78,397.60 201.59,402.09 Q 201.31,408.49 200.03,412.27 Q 196.79,421.80 187.25,426.71 Q 180.40,429.34 173.00,429.54 Q 132.40,429.28 91.80,429.25 Q 91.73,429.25 79.19,429.53 Q 67.81,429.78 56.50,428.21 Q 44.47,424.38 40.01,413.52 Q 38.51,409.86 38.31,403.73 Q 38.03,394.87 38.04,386.00 L 38.29,385.21 Q 38.49,384.58 38.54,385.24 L 40.00,404.25 A 5.31,3.36 -42.4 0 1 39.25,407.00 Q 38.32,408.60 41.04,408.74 A 1.09,1.07 75.0 0 1 41.89,409.24 Q 46.40,416.27 54.65,419.78 A 0.68,0.68 9.8 0 0 55.59,419.12 Q 53.64,387.85 51.23,357.98 Q 49.00,330.31 46.91,302.63 Q 46.90,302.54 46.79,298.36 Q 46.67,294.16 45.02,290.24 Q 43.63,286.92 41.50,286.25 Q 39.71,285.68 38.95,286.80 Q 38.00,288.20 38.00,286.51 L 38.00,282.49 A 1.29,1.08 71.5 0 1 38.34,281.62 Q 39.06,280.89 40.07,280.65 Q 40.51,280.54 40.93,280.22 Q 41.99,279.41 42.79,280.81 A 1.38,1.33 -4.3 0 0 43.54,281.43 Q 61.21,287.32 79.28,289.53 Q 92.24,291.12 106.75,292.38 A 3.35,3.32 -60.7 0 0 109.03,291.73 Q 110.10,290.93 108.75,290.21 Q 110.88,289.69 113.00,290.21 Q 113.53,291.04 113.29,292.00 L 113.24,358.42 Q 113.24,361.43 116.05,362.68 Q 121.85,365.26 124.96,361.09 Q 126.19,359.44 126.19,356.45 Q 126.27,323.22 126.29,290.00 Q 128.55,290.38 132.75,290.25 Q 147.36,289.79 162.23,286.83 A 0.44,0.43 84.8 0 1 162.75,287.27 Q 162.14,309.38 162.75,331.40 A 0.99,0.99 -81.5 0 0 163.42,332.31 Q 170.89,334.80 178.75,334.57 Q 184.17,334.42 188.73,332.04 A 1.30,1.25 -13.9 0 0 189.44,330.91 L 189.21,282.50 Q 189.83,268.97 189.33,255.44 Q 189.32,255.06 189.04,254.52 Q 188.63,253.72 188.96,252.75 L 201.21,250.00 ZM 179.25,355.30 Q 179.49,357.78 177.38,359.26 Q 176.94,359.56 176.77,359.87 Q 176.17,360.98 177.58,360.69 A 1.01,0.88 -82.7 0 0 178.24,360.10 Q 178.62,359.16 179.14,358.28 Q 179.87,357.07 180.02,356.48 Q 180.72,353.79 177.56,354.23 Q 176.95,354.31 177.48,354.60 Q 178.03,354.90 178.70,354.87 A 0.54,0.47 -3.5 0 1 179.25,355.30 ZM 162.46,356.50 L 156.84,365.44 Q 156.02,366.76 157.48,366.75 L 164.44,366.70 A 0.51,0.42 -4.5 0 0 164.96,366.20 Q 164.83,365.56 163.75,365.50 Q 161.23,365.35 158.82,365.74 Q 158.22,365.84 158.55,365.33 L 164.41,356.38 Q 165.48,354.75 163.51,354.75 L 157.99,354.75 A 1.30,0.97 16.4 0 0 157.13,355.07 Q 156.31,355.93 158.25,355.94 Q 160.22,355.95 162.18,356.04 A 0.32,0.30 16.1 0 1 162.46,356.50 ZM 185.13,357.30 A 0.31,0.31 -1.6 0 1 184.91,357.09 L 184.56,355.94 A 0.31,0.31 43.5 0 0 183.97,355.95 L 183.67,357.12 A 0.31,0.31 -1.4 0 1 183.46,357.34 L 182.31,357.69 A 0.31,0.31 43.3 0 0 182.33,358.28 L 183.49,358.58 A 0.31,0.31 -1.6 0 1 183.71,358.79 L 184.06,359.94 A 0.31,0.31 -47.1 0 0 184.66,359.93 L 184.95,358.76 A 0.31,0.31 -1.4 0 1 185.16,358.54 L 186.31,358.19 A 0.31,0.31 43.3 0 0 186.30,357.60 L 185.13,357.30 ZM 171.97,359.71 Q 173.52,362.08 173.08,365.05 Q 173.00,365.57 173.08,365.96 Q 173.43,367.75 174.07,366.41 Q 174.25,366.04 174.26,365.56 Q 174.28,363.65 174.23,361.74 Q 174.19,359.92 173.56,359.03 Q 172.46,357.48 170.44,358.19 Q 168.73,358.78 167.54,358.48 A 0.41,0.37 8.8 0 0 167.04,358.81 Q 166.92,362.31 167.05,365.81 Q 167.07,366.26 167.26,366.51 Q 167.60,366.94 168.04,366.73 A 0.99,0.67 84.0 0 0 168.46,365.94 Q 168.60,363.25 168.50,362.50 Q 168.03,359.04 171.19,359.26 A 1.02,1.01 74.7 0 1 171.97,359.71 ZM 150.91,367.78 Q 152.91,368.97 153.64,366.23 A 0.67,0.66 -68.1 0 0 153.33,365.48 Q 152.01,364.75 150.68,365.48 A 1.78,0.73 -70.9 0 0 150.04,366.21 Q 149.33,367.48 147.31,368.31 Q 133.08,374.21 121.01,366.18 Q 120.72,365.98 120.46,365.85 Q 118.28,364.77 120.08,366.69 Q 120.31,366.94 120.60,367.13 Q 135.16,376.36 150.07,367.75 A 0.87,0.80 44.9 0 1 150.91,367.78 ZM 126.06,402.34 Q 125.09,402.04 125.87,401.40 Q 129.37,398.53 126.31,396.44 Q 124.06,394.90 123.56,397.31 Q 123.33,398.42 124.34,397.97 Q 126.44,397.03 126.25,398.86 A 3.59,3.54 73.9 0 1 124.95,401.25 Q 122.64,403.11 125.02,403.28 Q 130.17,403.63 126.06,402.34 ZM 104.81,399.31 Q 106.50,397.97 108.33,398.99 Q 108.78,399.24 108.77,398.76 Q 108.73,396.29 105.70,397.47 Q 100.71,399.40 103.90,402.51 Q 104.39,402.99 105.76,403.72 Q 106.71,404.23 107.64,404.97 Q 109.23,406.24 107.62,407.49 Q 105.92,408.81 103.95,407.97 A 1.56,0.86 36.7 0 0 103.01,407.84 Q 101.89,408.14 103.06,409.19 Q 105.34,411.22 107.44,409.44 Q 112.63,405.04 106.31,402.44 Q 102.74,400.97 104.81,399.31 ZM 116.3028,409.6409 A 6.21,5.60 94.5 0 0 122.3727,403.8894 A 6.21,5.60 94.5 0 0 117.2772,397.2591 A 6.21,5.60 94.5 0 0 111.2073,403.0106 A 6.21,5.60 94.5 0 0 116.3028,409.6409 ZM 129.93,400.17 A 1.51,1.49 -70.7 0 0 128.72,400.76 Q 127.80,401.97 129.39,401.39 Q 129.77,401.25 130.13,401.26 Q 131.41,401.28 132.69,401.22 Q 133.55,401.17 133.22,400.73 Q 132.82,400.19 129.93,400.17 ZM 125.89,414.02 Q 127.64,417.69 127.53,412.43 Q 127.40,406.17 124.60,410.73 Q 124.24,411.32 123.63,412.02 Q 121.82,414.09 125.19,413.64 A 0.67,0.67 73.4 0 1 125.89,414.02 Z"/>
<path fill="#cccdd0" d="M 370.54,250.00 Q 391.92,254.35 420.50,256.25 Q 429.68,256.86 433.50,256.46 Q 452.40,256.96 471.25,255.54 Q 470.13,256.19 468.75,256.23 Q 466.99,256.27 468.29,256.55 Q 470.50,257.03 472.75,257.29 Q 455.29,259.03 437.75,258.54 Q 419.66,257.90 401.62,256.39 Q 400.48,256.29 398.45,255.81 Q 397.05,255.48 395.25,255.25 Q 383.75,253.81 369.75,251.04 Q 370.62,250.96 370.54,250.00 Z"/>
<path fill="#333335" fill-opacity="0.988" d="M 37.46,252.50 Q 37.74,254.99 37.70,257.50 Q 37.44,274.38 37.76,291.25 Q 37.97,302.51 37.89,311.24 Q 37.54,348.62 38.04,386.00 Q 38.03,394.87 38.31,403.73 Q 38.51,409.86 40.01,413.52 Q 44.47,424.38 56.50,428.21 L 56.25,428.29 Q 44.05,426.02 39.56,413.94 Q 36.86,406.65 37.05,399.83 Q 37.17,395.66 37.17,395.53 Q 36.77,340.07 37.13,284.60 Q 37.13,284.50 36.99,269.53 Q 36.91,261.01 37.46,252.50 Z"/>
<path fill="#f5ecdb" d="M 188.96,252.75 Q 188.63,253.72 189.04,254.52 Q 189.32,255.06 189.33,255.44 Q 189.83,268.97 189.21,282.50 Q 188.44,284.49 188.50,285.50 Q 188.64,287.86 188.50,296.25 Q 188.21,313.59 188.19,329.84 Q 188.19,331.70 186.38,332.15 Q 174.95,335.04 165.30,331.32 A 2.45,2.44 10.8 0 1 163.74,329.03 Q 163.86,308.70 163.62,289.42 Q 163.58,286.17 163.01,281.00 Q 162.55,276.80 162.45,272.56 A 0.60,0.58 3.5 0 0 161.93,271.99 Q 144.95,269.67 127.81,269.56 Q 127.48,269.56 126.29,270.00 L 126.30,259.94 A 0.66,0.63 -0.5 0 1 126.95,259.31 Q 141.96,259.06 157.25,257.21 Q 163.43,256.91 165.75,256.50 Q 177.33,254.46 188.96,252.75 Z"/>
<path fill="#d8e1e9" d="M 370.79,253.00 Q 371.48,252.87 372.00,253.29 L 371.59,277.95 A 0.43,0.42 87.7 0 0 372.05,278.39 Q 382.70,277.36 394.72,278.94 A 0.63,0.61 -86.4 0 0 395.41,278.31 L 395.50,257.04 Q 395.87,256.95 396.25,257.04 L 396.50,271.59 A 0.36,0.35 -3.6 0 0 396.90,271.94 Q 414.45,269.54 431.25,269.50 Q 434.98,269.49 434.04,273.25 Q 433.91,274.92 434.18,276.58 Q 434.19,276.68 434.20,277.43 Q 434.20,278.34 435.50,277.96 Q 440.86,278.52 446.21,277.75 Q 447.07,278.22 447.00,277.00 Q 446.92,275.62 447.04,268.25 Q 448.85,270.01 451.36,269.86 Q 453.07,269.76 453.16,269.76 Q 485.47,270.13 515.91,278.03 Q 518.34,278.66 515.95,279.43 Q 475.12,292.63 432.25,290.25 Q 431.02,290.18 430.22,290.27 Q 428.37,290.48 428.25,290.48 Q 417.32,290.22 406.57,288.43 Q 400.80,287.48 393.88,286.40 Q 387.53,285.40 381.29,283.86 Q 378.53,283.19 372.48,281.09 Q 368.18,279.61 363.63,278.40 Q 362.13,278.01 363.69,277.81 L 369.48,277.07 A 0.97,0.90 89.1 0 0 370.27,276.19 Q 370.85,268.50 370.32,260.50 Q 370.07,256.71 370.79,253.00 Z"/>
<path fill="#f5ecdb" d="M 372.00,253.29 L 395.50,257.04 L 395.41,278.31 A 0.63,0.61 -86.4 0 1 394.72,278.94 Q 382.70,277.36 372.05,278.39 A 0.43,0.42 87.7 0 1 371.59,277.95 L 372.00,253.29 Z"/>
<path fill="#535758" fill-opacity="0.996" d="M 86.50,254.54 L 113.00,255.46 Q 113.45,255.83 113.21,256.50 Q 99.72,256.67 86.25,255.79 Q 85.76,255.87 85.50,255.54 Q 90.51,255.57 86.50,254.54 Z"/>
<path fill="#bfbfc3" d="M 153.25,255.21 Q 156.58,254.82 154.25,256.46 Q 136.08,258.92 117.75,258.79 L 88.50,257.29 L 83.00,256.79 Q 84.91,256.67 85.25,256.75 Q 86.55,257.06 86.25,255.79 Q 99.72,256.67 113.21,256.50 Q 131.30,256.76 135.50,256.25 Q 139.79,255.73 142.59,255.67 Q 146.99,255.58 147.90,255.51 Q 150.57,255.29 153.25,255.21 Z"/>
<path fill="#131716" fill-opacity="0.976" d="M 154.25,256.46 L 156.25,256.46 Q 157.32,256.20 157.25,257.21 Q 141.96,259.06 126.95,259.31 A 0.66,0.63 -0.5 0 0 126.30,259.94 L 126.29,270.00 L 126.21,278.00 L 125.75,278.00 L 125.75,259.92 A 0.67,0.62 88.8 0 0 125.10,259.25 L 119.25,259.46 Q 118.24,259.45 117.75,258.79 Q 136.08,258.92 154.25,256.46 Z"/>
<path fill="#f6f6f6" d="M 396.25,257.04 L 433.81,259.66 A 0.54,0.52 2.3 0 1 434.32,260.19 L 434.04,273.25 Q 434.98,269.49 431.25,269.50 Q 414.45,269.54 396.90,271.94 A 0.36,0.35 -3.6 0 1 396.50,271.59 L 396.25,257.04 Z"/>
<path fill="#626365" d="M 88.50,257.29 L 117.75,258.79 Q 118.24,259.45 119.25,259.46 L 115.00,259.68 A 0.63,0.57 -88.2 0 0 114.45,260.25 Q 113.58,269.11 114.04,278.00 Q 114.08,278.58 113.54,278.50 L 113.21,269.50 L 113.25,260.16 A 0.41,0.41 90.0 0 0 112.84,259.75 Q 99.70,259.55 86.50,258.04 Q 87.98,258.49 88.50,257.29 Z"/>
<path fill="#a2ba9b" d="M 125.75,278.00 L 114.04,278.00 Q 113.58,269.11 114.45,260.25 A 0.63,0.57 -88.2 0 1 115.00,259.68 L 119.25,259.46 L 125.10,259.25 A 0.67,0.62 88.8 0 1 125.75,259.92 L 125.75,278.00 Z"/>
<path fill="#cdaa7d" d="M 446.21,277.75 Q 440.86,278.52 435.50,277.96 Q 434.78,277.53 434.77,276.75 Q 434.66,268.75 434.98,260.75 A 1.36,0.89 78.1 0 1 435.32,259.87 Q 436.04,259.19 437.25,259.46 L 445.21,259.22 A 0.92,0.91 -3.3 0 1 446.16,260.06 Q 446.89,269.50 446.21,277.75 Z"/>
<path fill="#d8e1e9" d="M 113.21,269.50 L 113.54,278.50 L 113.00,290.21 Q 110.88,289.69 108.75,290.21 Q 74.52,289.66 42.06,278.94 Q 40.38,278.38 42.00,278.00 Q 76.03,270.00 111.00,269.26 A 1.64,0.68 42.4 0 1 111.88,269.58 Q 112.49,269.96 113.21,269.50 Z"/>
<path fill="#d8e1e9" d="M 189.21,282.50 L 189.44,330.91 A 1.30,1.25 -13.9 0 1 188.73,332.04 Q 184.17,334.42 178.75,334.57 Q 170.89,334.80 163.42,332.31 A 0.99,0.99 -81.5 0 1 162.75,331.40 Q 162.14,309.38 162.75,287.27 A 0.44,0.43 84.8 0 0 162.23,286.83 Q 147.36,289.79 132.75,290.25 Q 128.55,290.38 126.29,290.00 L 126.21,278.00 L 126.29,270.00 Q 127.48,269.56 127.81,269.56 Q 144.95,269.67 161.93,271.99 A 0.60,0.58 3.5 0 1 162.45,272.56 Q 162.55,276.80 163.01,281.00 Q 163.58,286.17 163.62,289.42 Q 163.86,308.70 163.74,329.03 A 2.45,2.44 10.8 0 0 165.30,331.32 Q 174.95,335.04 186.38,332.15 Q 188.19,331.70 188.19,329.84 Q 188.21,313.59 188.50,296.25 Q 188.64,287.86 188.50,285.50 Q 188.44,284.49 189.21,282.50 Z"/>
<path fill="#becfc5" d="M 114.04,278.00 L 125.75,278.00 Q 125.75,284.00 125.75,290.00 Q 125.75,291.93 125.21,292.75 L 114.25,292.54 Q 113.85,292.10 113.29,292.00 Q 113.53,291.04 113.00,290.21 L 113.54,278.50 Q 114.08,278.58 114.04,278.00 Z"/>
<path fill="#757679" d="M 125.75,278.00 L 126.21,278.00 L 126.29,290.00 Q 126.27,323.22 126.19,356.45 Q 126.19,359.44 124.96,361.09 Q 121.85,365.26 116.05,362.68 Q 113.24,361.43 113.24,358.42 L 113.29,292.00 Q 113.85,292.10 114.25,292.54 Q 113.85,297.28 113.99,302.02 Q 114.25,311.46 114.25,311.49 Q 114.25,332.64 114.25,353.79 Q 114.25,358.21 114.79,359.63 Q 116.18,363.27 121.00,362.50 Q 123.39,362.12 124.54,359.94 Q 125.25,358.61 125.25,355.93 Q 125.27,326.68 125.25,297.42 Q 125.25,297.34 125.51,295.12 Q 125.65,293.93 125.21,292.75 Q 125.75,291.93 125.75,290.00 Q 125.75,284.00 125.75,278.00 Z"/>
<path fill="#3e4041" d="M 521.79,279.50 L 521.96,279.50 Q 522.31,282.98 522.25,289.50 Q 521.90,325.56 521.96,393.25 L 521.54,395.00 Q 520.48,377.86 521.00,370.00 Q 521.37,364.37 521.25,355.00 Q 520.86,324.69 521.29,281.50 L 521.79,279.50 Z"/>
<path fill="#e9ecf1" d="M 370.46,285.00 L 370.50,330.79 A 2.13,2.12 -78.5 0 0 371.79,332.75 Q 378.84,335.74 387.26,334.81 Q 391.57,334.34 394.92,331.70 Q 396.25,330.65 396.26,328.91 L 396.46,289.75 Q 396.96,290.99 397.98,289.89 A 2.33,2.32 25.9 0 1 400.04,289.18 Q 417.28,291.87 434.25,292.54 Q 434.33,320.15 433.93,347.75 Q 433.85,353.11 434.10,358.47 Q 434.26,361.97 435.50,363.72 Q 437.51,366.55 441.03,366.13 Q 444.04,365.77 445.66,363.53 Q 447.25,361.33 447.25,358.00 Q 447.24,336.64 446.79,327.25 L 446.96,293.50 Q 446.98,291.95 445.25,292.46 Q 448.20,291.72 451.25,291.80 Q 463.95,292.16 476.41,289.94 Q 477.26,289.79 483.63,288.81 Q 486.38,288.39 490.81,287.56 Q 503.26,285.25 515.50,282.00 Q 518.86,281.11 519.44,282.06 Q 520.94,284.55 521.29,281.50 Q 520.86,324.69 521.25,355.00 Q 521.37,364.37 521.00,370.00 Q 520.48,377.86 521.54,395.00 Q 521.63,403.83 521.00,407.00 Q 517.77,423.28 504.17,427.67 Q 499.28,429.25 485.17,429.25 Q 435.09,429.25 385.00,429.27 Q 380.17,429.27 376.31,428.19 Q 362.11,424.21 358.46,409.75 Q 357.99,408.29 358.01,406.75 Q 358.15,395.82 357.00,384.96 Q 357.00,378.47 357.00,371.98 Q 357.00,367.20 357.44,359.03 Q 357.95,349.32 357.75,338.50 Q 357.29,313.99 357.54,282.00 Q 359.37,282.19 360.27,280.63 A 0.84,0.79 -64.8 0 1 361.24,280.25 L 366.98,282.25 A 1.28,0.89 80.6 0 1 367.62,282.91 Q 368.09,283.95 369.02,284.65 A 0.48,0.44 -55.3 0 0 369.68,284.50 Q 370.30,283.54 370.46,285.00 ZM 513.59,286.01 Q 511.25,288.49 510.01,291.27 Q 509.07,293.35 508.75,297.39 Q 503.95,357.92 499.39,419.03 A 0.67,0.66 -1.1 0 0 500.13,419.74 Q 503.16,419.38 505.66,417.40 Q 509.30,414.51 512.17,410.88 Q 513.52,409.17 514.05,407.17 Q 514.63,404.96 514.75,403.00 Q 515.12,396.99 514.76,390.47 Q 514.33,382.94 514.45,378.01 Q 514.61,370.90 514.49,363.79 Q 514.35,354.36 514.39,349.58 Q 514.66,317.80 514.00,286.16 Q 513.99,285.58 513.59,286.01 ZM 387.45,345.49 Q 393.51,355.28 399.40,365.16 Q 399.58,365.46 399.80,365.64 Q 400.75,366.45 400.52,365.36 Q 400.46,365.09 400.27,364.78 Q 394.48,354.93 388.51,345.18 A 1.31,1.06 -58.7 0 1 388.39,344.27 Q 388.78,342.54 387.13,341.88 Q 386.80,341.75 386.42,341.51 Q 385.51,340.93 385.67,342.26 Q 385.72,342.70 385.62,343.24 Q 385.36,344.61 386.70,344.97 A 1.35,1.02 -2.4 0 1 387.45,345.49 ZM 492.69,359.55 Q 493.84,359.60 494.11,360.46 Q 494.29,361.05 493.80,361.81 Q 492.93,363.18 491.84,364.38 A 1.26,0.76 -37.1 0 0 491.49,365.25 Q 491.59,365.85 492.31,365.56 Q 492.90,365.33 493.78,365.59 A 1.61,1.08 33.3 0 0 494.71,365.58 Q 496.31,364.93 494.50,364.78 A 1.16,0.56 -1.9 0 1 493.65,364.40 Q 493.39,363.93 494.06,363.31 Q 498.00,359.74 493.16,358.36 Q 492.71,358.23 492.34,358.37 Q 491.56,358.66 491.86,359.18 A 1.09,0.61 -5.3 0 0 492.69,359.55 ZM 473.41,370.11 Q 476.40,372.26 479.59,371.23 A 0.88,0.65 -9.7 0 0 480.20,370.59 Q 480.26,369.47 477.13,370.17 A 2.42,2.42 -28.8 0 1 474.89,369.52 Q 471.39,366.01 474.19,361.94 Q 475.77,359.63 478.92,360.56 Q 479.42,360.71 479.73,360.71 Q 481.02,360.72 480.06,359.69 Q 478.78,358.30 476.06,359.31 Q 469.62,361.71 471.99,368.24 A 4.02,3.97 8.1 0 0 473.41,370.11 ZM 500.40,361.94 A 0.33,0.33 89.7 0 1 500.17,361.71 L 499.77,360.40 A 0.33,0.33 -44.5 0 0 499.13,360.41 L 498.75,361.72 A 0.33,0.33 89.7 0 1 498.52,361.94 L 497.21,362.34 A 0.33,0.33 45.0 0 0 497.22,362.98 L 498.53,363.37 A 0.33,0.33 -0.2 0 1 498.75,363.59 L 499.15,364.90 A 0.33,0.33 45.4 0 0 499.79,364.90 L 500.18,363.58 A 0.33,0.33 -1.5 0 1 500.40,363.36 L 501.71,362.96 A 0.33,0.33 45.5 0 0 501.71,362.32 L 500.40,361.94 ZM 487.08,370.88 A 1.04,1.03 -45.2 0 1 488.44,370.87 Q 489.75,372.00 489.68,370.49 Q 489.51,367.00 489.50,363.50 A 0.90,0.72 -80.0 0 0 489.08,362.73 Q 488.19,362.32 488.00,363.75 Q 487.68,366.14 487.80,366.74 Q 488.38,369.49 486.34,370.07 Q 484.27,370.66 484.00,368.52 Q 483.68,365.95 483.69,363.38 Q 483.69,362.98 483.54,362.76 Q 483.30,362.39 482.90,362.48 A 0.88,0.64 -87.9 0 0 482.35,363.18 Q 481.91,366.02 482.47,368.78 Q 482.80,370.45 483.84,371.18 Q 485.44,372.33 487.08,370.88 ZM 411.03,374.74 L 412.90,371.58 A 1.10,0.77 -46.4 0 0 413.03,370.71 Q 412.28,368.80 410.00,369.00 Q 408.70,369.11 409.95,369.50 Q 412.31,370.23 412.05,370.94 Q 411.61,372.14 410.74,373.08 Q 407.59,376.50 412.34,375.59 Q 412.86,375.49 412.49,375.11 Q 411.98,374.59 411.24,374.93 Q 410.79,375.14 411.03,374.74 ZM 392.77,379.97 Q 391.13,380.98 389.33,380.16 Q 388.92,379.98 388.62,380.01 Q 387.91,380.08 388.06,380.62 Q 388.17,380.97 388.61,381.21 Q 390.62,382.27 392.56,381.60 Q 394.27,381.01 395.01,379.42 Q 396.00,377.29 393.69,375.73 Q 392.54,374.96 391.31,374.32 Q 388.22,372.71 390.94,371.19 Q 392.44,370.35 393.41,371.15 A 0.74,0.51 43.8 0 0 394.20,371.28 Q 394.58,370.99 394.42,370.51 Q 394.28,370.08 393.75,369.83 Q 392.39,369.20 391.02,369.56 Q 389.81,369.87 388.95,371.05 Q 387.02,373.66 389.92,375.46 Q 389.99,375.50 391.77,376.22 Q 393.76,377.01 393.31,379.20 A 1.19,1.17 -10.4 0 1 392.77,379.97 ZM 401.8517,381.9403 A 6.24,5.60 93.2 0 0 407.7913,376.0226 A 6.24,5.60 93.2 0 0 402.5483,369.4797 A 6.24,5.60 93.2 0 0 396.6087,375.3974 A 6.24,5.60 93.2 0 0 401.8517,381.9403 ZM 441.12,374.80 Q 441.54,375.11 441.81,375.69 Q 446.95,386.42 458.56,382.81 Q 464.77,380.89 470.24,376.59 Q 470.44,376.43 470.58,376.24 Q 471.70,374.64 470.04,375.82 Q 464.94,379.45 459.07,381.58 Q 448.07,385.56 443.00,375.75 Q 442.28,374.35 443.02,373.70 A 0.62,0.47 -38.2 0 0 443.20,373.01 Q 442.43,371.77 441.19,371.00 A 0.50,0.49 30.5 0 0 440.49,371.17 Q 439.64,372.72 440.41,374.13 Q 440.54,374.36 441.12,374.80 ZM 417.40,373.73 Q 418.40,374.03 418.39,373.18 A 0.72,0.62 6.5 0 0 417.82,372.57 Q 415.88,372.16 414.69,372.69 Q 414.08,372.96 414.20,373.34 A 0.81,0.54 -9.8 0 0 415.00,373.69 Q 415.72,373.61 416.44,373.58 Q 416.81,373.56 417.40,373.73 ZM 411.62,386.78 L 411.97,387.34 A 0.40,0.36 -46.1 0 0 412.61,387.29 Q 413.39,386.09 412.91,384.84 Q 412.52,383.85 412.51,383.46 Q 412.49,382.72 412.64,381.98 A 0.92,0.72 -68.7 0 0 412.39,381.14 Q 411.78,380.66 411.38,381.30 Q 410.97,381.94 410.92,382.00 Q 409.72,383.41 408.68,384.95 Q 407.84,386.20 409.33,385.99 Q 410.16,385.87 410.97,386.13 A 1.34,0.44 63.3 0 1 411.62,386.78 Z"/>
<path fill="#dfc8b1" d="M 371.54,285.00 L 371.56,330.56 A 1.32,1.32 -79.8 0 0 372.42,331.80 Q 380.33,334.85 388.75,333.74 Q 392.81,333.21 395.15,330.09 A 1.67,1.41 67.6 0 0 395.44,329.19 L 395.75,288.71 Q 396.42,288.91 396.46,289.75 L 396.26,328.91 Q 396.25,330.65 394.92,331.70 Q 391.57,334.34 387.26,334.81 Q 378.84,335.74 371.79,332.75 A 2.13,2.12 -78.5 0 1 370.50,330.79 L 370.46,285.00 Q 371.00,280.90 371.54,285.00 Z"/>
<path fill="#f5ecdb" d="M 395.75,288.71 L 395.44,329.19 A 1.67,1.41 67.6 0 1 395.15,330.09 Q 392.81,333.21 388.75,333.74 Q 380.33,334.85 372.42,331.80 A 1.32,1.32 -79.8 0 1 371.56,330.56 L 371.54,285.00 Q 372.88,285.29 374.08,284.54 A 1.22,0.99 -48.3 0 1 374.98,284.39 Q 385.21,287.29 395.75,288.71 Z"/>
<path fill="#f7fafd" d="M 513.59,286.01 Q 513.99,285.58 514.00,286.16 Q 514.66,317.80 514.39,349.58 Q 514.35,354.36 514.49,363.79 Q 514.61,370.90 514.45,378.01 Q 514.33,382.94 514.76,390.47 Q 515.12,396.99 514.75,403.00 Q 514.63,404.96 514.05,407.17 Q 513.52,409.17 512.17,410.88 Q 509.30,414.51 505.66,417.40 Q 503.16,419.38 500.13,419.74 A 0.67,0.66 -1.1 0 1 499.39,419.03 Q 503.95,357.92 508.75,297.39 Q 509.07,293.35 510.01,291.27 Q 511.25,288.49 513.59,286.01 Z"/>
<path fill="#cdaa7d" d="M 445.25,292.46 Q 446.98,291.95 446.96,293.50 L 446.74,293.63 A 0.54,0.31 82.3 0 0 446.56,294.06 L 446.29,328.00 Q 445.80,337.08 446.00,342.25 Q 446.38,351.80 445.90,359.06 Q 445.73,361.58 445.00,362.79 Q 443.82,364.72 441.50,365.00 Q 437.69,365.46 436.11,362.71 Q 435.26,361.24 435.21,357.64 Q 434.75,325.73 434.81,293.82 A 1.59,0.82 -39.9 0 1 435.17,292.96 L 435.50,292.54 L 445.25,292.46 Z"/>
<path fill="#a2ba9b" d="M 114.25,292.54 L 125.21,292.75 Q 125.65,293.93 125.51,295.12 Q 125.25,297.34 125.25,297.42 Q 125.27,326.68 125.25,355.93 Q 125.25,358.61 124.54,359.94 Q 123.39,362.12 121.00,362.50 Q 116.18,363.27 114.79,359.63 Q 114.25,358.21 114.25,353.79 Q 114.25,332.64 114.25,311.49 Q 114.25,311.46 113.99,302.02 Q 113.85,297.28 114.25,292.54 Z"/>
<path fill="#757679" d="M 434.25,292.54 L 435.50,292.54 L 435.17,292.96 A 1.59,0.82 -39.9 0 0 434.81,293.82 Q 434.75,325.73 435.21,357.64 Q 435.26,361.24 436.11,362.71 Q 437.69,365.46 441.50,365.00 Q 443.82,364.72 445.00,362.79 Q 445.73,361.58 445.90,359.06 Q 446.38,351.80 446.00,342.25 Q 445.80,337.08 446.29,328.00 Q 446.95,327.96 446.79,327.25 Q 447.24,336.64 447.25,358.00 Q 447.25,361.33 445.66,363.53 Q 444.04,365.77 441.03,366.13 Q 437.51,366.55 435.50,363.72 Q 434.26,361.97 434.10,358.47 Q 433.85,353.11 433.93,347.75 Q 434.33,320.15 434.25,292.54 Z"/>
<path fill="#333335" fill-opacity="0.988" d="M 446.96,293.50 L 446.79,327.25 Q 446.95,327.96 446.29,328.00 L 446.56,294.06 A 0.54,0.31 82.3 0 1 446.74,293.63 L 446.96,293.50 Z"/>
<path fill="#6c6d6d" d="M 386.70,344.97 Q 385.36,344.61 385.62,343.24 Q 385.72,342.70 385.67,342.26 Q 385.51,340.93 386.42,341.51 Q 386.80,341.75 387.13,341.88 Q 388.78,342.54 388.39,344.27 A 1.31,1.06 -58.7 0 0 388.51,345.18 Q 394.48,354.93 400.27,364.78 Q 400.46,365.09 400.52,365.36 Q 400.75,366.45 399.80,365.64 Q 399.58,365.46 399.40,365.16 Q 393.51,355.28 387.45,345.49 A 1.35,1.02 -2.4 0 0 386.70,344.97 Z"/>
<path fill="#6c6d6d" d="M 178.70,354.87 Q 178.03,354.90 177.48,354.60 Q 176.95,354.31 177.56,354.23 Q 180.72,353.79 180.02,356.48 Q 179.87,357.07 179.14,358.28 Q 178.62,359.16 178.24,360.10 A 1.01,0.88 -82.7 0 1 177.58,360.69 Q 176.17,360.98 176.77,359.87 Q 176.94,359.56 177.38,359.26 Q 179.49,357.78 179.25,355.30 A 0.54,0.47 -3.5 0 0 178.70,354.87 Z"/>
<path fill="#6c6d6d" d="M 162.18,356.04 Q 160.22,355.95 158.25,355.94 Q 156.31,355.93 157.13,355.07 A 1.30,0.97 16.4 0 1 157.99,354.75 L 163.51,354.75 Q 165.48,354.75 164.41,356.38 L 158.55,365.33 Q 158.22,365.84 158.82,365.74 Q 161.23,365.35 163.75,365.50 Q 164.83,365.56 164.96,366.20 A 0.51,0.42 -4.5 0 1 164.44,366.70 L 157.48,366.75 Q 156.02,366.76 156.84,365.44 L 162.46,356.50 A 0.32,0.30 16.1 0 0 162.18,356.04 Z"/>
<path fill="#ababaf" d="M 185.13,357.30 L 186.30,357.60 A 0.31,0.31 42.9 0 1 186.31,358.19 L 185.16,358.54 A 0.31,0.31 -1.4 0 0 184.95,358.76 L 184.66,359.93 A 0.31,0.31 -47.4 0 1 184.06,359.94 L 183.71,358.79 A 0.31,0.31 -1.2 0 0 183.49,358.58 L 182.33,358.28 A 0.31,0.31 42.9 0 1 182.31,357.69 L 183.46,357.34 A 0.31,0.31 -1.4 0 0 183.67,357.12 L 183.97,355.95 A 0.31,0.31 43.5 0 1 184.56,355.94 L 184.91,357.09 A 0.31,0.31 -1.2 0 0 185.13,357.30 Z"/>
<path fill="#6c6d6d" d="M 171.19,359.26 Q 168.03,359.04 168.50,362.50 Q 168.60,363.25 168.46,365.94 A 0.99,0.67 84.0 0 1 168.04,366.73 Q 167.60,366.94 167.26,366.51 Q 167.07,366.26 167.05,365.81 Q 166.92,362.31 167.04,358.81 A 0.41,0.37 8.8 0 1 167.54,358.48 Q 168.73,358.78 170.44,358.19 Q 172.46,357.48 173.56,359.03 Q 174.19,359.92 174.23,361.74 Q 174.28,363.65 174.26,365.56 Q 174.25,366.04 174.07,366.41 Q 173.43,367.75 173.08,365.96 Q 173.00,365.57 173.08,365.05 Q 173.52,362.08 171.97,359.71 A 1.02,1.01 74.7 0 0 171.19,359.26 Z"/>
<path fill="#95979b" d="M 491.86,359.18 Q 491.56,358.66 492.34,358.37 Q 492.71,358.23 493.16,358.36 Q 498.00,359.74 494.06,363.31 Q 493.39,363.93 493.65,364.40 A 1.16,0.56 -1.9 0 0 494.50,364.78 Q 496.31,364.93 494.71,365.58 A 1.61,1.08 33.3 0 1 493.78,365.59 Q 492.90,365.33 492.31,365.56 Q 491.59,365.85 491.49,365.25 A 1.26,0.76 -37.1 0 1 491.84,364.38 Q 492.93,363.18 493.80,361.81 Q 494.29,361.05 494.11,360.46 Q 493.84,359.60 492.69,359.55 A 1.09,0.61 -5.3 0 1 491.86,359.18 Z"/>
<path fill="#757679" d="M 473.41,370.11 A 4.02,3.97 8.1 0 1 471.99,368.24 Q 469.62,361.71 476.06,359.31 Q 478.78,358.30 480.06,359.69 Q 481.02,360.72 479.73,360.71 Q 479.42,360.71 478.92,360.56 Q 475.77,359.63 474.19,361.94 Q 471.39,366.01 474.89,369.52 A 2.42,2.42 -28.8 0 0 477.13,370.17 Q 480.26,369.47 480.20,370.59 A 0.88,0.65 -9.7 0 1 479.59,371.23 Q 476.40,372.26 473.41,370.11 Z"/>
<path fill="#95979b" d="M 500.40,361.94 L 501.71,362.32 A 0.33,0.33 44.2 0 1 501.71,362.96 L 500.40,363.36 A 0.33,0.33 0.3 0 0 500.18,363.58 L 499.79,364.90 A 0.33,0.33 42.9 0 1 499.15,364.90 L 498.75,363.59 A 0.33,0.33 -0.2 0 0 498.53,363.37 L 497.22,362.98 A 0.33,0.33 44.4 0 1 497.21,362.34 L 498.52,361.94 A 0.33,0.33 89.8 0 0 498.75,361.72 L 499.13,360.41 A 0.33,0.33 -45.8 0 1 499.77,360.40 L 500.17,361.71 A 0.33,0.33 89.8 0 0 500.40,361.94 Z"/>
<path fill="#757679" d="M 487.08,370.88 Q 485.44,372.33 483.84,371.18 Q 482.80,370.45 482.47,368.78 Q 481.91,366.02 482.35,363.18 A 0.88,0.64 -87.9 0 1 482.90,362.48 Q 483.30,362.39 483.54,362.76 Q 483.69,362.98 483.69,363.38 Q 483.68,365.95 484.00,368.52 Q 484.27,370.66 486.34,370.07 Q 488.38,369.49 487.80,366.74 Q 487.68,366.14 488.00,363.75 Q 488.19,362.32 489.08,362.73 A 0.90,0.72 -80.0 0 1 489.50,363.50 Q 489.51,367.00 489.68,370.49 Q 489.75,372.00 488.44,370.87 A 1.04,1.03 -45.2 0 0 487.08,370.88 Z"/>
<path fill="#6f696d" fill-opacity="0.502" d="M 351.46,375.25 Q 349.90,373.82 348.04,374.75 Q 347.76,369.18 349.18,363.80 A 0.65,0.53 -77.4 0 1 349.81,363.31 Q 350.60,363.44 350.74,364.55 Q 351.42,369.88 351.46,375.25 Z"/>
<path fill="#6c6d6d" d="M 150.07,367.75 Q 135.16,376.36 120.60,367.13 Q 120.31,366.94 120.08,366.69 Q 118.28,364.77 120.46,365.85 Q 120.72,365.98 121.01,366.18 Q 133.08,374.21 147.31,368.31 Q 149.33,367.48 150.04,366.21 A 1.78,0.73 -70.9 0 1 150.68,365.48 Q 152.01,364.75 153.33,365.48 A 0.67,0.66 -68.1 0 1 153.64,366.23 Q 152.91,368.97 150.91,367.78 A 0.87,0.80 44.9 0 0 150.07,367.75 Z"/>
<path fill="#95979b" d="M 411.24,374.93 Q 411.98,374.59 412.49,375.11 Q 412.86,375.49 412.34,375.59 Q 407.59,376.50 410.74,373.08 Q 411.61,372.14 412.05,370.94 Q 412.31,370.23 409.95,369.50 Q 408.70,369.11 410.00,369.00 Q 412.28,368.80 413.03,370.71 A 1.10,0.77 -46.4 0 1 412.90,371.58 L 411.03,374.74 Q 410.79,375.14 411.24,374.93 Z"/>
<path fill="#757679" d="M 393.31,379.20 Q 393.76,377.01 391.77,376.22 Q 389.99,375.50 389.92,375.46 Q 387.02,373.66 388.95,371.05 Q 389.81,369.87 391.02,369.56 Q 392.39,369.20 393.75,369.83 Q 394.28,370.08 394.42,370.51 Q 394.58,370.99 394.20,371.28 A 0.74,0.51 43.8 0 1 393.41,371.15 Q 392.44,370.35 390.94,371.19 Q 388.22,372.71 391.31,374.32 Q 392.54,374.96 393.69,375.73 Q 396.00,377.29 395.01,379.42 Q 394.27,381.01 392.56,381.60 Q 390.62,382.27 388.61,381.21 Q 388.17,380.97 388.06,380.62 Q 387.91,380.08 388.62,380.01 Q 388.92,379.98 389.33,380.16 Q 391.13,380.98 392.77,379.97 A 1.19,1.17 -10.4 0 0 393.31,379.20 Z"/>
<path fill="#757679" d="M 401.8517,381.9403 A 6.24,5.60 93.2 0 1 396.6087,375.3974 A 6.24,5.60 93.2 0 1 402.5483,369.4797 A 6.24,5.60 93.2 0 1 407.7913,376.0226 A 6.24,5.60 93.2 0 1 401.8517,381.9403 ZM 402.0855,380.5691 A 4.92,3.90 91.1 0 0 406.0793,375.7249 A 4.92,3.90 91.1 0 0 402.2745,370.7309 A 4.92,3.90 91.1 0 0 398.2807,375.5751 A 4.92,3.90 91.1 0 0 402.0855,380.5691 Z"/>
<ellipse fill="#e9ecf1" cx="0.00" cy="0.00" transform="translate(402.18,375.65) rotate(91.1)" rx="4.92" ry="3.90"/>
<path fill="#6c6d6d" d="M 440.41,374.13 Q 439.64,372.72 440.49,371.17 A 0.50,0.49 30.5 0 1 441.19,371.00 Q 442.43,371.77 443.20,373.01 A 0.62,0.47 -38.2 0 1 443.02,373.70 Q 442.28,374.35 443.00,375.75 Q 448.07,385.56 459.07,381.58 Q 464.94,379.45 470.04,375.82 Q 471.70,374.64 470.58,376.24 Q 470.44,376.43 470.24,376.59 Q 464.77,380.89 458.56,382.81 Q 446.95,386.42 441.81,375.69 Q 441.54,375.11 441.12,374.80 Q 440.54,374.36 440.41,374.13 Z"/>
<path fill="#aeafb3" d="M 416.44,373.58 Q 415.72,373.61 415.00,373.69 A 0.81,0.54 -9.8 0 1 414.20,373.34 Q 414.08,372.96 414.69,372.69 Q 415.88,372.16 417.82,372.57 A 0.72,0.62 6.5 0 1 418.39,373.18 Q 418.40,374.03 417.40,373.73 Q 416.81,373.56 416.44,373.58 Z"/>
<path fill="#aeaeb2" fill-opacity="0.737" d="M 351.46,375.25 Q 353.04,378.36 352.41,381.82 A 0.74,0.70 -89.1 0 1 351.83,382.42 Q 349.35,382.87 348.42,380.28 Q 347.45,377.57 348.04,374.75 Q 349.90,373.82 351.46,375.25 Z"/>
<path fill="#95979b" d="M 410.97,386.13 Q 410.16,385.87 409.33,385.99 Q 407.84,386.20 408.68,384.95 Q 409.72,383.41 410.92,382.00 Q 410.97,381.94 411.38,381.30 Q 411.78,380.66 412.39,381.14 A 0.92,0.72 -68.7 0 1 412.64,381.98 Q 412.49,382.72 412.51,383.46 Q 412.52,383.85 412.91,384.84 Q 413.39,386.09 412.61,387.29 A 0.40,0.36 -46.1 0 1 411.97,387.34 L 411.62,386.78 A 1.34,0.44 63.3 0 0 410.97,386.13 ZM 410.4066,385.3305 A 1.11,0.86 121.1 0 0 411.7164,384.8242 A 1.11,0.86 121.1 0 0 411.5534,383.4295 A 1.11,0.86 121.1 0 0 410.2436,383.9358 A 1.11,0.86 121.1 0 0 410.4066,385.3305 Z"/>
<ellipse fill="#e1e2e4" cx="0.00" cy="0.00" transform="translate(410.98,384.38) rotate(121.1)" rx="1.11" ry="0.86"/>
<path fill="#626365" d="M 357.00,384.96 Q 358.15,395.82 358.01,406.75 Q 357.99,408.29 358.46,409.75 L 357.79,411.25 Q 356.93,408.13 356.93,404.91 Q 356.92,401.17 356.92,401.09 Q 356.66,394.30 356.71,387.50 Q 356.59,386.19 357.00,384.96 Z"/>
<path fill="#010101" fill-opacity="0.996" d="M 521.96,393.25 Q 523.18,405.42 519.44,415.19 Q 517.50,420.26 511.95,424.15 Q 505.47,428.69 496.75,429.50 Q 487.45,430.36 481.50,430.35 Q 439.38,430.25 397.25,430.26 Q 390.81,430.26 384.40,429.81 Q 376.05,429.23 371.83,427.52 Q 361.31,423.25 357.79,411.25 L 358.46,409.75 Q 362.11,424.21 376.31,428.19 Q 380.17,429.27 385.00,429.27 Q 435.09,429.25 485.17,429.25 Q 499.28,429.25 504.17,427.67 Q 517.77,423.28 521.00,407.00 Q 521.63,403.83 521.54,395.00 L 521.96,393.25 Z"/>
<path fill="#95979b" d="M 126.06,402.34 Q 130.17,403.63 125.02,403.28 Q 122.64,403.11 124.95,401.25 A 3.59,3.54 73.9 0 0 126.25,398.86 Q 126.44,397.03 124.34,397.97 Q 123.33,398.42 123.56,397.31 Q 124.06,394.90 126.31,396.44 Q 129.37,398.53 125.87,401.40 Q 125.09,402.04 126.06,402.34 Z"/>
<path fill="#6c6d6d" d="M 104.81,399.31 Q 102.74,400.97 106.31,402.44 Q 112.63,405.04 107.44,409.44 Q 105.34,411.22 103.06,409.19 Q 101.89,408.14 103.01,407.84 A 1.56,0.86 36.7 0 1 103.95,407.97 Q 105.92,408.81 107.62,407.49 Q 109.23,406.24 107.64,404.97 Q 106.71,404.23 105.76,403.72 Q 104.39,402.99 103.90,402.51 Q 100.71,399.40 105.70,397.47 Q 108.73,396.29 108.77,398.76 Q 108.78,399.24 108.33,398.99 Q 106.50,397.97 104.81,399.31 Z"/>
<path fill="#6c6d6d" d="M 116.3028,409.6409 A 6.21,5.60 94.5 0 1 111.2073,403.0106 A 6.21,5.60 94.5 0 1 117.2772,397.2591 A 6.21,5.60 94.5 0 1 122.3727,403.8894 A 6.21,5.60 94.5 0 1 116.3028,409.6409 ZM 116.7775,408.4500 A 5.00,3.95 89.8 0 0 120.7100,403.4362 A 5.00,3.95 89.8 0 0 116.7425,398.4500 A 5.00,3.95 89.8 0 0 112.8100,403.4638 A 5.00,3.95 89.8 0 0 116.7775,408.4500 Z"/>
<ellipse fill="#e9ecf1" cx="0.00" cy="0.00" transform="translate(116.76,403.45) rotate(89.8)" rx="5.00" ry="3.95"/>
<path fill="#aeafb3" d="M 129.93,400.17 Q 132.82,400.19 133.22,400.73 Q 133.55,401.17 132.69,401.22 Q 131.41,401.28 130.13,401.26 Q 129.77,401.25 129.39,401.39 Q 127.80,401.97 128.72,400.76 A 1.51,1.49 -70.7 0 1 129.93,400.17 Z"/>
<path fill="#95979b" d="M 125.19,413.64 Q 121.82,414.09 123.63,412.02 Q 124.24,411.32 124.60,410.73 Q 127.40,406.17 127.53,412.43 Q 127.64,417.69 125.89,414.02 A 0.67,0.67 73.4 0 0 125.19,413.64 ZM 126.54,411.56 Q 127.07,409.68 124.98,411.29 A 0.79,0.78 56.2 0 0 124.78,412.31 Q 125.81,414.13 126.54,411.56 Z"/>
<path fill="#e9ecf1" d="M 126.54,411.56 Q 125.81,414.13 124.78,412.31 A 0.79,0.78 56.2 0 1 124.98,411.29 Q 127.07,409.68 126.54,411.56 Z"/>
<path fill="#131716" fill-opacity="0.976" d="M 56.25,428.29 L 56.50,428.21 Q 67.81,429.78 79.19,429.53 Q 91.73,429.25 91.80,429.25 Q 132.40,429.28 173.00,429.54 Q 161.47,430.15 149.92,430.03 Q 131.29,429.84 131.19,429.84 Q 100.25,429.91 69.31,429.84 Q 65.85,429.84 57.50,429.00 Q 56.53,428.90 56.25,428.29 Z"/>
</svg>
